<?xml version="1.0" standalone="no"?>
<svg width="11.183975cm" height="4.638cm" viewBox="234.0 -739.0 448.0 186.0">
<g fill="black" fill-rule="evenodd" stroke-width="0" stroke-linejoin="miter" stroke-linecap="butt" stroke-miterlimit="10" >
<path d="
M 256.594 -716.22
C 256.594 -716.28 256.594 -716.32 256.258 -716.66
C 253.766 -719.17 253.129 -722.93 253.129 -725.98
C 253.129 -729.45 253.887 -732.91 256.336 -735.41
C 256.594 -735.64 256.594 -735.68 256.594 -735.75
C 256.594 -735.88 256.516 -735.95 256.395 -735.95
C 256.195 -735.95 254.402 -734.59 253.227 -732.06
C 252.211 -729.87 251.973 -727.66 251.973 -725.98
C 251.973 -724.43 252.191 -722.02 253.289 -719.77
C 254.484 -717.31 256.195 -716.02 256.395 -716.02
C 256.516 -716.02 256.594 -716.08 256.594 -716.22
Z
"/>
<path d="
M 263.656 -727.02
C 263.773 -727.54 264.234 -729.37 265.629 -729.37
C 265.727 -729.37 266.207 -729.37 266.625 -729.11
C 266.066 -729.01 265.668 -728.51 265.668 -728.04
C 265.668 -727.71 265.887 -727.34 266.426 -727.34
C 266.863 -727.34 267.5 -727.7 267.5 -728.49
C 267.5 -729.53 266.324 -729.81 265.648 -729.81
C 264.492 -729.81 263.793 -728.75 263.555 -728.29
C 263.059 -729.61 261.98 -729.81 261.402 -729.81
C 259.332 -729.81 258.195 -727.24 258.195 -726.74
C 258.195 -726.54 258.395 -726.54 258.434 -726.54
C 258.594 -726.54 258.652 -726.58 258.695 -726.76
C 259.371 -728.87 260.688 -729.37 261.363 -729.37
C 261.742 -729.37 262.441 -729.19 262.441 -728.04
C 262.441 -727.41 262.102 -726.08 261.363 -723.29
C 261.043 -722.05 260.348 -721.22 259.473 -721.22
C 259.352 -721.22 258.895 -721.22 258.473 -721.48
C 258.973 -721.58 259.41 -722 259.41 -722.55
C 259.41 -723.09 258.973 -723.25 258.672 -723.25
C 258.074 -723.25 257.578 -722.73 257.578 -722.1
C 257.578 -721.18 258.574 -720.78 259.449 -720.78
C 260.766 -720.78 261.484 -722.18 261.543 -722.3
C 261.781 -721.56 262.5 -720.78 263.695 -720.78
C 265.746 -720.78 266.883 -723.35 266.883 -723.85
C 266.883 -724.05 266.703 -724.05 266.645 -724.05
C 266.465 -724.05 266.426 -723.97 266.387 -723.83
C 265.727 -721.7 264.371 -721.22 263.734 -721.22
C 262.957 -721.22 262.641 -721.86 262.641 -722.54
C 262.641 -722.97 262.758 -723.41 262.977 -724.29
Z
"/>
<path d="
M 272.809 -732.66
C 273.895 -732.66 274.676 -731.91 274.676 -730.41
C 274.676 -728.68 273.672 -728.17 272.863 -728.17
C 272.305 -728.17 271.078 -728.32 270.492 -729.14
C 271.148 -729.17 271.301 -729.63 271.301 -729.93
C 271.301 -730.37 270.965 -730.69 270.535 -730.69
C 270.145 -730.69 269.754 -730.45 269.754 -729.88
C 269.754 -728.57 271.203 -727.72 272.891 -727.72
C 274.832 -727.72 276.168 -729.02 276.168 -730.41
C 276.168 -731.5 275.277 -732.59 273.742 -732.91
C 275.207 -733.44 275.738 -734.48 275.738 -735.34
C 275.738 -736.44 274.469 -737.26 272.918 -737.26
C 271.371 -737.26 270.188 -736.51 270.188 -735.39
C 270.188 -734.92 270.492 -734.65 270.91 -734.65
C 271.344 -734.65 271.621 -734.97 271.621 -735.36
C 271.621 -735.77 271.344 -736.06 270.91 -736.09
C 271.398 -736.7 272.363 -736.86 272.879 -736.86
C 273.504 -736.86 274.383 -736.55 274.383 -735.34
C 274.383 -734.75 274.188 -734.11 273.824 -733.68
C 273.367 -733.15 272.977 -733.12 272.277 -733.08
C 271.93 -733.05 271.902 -733.05 271.832 -733.04
C 271.805 -733.04 271.691 -733.01 271.691 -732.86
C 271.691 -732.66 271.816 -732.66 272.055 -732.66
Z
"/>
<path d="
M 295.172 -725.58
C 295.449 -725.58 295.828 -725.58 295.828 -725.98
C 295.828 -726.38 295.449 -726.38 295.172 -726.38
L 284.312 -726.38
C 284.031 -726.38 283.652 -726.38 283.652 -725.98
C 283.652 -725.58 284.031 -725.58 284.312 -725.58
Z
"/>
<path d="
M 307.859 -733.75
C 307.859 -734.23 307.859 -734.27 307.398 -734.27
C 306.164 -733 304.41 -733 303.773 -733
L 303.773 -732.38
C 304.172 -732.38 305.348 -732.38 306.383 -732.89
L 306.383 -722.57
C 306.383 -721.86 306.324 -721.62 304.531 -721.62
L 303.895 -721.62
L 303.895 -721
C 304.59 -721.06 306.324 -721.06 307.121 -721.06
C 307.918 -721.06 309.652 -721.06 310.348 -721
L 310.348 -721.62
L 309.711 -721.62
C 307.918 -721.62 307.859 -721.84 307.859 -722.57
Z
M 320.945 -724.47
L 320.449 -724.47
C 320.348 -723.87 320.211 -722.99 320.012 -722.7
C 319.871 -722.54 318.555 -722.54 318.117 -722.54
L 314.531 -722.54
L 316.645 -724.59
C 319.75 -727.34 320.945 -728.41 320.945 -730.41
C 320.945 -732.68 319.152 -734.27 316.723 -734.27
C 314.473 -734.27 312.996 -732.44 312.996 -730.66
C 312.996 -729.55 313.992 -729.55 314.051 -729.55
C 314.391 -729.55 315.09 -729.79 315.09 -730.61
C 315.09 -731.12 314.73 -731.64 314.031 -731.64
C 313.871 -731.64 313.832 -731.64 313.773 -731.62
C 314.23 -732.91 315.309 -733.65 316.465 -733.65
C 318.277 -733.65 319.133 -732.04 319.133 -730.41
C 319.133 -728.81 318.137 -727.24 317.043 -726
L 313.215 -721.74
C 312.996 -721.52 312.996 -721.48 312.996 -721
L 320.387 -721
Z
"/>
<path d="
M 328.656 -727.02
C 328.773 -727.54 329.234 -729.37 330.629 -729.37
C 330.727 -729.37 331.207 -729.37 331.625 -729.11
C 331.066 -729.01 330.668 -728.51 330.668 -728.04
C 330.668 -727.71 330.887 -727.34 331.426 -727.34
C 331.863 -727.34 332.5 -727.7 332.5 -728.49
C 332.5 -729.53 331.324 -729.81 330.648 -729.81
C 329.492 -729.81 328.793 -728.75 328.555 -728.29
C 328.059 -729.61 326.98 -729.81 326.402 -729.81
C 324.332 -729.81 323.195 -727.24 323.195 -726.74
C 323.195 -726.54 323.395 -726.54 323.434 -726.54
C 323.594 -726.54 323.652 -726.58 323.695 -726.76
C 324.371 -728.87 325.688 -729.37 326.363 -729.37
C 326.742 -729.37 327.441 -729.19 327.441 -728.04
C 327.441 -727.41 327.102 -726.08 326.363 -723.29
C 326.043 -722.05 325.348 -721.22 324.473 -721.22
C 324.352 -721.22 323.895 -721.22 323.473 -721.48
C 323.973 -721.58 324.41 -722 324.41 -722.55
C 324.41 -723.09 323.973 -723.25 323.672 -723.25
C 323.074 -723.25 322.578 -722.73 322.578 -722.1
C 322.578 -721.18 323.574 -720.78 324.449 -720.78
C 325.766 -720.78 326.484 -722.18 326.543 -722.3
C 326.781 -721.56 327.5 -720.78 328.695 -720.78
C 330.746 -720.78 331.883 -723.35 331.883 -723.85
C 331.883 -724.05 331.703 -724.05 331.645 -724.05
C 331.465 -724.05 331.426 -723.97 331.387 -723.83
C 330.727 -721.7 329.371 -721.22 328.734 -721.22
C 327.957 -721.22 327.641 -721.86 327.641 -722.54
C 327.641 -722.97 327.758 -723.41 327.977 -724.29
Z
"/>
<path d="
M 340.043 -730.54
L 339.57 -730.54
C 339.527 -730.23 339.387 -729.41 339.207 -729.27
C 339.094 -729.19 338.02 -729.19 337.824 -729.19
L 335.258 -729.19
C 336.723 -730.48 337.211 -730.88 338.051 -731.53
C 339.082 -732.35 340.043 -733.21 340.043 -734.54
C 340.043 -736.23 338.566 -737.26 336.781 -737.26
C 335.051 -737.26 333.879 -736.05 333.879 -734.77
C 333.879 -734.05 334.477 -733.98 334.617 -733.98
C 334.953 -733.98 335.355 -734.22 335.355 -734.72
C 335.355 -734.97 335.258 -735.46 334.535 -735.46
C 334.965 -736.45 335.914 -736.76 336.57 -736.76
C 337.965 -736.76 338.691 -735.67 338.691 -734.54
C 338.691 -733.33 337.824 -732.37 337.379 -731.86
L 334.02 -728.54
C 333.879 -728.42 333.879 -728.39 333.879 -728
L 339.625 -728
Z
"/>
<path d="
M 355.148 -725.58
L 360.707 -725.58
C 360.988 -725.58 361.367 -725.58 361.367 -725.98
C 361.367 -726.38 360.988 -726.38 360.707 -726.38
L 355.148 -726.38
L 355.148 -731.96
C 355.148 -732.24 355.148 -732.62 354.75 -732.62
C 354.352 -732.62 354.352 -732.24 354.352 -731.96
L 354.352 -726.38
L 348.773 -726.38
C 348.496 -726.38 348.117 -726.38 348.117 -725.98
C 348.117 -725.58 348.496 -725.58 348.773 -725.58
L 354.352 -725.58
L 354.352 -720
C 354.352 -719.73 354.352 -719.35 354.75 -719.35
C 355.148 -719.35 355.148 -719.73 355.148 -720
Z
"/>
<path d="
M 385.945 -725
C 385.945 -727.38 384.312 -729.37 382.16 -729.37
C 381.203 -729.37 380.348 -729.05 379.629 -728.35
L 379.629 -732.24
C 380.027 -732.12 380.688 -731.98 381.324 -731.98
C 383.773 -731.98 385.168 -733.79 385.168 -734.05
C 385.168 -734.17 385.109 -734.27 384.969 -734.27
C 384.949 -734.27 384.91 -734.27 384.812 -734.21
C 384.414 -734.03 383.438 -733.63 382.102 -733.63
C 381.305 -733.63 380.387 -733.77 379.449 -734.19
C 379.293 -734.25 379.25 -734.25 379.211 -734.25
C 379.012 -734.25 379.012 -734.09 379.012 -733.77
L 379.012 -727.88
C 379.012 -727.52 379.012 -727.36 379.293 -727.36
C 379.43 -727.36 379.473 -727.41 379.551 -727.54
C 379.77 -727.86 380.508 -728.93 382.121 -728.93
C 383.156 -728.93 383.656 -728.02 383.812 -727.66
C 384.133 -726.92 384.172 -726.14 384.172 -725.14
C 384.172 -724.45 384.172 -723.25 383.695 -722.41
C 383.215 -721.64 382.48 -721.12 381.562 -721.12
C 380.109 -721.12 378.973 -722.18 378.633 -723.35
C 378.695 -723.33 378.754 -723.31 378.973 -723.31
C 379.629 -723.31 379.969 -723.81 379.969 -724.29
C 379.969 -724.77 379.629 -725.27 378.973 -725.27
C 378.695 -725.27 377.996 -725.12 377.996 -724.21
C 377.996 -722.5 379.371 -720.56 381.602 -720.56
C 383.914 -720.56 385.945 -722.47 385.945 -725
Z
"/>
<path d="
M 393.656 -727.02
C 393.773 -727.54 394.234 -729.37 395.629 -729.37
C 395.727 -729.37 396.207 -729.37 396.625 -729.11
C 396.066 -729.01 395.668 -728.51 395.668 -728.04
C 395.668 -727.71 395.887 -727.34 396.426 -727.34
C 396.863 -727.34 397.5 -727.7 397.5 -728.49
C 397.5 -729.53 396.324 -729.81 395.648 -729.81
C 394.492 -729.81 393.793 -728.75 393.555 -728.29
C 393.059 -729.61 391.98 -729.81 391.402 -729.81
C 389.332 -729.81 388.195 -727.24 388.195 -726.74
C 388.195 -726.54 388.395 -726.54 388.434 -726.54
C 388.594 -726.54 388.652 -726.58 388.695 -726.76
C 389.371 -728.87 390.688 -729.37 391.363 -729.37
C 391.742 -729.37 392.441 -729.19 392.441 -728.04
C 392.441 -727.41 392.102 -726.08 391.363 -723.29
C 391.043 -722.05 390.348 -721.22 389.473 -721.22
C 389.352 -721.22 388.895 -721.22 388.473 -721.48
C 388.973 -721.58 389.41 -722 389.41 -722.55
C 389.41 -723.09 388.973 -723.25 388.672 -723.25
C 388.074 -723.25 387.578 -722.73 387.578 -722.1
C 387.578 -721.18 388.574 -720.78 389.449 -720.78
C 390.766 -720.78 391.484 -722.18 391.543 -722.3
C 391.781 -721.56 392.5 -720.78 393.695 -720.78
C 395.746 -720.78 396.883 -723.35 396.883 -723.85
C 396.883 -724.05 396.703 -724.05 396.645 -724.05
C 396.465 -724.05 396.426 -723.97 396.387 -723.83
C 395.727 -721.7 394.371 -721.22 393.734 -721.22
C 392.957 -721.22 392.641 -721.86 392.641 -722.54
C 392.641 -722.97 392.758 -723.41 392.977 -724.29
Z
"/>
<path d="
M 410.148 -725.58
L 415.707 -725.58
C 415.988 -725.58 416.367 -725.58 416.367 -725.98
C 416.367 -726.38 415.988 -726.38 415.707 -726.38
L 410.148 -726.38
L 410.148 -731.96
C 410.148 -732.24 410.148 -732.62 409.75 -732.62
C 409.352 -732.62 409.352 -732.24 409.352 -731.96
L 409.352 -726.38
L 403.773 -726.38
C 403.496 -726.38 403.117 -726.38 403.117 -725.98
C 403.117 -725.58 403.496 -725.58 403.773 -725.58
L 409.352 -725.58
L 409.352 -720
C 409.352 -719.73 409.352 -719.35 409.75 -719.35
C 410.148 -719.35 410.148 -719.73 410.148 -720
Z
"/>
<path d="
M 427.859 -733.75
C 427.859 -734.23 427.859 -734.27 427.398 -734.27
C 426.164 -733 424.41 -733 423.773 -733
L 423.773 -732.38
C 424.172 -732.38 425.348 -732.38 426.383 -732.89
L 426.383 -722.57
C 426.383 -721.86 426.324 -721.62 424.531 -721.62
L 423.895 -721.62
L 423.895 -721
C 424.59 -721.06 426.324 -721.06 427.121 -721.06
C 427.918 -721.06 429.652 -721.06 430.348 -721
L 430.348 -721.62
L 429.711 -721.62
C 427.918 -721.62 427.859 -721.84 427.859 -722.57
Z
M 440.945 -725
C 440.945 -727.38 439.312 -729.37 437.16 -729.37
C 436.203 -729.37 435.348 -729.05 434.629 -728.35
L 434.629 -732.24
C 435.027 -732.12 435.688 -731.98 436.324 -731.98
C 438.773 -731.98 440.168 -733.79 440.168 -734.05
C 440.168 -734.17 440.109 -734.27 439.969 -734.27
C 439.949 -734.27 439.91 -734.27 439.812 -734.21
C 439.414 -734.03 438.438 -733.63 437.102 -733.63
C 436.305 -733.63 435.387 -733.77 434.449 -734.19
C 434.293 -734.25 434.25 -734.25 434.211 -734.25
C 434.012 -734.25 434.012 -734.09 434.012 -733.77
L 434.012 -727.88
C 434.012 -727.52 434.012 -727.36 434.293 -727.36
C 434.43 -727.36 434.473 -727.41 434.551 -727.54
C 434.77 -727.86 435.508 -728.93 437.121 -728.93
C 438.156 -728.93 438.656 -728.02 438.812 -727.66
C 439.133 -726.92 439.172 -726.14 439.172 -725.14
C 439.172 -724.45 439.172 -723.25 438.695 -722.41
C 438.215 -721.64 437.48 -721.12 436.562 -721.12
C 435.109 -721.12 433.973 -722.18 433.633 -723.35
C 433.695 -723.33 433.754 -723.31 433.973 -723.31
C 434.629 -723.31 434.969 -723.81 434.969 -724.29
C 434.969 -724.77 434.629 -725.27 433.973 -725.27
C 433.695 -725.27 432.996 -725.12 432.996 -724.21
C 432.996 -722.5 434.371 -720.56 436.602 -720.56
C 438.914 -720.56 440.945 -722.47 440.945 -725
Z
M 451.164 -727.38
C 451.164 -728.97 451.066 -730.56 450.367 -732.04
C 449.453 -733.95 447.816 -734.27 446.98 -734.27
C 445.785 -734.27 444.332 -733.75 443.516 -731.9
C 442.875 -730.52 442.777 -728.97 442.777 -727.38
C 442.777 -725.88 442.855 -724.09 443.672 -722.57
C 444.531 -720.96 445.984 -720.56 446.961 -720.56
C 448.039 -720.56 449.551 -720.98 450.43 -722.87
C 451.066 -724.25 451.164 -725.8 451.164 -727.38
Z
M 446.961 -721
C 446.184 -721 445.008 -721.5 444.648 -723.41
C 444.43 -724.61 444.43 -726.44 444.43 -727.61
C 444.43 -728.89 444.43 -730.21 444.59 -731.28
C 444.969 -733.65 446.465 -733.83 446.961 -733.83
C 447.617 -733.83 448.934 -733.47 449.312 -731.5
C 449.512 -730.39 449.512 -728.87 449.512 -727.61
C 449.512 -726.12 449.512 -724.77 449.293 -723.49
C 448.992 -721.6 447.859 -721 446.961 -721
Z
"/>
<path d="
M 457.758 -725.98
C 457.758 -727.54 457.539 -729.95 456.441 -732.2
C 455.246 -734.65 453.535 -735.95 453.336 -735.95
C 453.215 -735.95 453.137 -735.86 453.137 -735.75
C 453.137 -735.68 453.137 -735.64 453.516 -735.29
C 455.469 -733.31 456.602 -730.14 456.602 -725.98
C 456.602 -722.57 455.867 -719.07 453.395 -716.56
C 453.137 -716.32 453.137 -716.28 453.137 -716.22
C 453.137 -716.1 453.215 -716.02 453.336 -716.02
C 453.535 -716.02 455.328 -717.38 456.504 -719.9
C 457.52 -722.1 457.758 -724.31 457.758 -725.98
Z
"/>
<path d="
M 468.824 -728.53
C 468.824 -729.11 468.348 -729.59 467.77 -729.59
C 467.191 -729.59 466.715 -729.11 466.715 -728.53
C 466.715 -727.95 467.191 -727.48 467.77 -727.48
C 468.348 -727.48 468.824 -727.95 468.824 -728.53
Z
M 468.824 -722.05
C 468.824 -722.63 468.348 -723.11 467.77 -723.11
C 467.191 -723.11 466.715 -722.63 466.715 -722.05
C 466.715 -721.48 467.191 -721 467.77 -721
C 468.348 -721 468.824 -721.48 468.824 -722.05
Z
"/>
<path d="
M 482.594 -716.22
C 482.594 -716.28 482.594 -716.32 482.258 -716.66
C 479.766 -719.17 479.129 -722.93 479.129 -725.98
C 479.129 -729.45 479.887 -732.91 482.336 -735.41
C 482.594 -735.64 482.594 -735.68 482.594 -735.75
C 482.594 -735.88 482.516 -735.95 482.395 -735.95
C 482.195 -735.95 480.402 -734.59 479.227 -732.06
C 478.211 -729.87 477.973 -727.66 477.973 -725.98
C 477.973 -724.43 478.191 -722.02 479.289 -719.77
C 480.484 -717.31 482.195 -716.02 482.395 -716.02
C 482.516 -716.02 482.594 -716.08 482.594 -716.22
Z
"/>
<path d="
M 490.656 -727.02
C 490.773 -727.54 491.234 -729.37 492.629 -729.37
C 492.727 -729.37 493.207 -729.37 493.625 -729.11
C 493.066 -729.01 492.668 -728.51 492.668 -728.04
C 492.668 -727.71 492.887 -727.34 493.426 -727.34
C 493.863 -727.34 494.5 -727.7 494.5 -728.49
C 494.5 -729.53 493.324 -729.81 492.648 -729.81
C 491.492 -729.81 490.793 -728.75 490.555 -728.29
C 490.059 -729.61 488.98 -729.81 488.402 -729.81
C 486.332 -729.81 485.195 -727.24 485.195 -726.74
C 485.195 -726.54 485.395 -726.54 485.434 -726.54
C 485.594 -726.54 485.652 -726.58 485.695 -726.76
C 486.371 -728.87 487.688 -729.37 488.363 -729.37
C 488.742 -729.37 489.441 -729.19 489.441 -728.04
C 489.441 -727.41 489.102 -726.08 488.363 -723.29
C 488.043 -722.05 487.348 -721.22 486.473 -721.22
C 486.352 -721.22 485.895 -721.22 485.473 -721.48
C 485.973 -721.58 486.41 -722 486.41 -722.55
C 486.41 -723.09 485.973 -723.25 485.672 -723.25
C 485.074 -723.25 484.578 -722.73 484.578 -722.1
C 484.578 -721.18 485.574 -720.78 486.449 -720.78
C 487.766 -720.78 488.484 -722.18 488.543 -722.3
C 488.781 -721.56 489.5 -720.78 490.695 -720.78
C 492.746 -720.78 493.883 -723.35 493.883 -723.85
C 493.883 -724.05 493.703 -724.05 493.645 -724.05
C 493.465 -724.05 493.426 -723.97 493.387 -723.83
C 492.727 -721.7 491.371 -721.22 490.734 -721.22
C 489.957 -721.22 489.641 -721.86 489.641 -722.54
C 489.641 -722.97 489.758 -723.41 489.977 -724.29
Z
"/>
<path d="
M 513.172 -725.58
C 513.449 -725.58 513.828 -725.58 513.828 -725.98
C 513.828 -726.38 513.449 -726.38 513.172 -726.38
L 502.312 -726.38
C 502.031 -726.38 501.652 -726.38 501.652 -725.98
C 501.652 -725.58 502.031 -725.58 502.312 -725.58
Z
"/>
<path d="
M 528.945 -725
C 528.945 -727.38 527.312 -729.37 525.16 -729.37
C 524.203 -729.37 523.348 -729.05 522.629 -728.35
L 522.629 -732.24
C 523.027 -732.12 523.688 -731.98 524.324 -731.98
C 526.773 -731.98 528.168 -733.79 528.168 -734.05
C 528.168 -734.17 528.109 -734.27 527.969 -734.27
C 527.949 -734.27 527.91 -734.27 527.812 -734.21
C 527.414 -734.03 526.438 -733.63 525.102 -733.63
C 524.305 -733.63 523.387 -733.77 522.449 -734.19
C 522.293 -734.25 522.25 -734.25 522.211 -734.25
C 522.012 -734.25 522.012 -734.09 522.012 -733.77
L 522.012 -727.88
C 522.012 -727.52 522.012 -727.36 522.293 -727.36
C 522.43 -727.36 522.473 -727.41 522.551 -727.54
C 522.77 -727.86 523.508 -728.93 525.121 -728.93
C 526.156 -728.93 526.656 -728.02 526.812 -727.66
C 527.133 -726.92 527.172 -726.14 527.172 -725.14
C 527.172 -724.45 527.172 -723.25 526.695 -722.41
C 526.215 -721.64 525.48 -721.12 524.562 -721.12
C 523.109 -721.12 521.973 -722.18 521.633 -723.35
C 521.695 -723.33 521.754 -723.31 521.973 -723.31
C 522.629 -723.31 522.969 -723.81 522.969 -724.29
C 522.969 -724.77 522.629 -725.27 521.973 -725.27
C 521.695 -725.27 520.996 -725.12 520.996 -724.21
C 520.996 -722.5 522.371 -720.56 524.602 -720.56
C 526.914 -720.56 528.945 -722.47 528.945 -725
Z
M 535.758 -725.98
C 535.758 -727.54 535.539 -729.95 534.441 -732.2
C 533.246 -734.65 531.535 -735.95 531.336 -735.95
C 531.215 -735.95 531.137 -735.86 531.137 -735.75
C 531.137 -735.68 531.137 -735.64 531.516 -735.29
C 533.469 -733.31 534.602 -730.14 534.602 -725.98
C 534.602 -722.57 533.867 -719.07 531.395 -716.56
C 531.137 -716.32 531.137 -716.28 531.137 -716.22
C 531.137 -716.1 531.215 -716.02 531.336 -716.02
C 531.535 -716.02 533.328 -717.38 534.504 -719.9
C 535.52 -722.1 535.758 -724.31 535.758 -725.98
Z
"/>
<path d="
M 556.688 -727.52
C 556.988 -727.52 557.367 -727.52 557.367 -727.91
C 557.367 -728.31 556.988 -728.31 556.707 -728.31
L 544.773 -728.31
C 544.496 -728.31 544.117 -728.31 544.117 -727.91
C 544.117 -727.52 544.496 -727.52 544.793 -727.52
Z
M 556.707 -723.65
C 556.988 -723.65 557.367 -723.65 557.367 -724.05
C 557.367 -724.45 556.988 -724.45 556.688 -724.45
L 544.793 -724.45
C 544.496 -724.45 544.117 -724.45 544.117 -724.05
C 544.117 -723.65 544.496 -723.65 544.773 -723.65
Z
"/>
<path d="
M 570.656 -727.02
C 570.773 -727.54 571.234 -729.37 572.629 -729.37
C 572.727 -729.37 573.207 -729.37 573.625 -729.11
C 573.066 -729.01 572.668 -728.51 572.668 -728.04
C 572.668 -727.71 572.887 -727.34 573.426 -727.34
C 573.863 -727.34 574.5 -727.7 574.5 -728.49
C 574.5 -729.53 573.324 -729.81 572.648 -729.81
C 571.492 -729.81 570.793 -728.75 570.555 -728.29
C 570.059 -729.61 568.98 -729.81 568.402 -729.81
C 566.332 -729.81 565.195 -727.24 565.195 -726.74
C 565.195 -726.54 565.395 -726.54 565.434 -726.54
C 565.594 -726.54 565.652 -726.58 565.695 -726.76
C 566.371 -728.87 567.688 -729.37 568.363 -729.37
C 568.742 -729.37 569.441 -729.19 569.441 -728.04
C 569.441 -727.41 569.102 -726.08 568.363 -723.29
C 568.043 -722.05 567.348 -721.22 566.473 -721.22
C 566.352 -721.22 565.895 -721.22 565.473 -721.48
C 565.973 -721.58 566.41 -722 566.41 -722.55
C 566.41 -723.09 565.973 -723.25 565.672 -723.25
C 565.074 -723.25 564.578 -722.73 564.578 -722.1
C 564.578 -721.18 565.574 -720.78 566.449 -720.78
C 567.766 -720.78 568.484 -722.18 568.543 -722.3
C 568.781 -721.56 569.5 -720.78 570.695 -720.78
C 572.746 -720.78 573.883 -723.35 573.883 -723.85
C 573.883 -724.05 573.703 -724.05 573.645 -724.05
C 573.465 -724.05 573.426 -723.97 573.387 -723.83
C 572.727 -721.7 571.371 -721.22 570.734 -721.22
C 569.957 -721.22 569.641 -721.86 569.641 -722.54
C 569.641 -722.97 569.758 -723.41 569.977 -724.29
Z
"/>
<path d="
M 583.043 -730.54
L 582.57 -730.54
C 582.527 -730.23 582.387 -729.41 582.207 -729.27
C 582.094 -729.19 581.02 -729.19 580.824 -729.19
L 578.258 -729.19
C 579.723 -730.48 580.211 -730.88 581.051 -731.53
C 582.082 -732.35 583.043 -733.21 583.043 -734.54
C 583.043 -736.23 581.566 -737.26 579.781 -737.26
C 578.051 -737.26 576.879 -736.05 576.879 -734.77
C 576.879 -734.05 577.477 -733.98 577.617 -733.98
C 577.953 -733.98 578.355 -734.22 578.355 -734.72
C 578.355 -734.97 578.258 -735.46 577.535 -735.46
C 577.965 -736.45 578.914 -736.76 579.57 -736.76
C 580.965 -736.76 581.691 -735.67 581.691 -734.54
C 581.691 -733.33 580.824 -732.37 580.379 -731.86
L 577.02 -728.54
C 576.879 -728.42 576.879 -728.39 576.879 -728
L 582.625 -728
Z
"/>
<path d="
M 602.172 -725.58
C 602.449 -725.58 602.828 -725.58 602.828 -725.98
C 602.828 -726.38 602.449 -726.38 602.172 -726.38
L 591.312 -726.38
C 591.031 -726.38 590.652 -726.38 590.652 -725.98
C 590.652 -725.58 591.031 -725.58 591.312 -725.58
Z
"/>
<path d="
M 618.484 -733.13
C 618.664 -733.38 618.664 -733.41 618.664 -733.83
L 613.82 -733.83
C 611.391 -733.83 611.352 -734.09 611.27 -734.47
L 610.773 -734.47
L 610.117 -730.36
L 610.613 -730.36
C 610.672 -730.68 610.852 -731.94 611.113 -732.18
C 611.25 -732.3 612.805 -732.3 613.066 -732.3
L 617.188 -732.3
C 616.969 -731.98 615.395 -729.81 614.957 -729.15
C 613.164 -726.46 612.508 -723.69 612.508 -721.66
C 612.508 -721.46 612.508 -720.56 613.422 -720.56
C 614.34 -720.56 614.34 -721.46 614.34 -721.66
L 614.34 -722.67
C 614.34 -723.77 614.398 -724.87 614.559 -725.94
C 614.641 -726.4 614.918 -728.11 615.793 -729.35
Z
"/>
<path d="
M 625.656 -727.02
C 625.773 -727.54 626.234 -729.37 627.629 -729.37
C 627.727 -729.37 628.207 -729.37 628.625 -729.11
C 628.066 -729.01 627.668 -728.51 627.668 -728.04
C 627.668 -727.71 627.887 -727.34 628.426 -727.34
C 628.863 -727.34 629.5 -727.7 629.5 -728.49
C 629.5 -729.53 628.324 -729.81 627.648 -729.81
C 626.492 -729.81 625.793 -728.75 625.555 -728.29
C 625.059 -729.61 623.98 -729.81 623.402 -729.81
C 621.332 -729.81 620.195 -727.24 620.195 -726.74
C 620.195 -726.54 620.395 -726.54 620.434 -726.54
C 620.594 -726.54 620.652 -726.58 620.695 -726.76
C 621.371 -728.87 622.688 -729.37 623.363 -729.37
C 623.742 -729.37 624.441 -729.19 624.441 -728.04
C 624.441 -727.41 624.102 -726.08 623.363 -723.29
C 623.043 -722.05 622.348 -721.22 621.473 -721.22
C 621.352 -721.22 620.895 -721.22 620.473 -721.48
C 620.973 -721.58 621.41 -722 621.41 -722.55
C 621.41 -723.09 620.973 -723.25 620.672 -723.25
C 620.074 -723.25 619.578 -722.73 619.578 -722.1
C 619.578 -721.18 620.574 -720.78 621.449 -720.78
C 622.766 -720.78 623.484 -722.18 623.543 -722.3
C 623.781 -721.56 624.5 -720.78 625.695 -720.78
C 627.746 -720.78 628.883 -723.35 628.883 -723.85
C 628.883 -724.05 628.703 -724.05 628.645 -724.05
C 628.465 -724.05 628.426 -723.97 628.387 -723.83
C 627.727 -721.7 626.371 -721.22 625.734 -721.22
C 624.957 -721.22 624.641 -721.86 624.641 -722.54
C 624.641 -722.97 624.758 -723.41 624.977 -724.29
Z
"/>
<path d="
M 648.172 -725.58
C 648.449 -725.58 648.828 -725.58 648.828 -725.98
C 648.828 -726.38 648.449 -726.38 648.172 -726.38
L 637.312 -726.38
C 637.031 -726.38 636.652 -726.38 636.652 -725.98
C 636.652 -725.58 637.031 -725.58 637.312 -725.58
Z
"/>
<path d="
M 659.777 -728.02
C 661.414 -728.55 662.566 -729.95 662.566 -731.52
C 662.566 -733.16 660.812 -734.27 658.902 -734.27
C 656.891 -734.27 655.375 -733.07 655.375 -731.56
C 655.375 -730.9 655.812 -730.52 656.391 -730.52
C 657.008 -730.52 657.406 -730.96 657.406 -731.54
C 657.406 -732.54 656.473 -732.54 656.172 -732.54
C 656.789 -733.51 658.105 -733.77 658.82 -733.77
C 659.641 -733.77 660.734 -733.33 660.734 -731.54
C 660.734 -731.3 660.695 -730.14 660.176 -729.27
C 659.578 -728.31 658.902 -728.25 658.402 -728.23
C 658.242 -728.21 657.766 -728.17 657.625 -728.17
C 657.469 -728.15 657.328 -728.13 657.328 -727.93
C 657.328 -727.71 657.469 -727.71 657.805 -727.71
L 658.684 -727.71
C 660.316 -727.71 661.055 -726.36 661.055 -724.41
C 661.055 -721.7 659.68 -721.12 658.801 -721.12
C 657.945 -721.12 656.449 -721.46 655.754 -722.63
C 656.449 -722.54 657.07 -722.97 657.07 -723.73
C 657.07 -724.45 656.531 -724.84 655.953 -724.84
C 655.473 -724.84 654.836 -724.57 654.836 -723.69
C 654.836 -721.88 656.691 -720.56 658.863 -720.56
C 661.293 -720.56 663.105 -722.38 663.105 -724.41
C 663.105 -726.04 661.852 -727.59 659.777 -728.02
Z
M 674.164 -727.38
C 674.164 -728.97 674.066 -730.56 673.367 -732.04
C 672.453 -733.95 670.816 -734.27 669.98 -734.27
C 668.785 -734.27 667.332 -733.75 666.516 -731.9
C 665.875 -730.52 665.777 -728.97 665.777 -727.38
C 665.777 -725.88 665.855 -724.09 666.672 -722.57
C 667.531 -720.96 668.984 -720.56 669.961 -720.56
C 671.039 -720.56 672.551 -720.98 673.43 -722.87
C 674.066 -724.25 674.164 -725.8 674.164 -727.38
Z
M 669.961 -721
C 669.184 -721 668.008 -721.5 667.648 -723.41
C 667.43 -724.61 667.43 -726.44 667.43 -727.61
C 667.43 -728.89 667.43 -730.21 667.59 -731.28
C 667.969 -733.65 669.465 -733.83 669.961 -733.83
C 670.617 -733.83 671.934 -733.47 672.312 -731.5
C 672.512 -730.39 672.512 -728.87 672.512 -727.61
C 672.512 -726.12 672.512 -724.77 672.293 -723.49
C 671.992 -721.6 670.859 -721 669.961 -721
Z
"/>
<path d="
M 247.172 -701.58
C 247.449 -701.58 247.828 -701.58 247.828 -701.98
C 247.828 -702.38 247.449 -702.38 247.172 -702.38
L 236.312 -702.38
C 236.031 -702.38 235.652 -702.38 235.652 -701.98
C 235.652 -701.58 236.031 -701.58 236.312 -701.58
Z
"/>
<path d="
M 256.594 -692.22
C 256.594 -692.28 256.594 -692.32 256.258 -692.66
C 253.766 -695.17 253.129 -698.93 253.129 -701.98
C 253.129 -705.45 253.887 -708.91 256.336 -711.41
C 256.594 -711.64 256.594 -711.68 256.594 -711.75
C 256.594 -711.88 256.516 -711.95 256.395 -711.95
C 256.195 -711.95 254.402 -710.59 253.227 -708.06
C 252.211 -705.87 251.973 -703.66 251.973 -701.98
C 251.973 -700.43 252.191 -698.02 253.289 -695.77
C 254.484 -693.31 256.195 -692.02 256.395 -692.02
C 256.516 -692.02 256.594 -692.08 256.594 -692.22
Z
"/>
<path d="
M 263.656 -703.02
C 263.773 -703.54 264.234 -705.37 265.629 -705.37
C 265.727 -705.37 266.207 -705.37 266.625 -705.11
C 266.066 -705.01 265.668 -704.51 265.668 -704.04
C 265.668 -703.71 265.887 -703.34 266.426 -703.34
C 266.863 -703.34 267.5 -703.7 267.5 -704.49
C 267.5 -705.53 266.324 -705.81 265.648 -705.81
C 264.492 -705.81 263.793 -704.75 263.555 -704.29
C 263.059 -705.61 261.98 -705.81 261.402 -705.81
C 259.332 -705.81 258.195 -703.24 258.195 -702.74
C 258.195 -702.54 258.395 -702.54 258.434 -702.54
C 258.594 -702.54 258.652 -702.58 258.695 -702.76
C 259.371 -704.87 260.688 -705.37 261.363 -705.37
C 261.742 -705.37 262.441 -705.19 262.441 -704.04
C 262.441 -703.41 262.102 -702.08 261.363 -699.29
C 261.043 -698.05 260.348 -697.22 259.473 -697.22
C 259.352 -697.22 258.895 -697.22 258.473 -697.48
C 258.973 -697.58 259.41 -698 259.41 -698.55
C 259.41 -699.09 258.973 -699.25 258.672 -699.25
C 258.074 -699.25 257.578 -698.73 257.578 -698.1
C 257.578 -697.18 258.574 -696.78 259.449 -696.78
C 260.766 -696.78 261.484 -698.18 261.543 -698.3
C 261.781 -697.56 262.5 -696.78 263.695 -696.78
C 265.746 -696.78 266.883 -699.35 266.883 -699.85
C 266.883 -700.05 266.703 -700.05 266.645 -700.05
C 266.465 -700.05 266.426 -699.97 266.387 -699.83
C 265.727 -697.7 264.371 -697.22 263.734 -697.22
C 262.957 -697.22 262.641 -697.86 262.641 -698.54
C 262.641 -698.97 262.758 -699.41 262.977 -700.29
Z
"/>
<path d="
M 272.809 -709.66
C 273.895 -709.66 274.676 -708.91 274.676 -707.41
C 274.676 -705.68 273.672 -705.17 272.863 -705.17
C 272.305 -705.17 271.078 -705.32 270.492 -706.14
C 271.148 -706.17 271.301 -706.63 271.301 -706.93
C 271.301 -707.37 270.965 -707.69 270.535 -707.69
C 270.145 -707.69 269.754 -707.45 269.754 -706.88
C 269.754 -705.57 271.203 -704.72 272.891 -704.72
C 274.832 -704.72 276.168 -706.02 276.168 -707.41
C 276.168 -708.5 275.277 -709.59 273.742 -709.91
C 275.207 -710.44 275.738 -711.48 275.738 -712.34
C 275.738 -713.44 274.469 -714.26 272.918 -714.26
C 271.371 -714.26 270.188 -713.51 270.188 -712.39
C 270.188 -711.92 270.492 -711.65 270.91 -711.65
C 271.344 -711.65 271.621 -711.97 271.621 -712.36
C 271.621 -712.77 271.344 -713.06 270.91 -713.09
C 271.398 -713.7 272.363 -713.86 272.879 -713.86
C 273.504 -713.86 274.383 -713.55 274.383 -712.34
C 274.383 -711.75 274.188 -711.11 273.824 -710.68
C 273.367 -710.15 272.977 -710.12 272.277 -710.08
C 271.93 -710.05 271.902 -710.05 271.832 -710.04
C 271.805 -710.04 271.691 -710.01 271.691 -709.86
C 271.691 -709.66 271.816 -709.66 272.055 -709.66
Z
"/>
<path d="
M 295.172 -701.58
C 295.449 -701.58 295.828 -701.58 295.828 -701.98
C 295.828 -702.38 295.449 -702.38 295.172 -702.38
L 284.312 -702.38
C 284.031 -702.38 283.652 -702.38 283.652 -701.98
C 283.652 -701.58 284.031 -701.58 284.312 -701.58
Z
"/>
<path d="
M 320.945 -701
C 320.945 -703.38 319.312 -705.37 317.16 -705.37
C 316.203 -705.37 315.348 -705.05 314.629 -704.35
L 314.629 -708.24
C 315.027 -708.12 315.688 -707.98 316.324 -707.98
C 318.773 -707.98 320.168 -709.79 320.168 -710.05
C 320.168 -710.17 320.109 -710.27 319.969 -710.27
C 319.949 -710.27 319.91 -710.27 319.812 -710.21
C 319.414 -710.03 318.438 -709.63 317.102 -709.63
C 316.305 -709.63 315.387 -709.77 314.449 -710.19
C 314.293 -710.25 314.25 -710.25 314.211 -710.25
C 314.012 -710.25 314.012 -710.09 314.012 -709.77
L 314.012 -703.88
C 314.012 -703.52 314.012 -703.36 314.293 -703.36
C 314.43 -703.36 314.473 -703.41 314.551 -703.54
C 314.77 -703.86 315.508 -704.93 317.121 -704.93
C 318.156 -704.93 318.656 -704.02 318.812 -703.66
C 319.133 -702.92 319.172 -702.14 319.172 -701.14
C 319.172 -700.45 319.172 -699.25 318.695 -698.41
C 318.215 -697.64 317.48 -697.12 316.562 -697.12
C 315.109 -697.12 313.973 -698.18 313.633 -699.35
C 313.695 -699.33 313.754 -699.31 313.973 -699.31
C 314.629 -699.31 314.969 -699.81 314.969 -700.29
C 314.969 -700.77 314.629 -701.27 313.973 -701.27
C 313.695 -701.27 312.996 -701.12 312.996 -700.21
C 312.996 -698.5 314.371 -696.56 316.602 -696.56
C 318.914 -696.56 320.945 -698.47 320.945 -701
Z
"/>
<path d="
M 328.656 -703.02
C 328.773 -703.54 329.234 -705.37 330.629 -705.37
C 330.727 -705.37 331.207 -705.37 331.625 -705.11
C 331.066 -705.01 330.668 -704.51 330.668 -704.04
C 330.668 -703.71 330.887 -703.34 331.426 -703.34
C 331.863 -703.34 332.5 -703.7 332.5 -704.49
C 332.5 -705.53 331.324 -705.81 330.648 -705.81
C 329.492 -705.81 328.793 -704.75 328.555 -704.29
C 328.059 -705.61 326.98 -705.81 326.402 -705.81
C 324.332 -705.81 323.195 -703.24 323.195 -702.74
C 323.195 -702.54 323.395 -702.54 323.434 -702.54
C 323.594 -702.54 323.652 -702.58 323.695 -702.76
C 324.371 -704.87 325.688 -705.37 326.363 -705.37
C 326.742 -705.37 327.441 -705.19 327.441 -704.04
C 327.441 -703.41 327.102 -702.08 326.363 -699.29
C 326.043 -698.05 325.348 -697.22 324.473 -697.22
C 324.352 -697.22 323.895 -697.22 323.473 -697.48
C 323.973 -697.58 324.41 -698 324.41 -698.55
C 324.41 -699.09 323.973 -699.25 323.672 -699.25
C 323.074 -699.25 322.578 -698.73 322.578 -698.1
C 322.578 -697.18 323.574 -696.78 324.449 -696.78
C 325.766 -696.78 326.484 -698.18 326.543 -698.3
C 326.781 -697.56 327.5 -696.78 328.695 -696.78
C 330.746 -696.78 331.883 -699.35 331.883 -699.85
C 331.883 -700.05 331.703 -700.05 331.645 -700.05
C 331.465 -700.05 331.426 -699.97 331.387 -699.83
C 330.727 -697.7 329.371 -697.22 328.734 -697.22
C 327.957 -697.22 327.641 -697.86 327.641 -698.54
C 327.641 -698.97 327.758 -699.41 327.977 -700.29
Z
"/>
<path d="
M 340.043 -707.54
L 339.57 -707.54
C 339.527 -707.23 339.387 -706.41 339.207 -706.27
C 339.094 -706.19 338.02 -706.19 337.824 -706.19
L 335.258 -706.19
C 336.723 -707.48 337.211 -707.88 338.051 -708.53
C 339.082 -709.35 340.043 -710.21 340.043 -711.54
C 340.043 -713.23 338.566 -714.26 336.781 -714.26
C 335.051 -714.26 333.879 -713.05 333.879 -711.77
C 333.879 -711.05 334.477 -710.98 334.617 -710.98
C 334.953 -710.98 335.355 -711.22 335.355 -711.72
C 335.355 -711.97 335.258 -712.46 334.535 -712.46
C 334.965 -713.45 335.914 -713.76 336.57 -713.76
C 337.965 -713.76 338.691 -712.67 338.691 -711.54
C 338.691 -710.33 337.824 -709.37 337.379 -708.86
L 334.02 -705.54
C 333.879 -705.42 333.879 -705.39 333.879 -705
L 339.625 -705
Z
"/>
<path d="
M 250 -687
L 342.879 -687
L 342.879 -687.96
L 250 -687.96
Z
"/>
<path d="
M 347.758 -701.98
C 347.758 -703.54 347.539 -705.95 346.441 -708.2
C 345.246 -710.65 343.535 -711.95 343.336 -711.95
C 343.215 -711.95 343.137 -711.86 343.137 -711.75
C 343.137 -711.68 343.137 -711.64 343.516 -711.29
C 345.469 -709.31 346.602 -706.14 346.602 -701.98
C 346.602 -698.57 345.867 -695.07 343.395 -692.56
C 343.137 -692.32 343.137 -692.28 343.137 -692.22
C 343.137 -692.1 343.215 -692.02 343.336 -692.02
C 343.535 -692.02 345.328 -693.38 346.504 -695.9
C 347.52 -698.1 347.758 -700.31 347.758 -701.98
Z
"/>
<path d="
M 341.996 -687
L 349.914 -687
L 349.914 -687.96
L 341.996 -687.96
Z
"/>
<path d="
M 309.172 -671.58
C 309.449 -671.58 309.828 -671.58 309.828 -671.98
C 309.828 -672.38 309.449 -672.38 309.172 -672.38
L 298.312 -672.38
C 298.031 -672.38 297.652 -672.38 297.652 -671.98
C 297.652 -671.58 298.031 -671.58 298.312 -671.58
Z
"/>
<path d="
M 321.484 -679.13
C 321.664 -679.38 321.664 -679.41 321.664 -679.83
L 316.82 -679.83
C 314.391 -679.83 314.352 -680.09 314.27 -680.47
L 313.773 -680.47
L 313.117 -676.36
L 313.613 -676.36
C 313.672 -676.68 313.852 -677.94 314.113 -678.18
C 314.25 -678.3 315.805 -678.3 316.066 -678.3
L 320.188 -678.3
C 319.969 -677.98 318.395 -675.81 317.957 -675.15
C 316.164 -672.46 315.508 -669.69 315.508 -667.66
C 315.508 -667.46 315.508 -666.56 316.422 -666.56
C 317.34 -666.56 317.34 -667.46 317.34 -667.66
L 317.34 -668.67
C 317.34 -669.77 317.398 -670.87 317.559 -671.94
C 317.641 -672.4 317.918 -674.11 318.793 -675.35
Z
"/>
<path d="
M 328.656 -673.02
C 328.773 -673.54 329.234 -675.37 330.629 -675.37
C 330.727 -675.37 331.207 -675.37 331.625 -675.11
C 331.066 -675.01 330.668 -674.51 330.668 -674.04
C 330.668 -673.71 330.887 -673.34 331.426 -673.34
C 331.863 -673.34 332.5 -673.7 332.5 -674.49
C 332.5 -675.53 331.324 -675.81 330.648 -675.81
C 329.492 -675.81 328.793 -674.75 328.555 -674.29
C 328.059 -675.61 326.98 -675.81 326.402 -675.81
C 324.332 -675.81 323.195 -673.24 323.195 -672.74
C 323.195 -672.54 323.395 -672.54 323.434 -672.54
C 323.594 -672.54 323.652 -672.58 323.695 -672.76
C 324.371 -674.87 325.688 -675.37 326.363 -675.37
C 326.742 -675.37 327.441 -675.19 327.441 -674.04
C 327.441 -673.41 327.102 -672.08 326.363 -669.29
C 326.043 -668.05 325.348 -667.22 324.473 -667.22
C 324.352 -667.22 323.895 -667.22 323.473 -667.48
C 323.973 -667.58 324.41 -668 324.41 -668.55
C 324.41 -669.09 323.973 -669.25 323.672 -669.25
C 323.074 -669.25 322.578 -668.73 322.578 -668.1
C 322.578 -667.18 323.574 -666.78 324.449 -666.78
C 325.766 -666.78 326.484 -668.18 326.543 -668.3
C 326.781 -667.56 327.5 -666.78 328.695 -666.78
C 330.746 -666.78 331.883 -669.35 331.883 -669.85
C 331.883 -670.05 331.703 -670.05 331.645 -670.05
C 331.465 -670.05 331.426 -669.97 331.387 -669.83
C 330.727 -667.7 329.371 -667.22 328.734 -667.22
C 327.957 -667.22 327.641 -667.86 327.641 -668.54
C 327.641 -668.97 327.758 -669.41 327.977 -670.29
Z
"/>
<path d="
M 340.043 -677.54
L 339.57 -677.54
C 339.527 -677.23 339.387 -676.41 339.207 -676.27
C 339.094 -676.19 338.02 -676.19 337.824 -676.19
L 335.258 -676.19
C 336.723 -677.48 337.211 -677.88 338.051 -678.53
C 339.082 -679.35 340.043 -680.21 340.043 -681.54
C 340.043 -683.23 338.566 -684.26 336.781 -684.26
C 335.051 -684.26 333.879 -683.05 333.879 -681.77
C 333.879 -681.05 334.477 -680.98 334.617 -680.98
C 334.953 -680.98 335.355 -681.22 335.355 -681.72
C 335.355 -681.97 335.258 -682.46 334.535 -682.46
C 334.965 -683.45 335.914 -683.76 336.57 -683.76
C 337.965 -683.76 338.691 -682.67 338.691 -681.54
C 338.691 -680.33 337.824 -679.37 337.379 -678.86
L 334.02 -675.54
C 333.879 -675.42 333.879 -675.39 333.879 -675
L 339.625 -675
Z
"/>
<path d="
M 355.148 -671.58
L 360.707 -671.58
C 360.988 -671.58 361.367 -671.58 361.367 -671.98
C 361.367 -672.38 360.988 -672.38 360.707 -672.38
L 355.148 -672.38
L 355.148 -677.96
C 355.148 -678.24 355.148 -678.62 354.75 -678.62
C 354.352 -678.62 354.352 -678.24 354.352 -677.96
L 354.352 -672.38
L 348.773 -672.38
C 348.496 -672.38 348.117 -672.38 348.117 -671.98
C 348.117 -671.58 348.496 -671.58 348.773 -671.58
L 354.352 -671.58
L 354.352 -666
C 354.352 -665.73 354.352 -665.35 354.75 -665.35
C 355.148 -665.35 355.148 -665.73 355.148 -666
Z
"/>
<path d="
M 385.945 -671
C 385.945 -673.38 384.312 -675.37 382.16 -675.37
C 381.203 -675.37 380.348 -675.05 379.629 -674.35
L 379.629 -678.24
C 380.027 -678.12 380.688 -677.98 381.324 -677.98
C 383.773 -677.98 385.168 -679.79 385.168 -680.05
C 385.168 -680.17 385.109 -680.27 384.969 -680.27
C 384.949 -680.27 384.91 -680.27 384.812 -680.21
C 384.414 -680.03 383.438 -679.63 382.102 -679.63
C 381.305 -679.63 380.387 -679.77 379.449 -680.19
C 379.293 -680.25 379.25 -680.25 379.211 -680.25
C 379.012 -680.25 379.012 -680.09 379.012 -679.77
L 379.012 -673.88
C 379.012 -673.52 379.012 -673.36 379.293 -673.36
C 379.43 -673.36 379.473 -673.41 379.551 -673.54
C 379.77 -673.86 380.508 -674.93 382.121 -674.93
C 383.156 -674.93 383.656 -674.02 383.812 -673.66
C 384.133 -672.92 384.172 -672.14 384.172 -671.14
C 384.172 -670.45 384.172 -669.25 383.695 -668.41
C 383.215 -667.64 382.48 -667.12 381.562 -667.12
C 380.109 -667.12 378.973 -668.18 378.633 -669.35
C 378.695 -669.33 378.754 -669.31 378.973 -669.31
C 379.629 -669.31 379.969 -669.81 379.969 -670.29
C 379.969 -670.77 379.629 -671.27 378.973 -671.27
C 378.695 -671.27 377.996 -671.12 377.996 -670.21
C 377.996 -668.5 379.371 -666.56 381.602 -666.56
C 383.914 -666.56 385.945 -668.47 385.945 -671
Z
"/>
<path d="
M 393.656 -673.02
C 393.773 -673.54 394.234 -675.37 395.629 -675.37
C 395.727 -675.37 396.207 -675.37 396.625 -675.11
C 396.066 -675.01 395.668 -674.51 395.668 -674.04
C 395.668 -673.71 395.887 -673.34 396.426 -673.34
C 396.863 -673.34 397.5 -673.7 397.5 -674.49
C 397.5 -675.53 396.324 -675.81 395.648 -675.81
C 394.492 -675.81 393.793 -674.75 393.555 -674.29
C 393.059 -675.61 391.98 -675.81 391.402 -675.81
C 389.332 -675.81 388.195 -673.24 388.195 -672.74
C 388.195 -672.54 388.395 -672.54 388.434 -672.54
C 388.594 -672.54 388.652 -672.58 388.695 -672.76
C 389.371 -674.87 390.688 -675.37 391.363 -675.37
C 391.742 -675.37 392.441 -675.19 392.441 -674.04
C 392.441 -673.41 392.102 -672.08 391.363 -669.29
C 391.043 -668.05 390.348 -667.22 389.473 -667.22
C 389.352 -667.22 388.895 -667.22 388.473 -667.48
C 388.973 -667.58 389.41 -668 389.41 -668.55
C 389.41 -669.09 388.973 -669.25 388.672 -669.25
C 388.074 -669.25 387.578 -668.73 387.578 -668.1
C 387.578 -667.18 388.574 -666.78 389.449 -666.78
C 390.766 -666.78 391.484 -668.18 391.543 -668.3
C 391.781 -667.56 392.5 -666.78 393.695 -666.78
C 395.746 -666.78 396.883 -669.35 396.883 -669.85
C 396.883 -670.05 396.703 -670.05 396.645 -670.05
C 396.465 -670.05 396.426 -669.97 396.387 -669.83
C 395.727 -667.7 394.371 -667.22 393.734 -667.22
C 392.957 -667.22 392.641 -667.86 392.641 -668.54
C 392.641 -668.97 392.758 -669.41 392.977 -670.29
Z
"/>
<path d="
M 286.172 -647.58
C 286.449 -647.58 286.828 -647.58 286.828 -647.98
C 286.828 -648.38 286.449 -648.38 286.172 -648.38
L 275.312 -648.38
C 275.031 -648.38 274.652 -648.38 274.652 -647.98
C 274.652 -647.58 275.031 -647.58 275.312 -647.58
Z
"/>
<path d="
M 295.594 -638.22
C 295.594 -638.28 295.594 -638.32 295.258 -638.66
C 292.766 -641.17 292.129 -644.93 292.129 -647.98
C 292.129 -651.45 292.887 -654.91 295.336 -657.41
C 295.594 -657.64 295.594 -657.68 295.594 -657.75
C 295.594 -657.88 295.516 -657.95 295.395 -657.95
C 295.195 -657.95 293.402 -656.59 292.227 -654.06
C 291.211 -651.87 290.973 -649.66 290.973 -647.98
C 290.973 -646.43 291.191 -644.02 292.289 -641.77
C 293.484 -639.31 295.195 -638.02 295.395 -638.02
C 295.516 -638.02 295.594 -638.08 295.594 -638.22
Z
"/>
<path d="
M 309.172 -647.58
C 309.449 -647.58 309.828 -647.58 309.828 -647.98
C 309.828 -648.38 309.449 -648.38 309.172 -648.38
L 298.312 -648.38
C 298.031 -648.38 297.652 -648.38 297.652 -647.98
C 297.652 -647.58 298.031 -647.58 298.312 -647.58
Z
"/>
<path d="
M 321.484 -655.13
C 321.664 -655.38 321.664 -655.41 321.664 -655.83
L 316.82 -655.83
C 314.391 -655.83 314.352 -656.09 314.27 -656.47
L 313.773 -656.47
L 313.117 -652.36
L 313.613 -652.36
C 313.672 -652.68 313.852 -653.94 314.113 -654.18
C 314.25 -654.3 315.805 -654.3 316.066 -654.3
L 320.188 -654.3
C 319.969 -653.98 318.395 -651.81 317.957 -651.15
C 316.164 -648.46 315.508 -645.69 315.508 -643.66
C 315.508 -643.46 315.508 -642.56 316.422 -642.56
C 317.34 -642.56 317.34 -643.46 317.34 -643.66
L 317.34 -644.67
C 317.34 -645.77 317.398 -646.87 317.559 -647.94
C 317.641 -648.4 317.918 -650.11 318.793 -651.35
Z
"/>
<path d="
M 328.656 -649.02
C 328.773 -649.54 329.234 -651.37 330.629 -651.37
C 330.727 -651.37 331.207 -651.37 331.625 -651.11
C 331.066 -651.01 330.668 -650.51 330.668 -650.04
C 330.668 -649.71 330.887 -649.34 331.426 -649.34
C 331.863 -649.34 332.5 -649.7 332.5 -650.49
C 332.5 -651.53 331.324 -651.81 330.648 -651.81
C 329.492 -651.81 328.793 -650.75 328.555 -650.29
C 328.059 -651.61 326.98 -651.81 326.402 -651.81
C 324.332 -651.81 323.195 -649.24 323.195 -648.74
C 323.195 -648.54 323.395 -648.54 323.434 -648.54
C 323.594 -648.54 323.652 -648.58 323.695 -648.76
C 324.371 -650.87 325.688 -651.37 326.363 -651.37
C 326.742 -651.37 327.441 -651.19 327.441 -650.04
C 327.441 -649.41 327.102 -648.08 326.363 -645.29
C 326.043 -644.05 325.348 -643.22 324.473 -643.22
C 324.352 -643.22 323.895 -643.22 323.473 -643.48
C 323.973 -643.58 324.41 -644 324.41 -644.55
C 324.41 -645.09 323.973 -645.25 323.672 -645.25
C 323.074 -645.25 322.578 -644.73 322.578 -644.1
C 322.578 -643.18 323.574 -642.78 324.449 -642.78
C 325.766 -642.78 326.484 -644.18 326.543 -644.3
C 326.781 -643.56 327.5 -642.78 328.695 -642.78
C 330.746 -642.78 331.883 -645.35 331.883 -645.85
C 331.883 -646.05 331.703 -646.05 331.645 -646.05
C 331.465 -646.05 331.426 -645.97 331.387 -645.83
C 330.727 -643.7 329.371 -643.22 328.734 -643.22
C 327.957 -643.22 327.641 -643.86 327.641 -644.54
C 327.641 -644.97 327.758 -645.41 327.977 -646.29
Z
"/>
<path d="
M 340.043 -653.54
L 339.57 -653.54
C 339.527 -653.23 339.387 -652.41 339.207 -652.27
C 339.094 -652.19 338.02 -652.19 337.824 -652.19
L 335.258 -652.19
C 336.723 -653.48 337.211 -653.88 338.051 -654.53
C 339.082 -655.35 340.043 -656.21 340.043 -657.54
C 340.043 -659.23 338.566 -660.26 336.781 -660.26
C 335.051 -660.26 333.879 -659.05 333.879 -657.77
C 333.879 -657.05 334.477 -656.98 334.617 -656.98
C 334.953 -656.98 335.355 -657.22 335.355 -657.72
C 335.355 -657.97 335.258 -658.46 334.535 -658.46
C 334.965 -659.45 335.914 -659.76 336.57 -659.76
C 337.965 -659.76 338.691 -658.67 338.691 -657.54
C 338.691 -656.33 337.824 -655.37 337.379 -654.86
L 334.02 -651.54
C 333.879 -651.42 333.879 -651.39 333.879 -651
L 339.625 -651
Z
"/>
<path d="
M 288.996 -633
L 342.754 -633
L 342.754 -633.96
L 288.996 -633.96
Z
"/>
<path d="
M 355.148 -647.58
L 360.707 -647.58
C 360.988 -647.58 361.367 -647.58 361.367 -647.98
C 361.367 -648.38 360.988 -648.38 360.707 -648.38
L 355.148 -648.38
L 355.148 -653.96
C 355.148 -654.24 355.148 -654.62 354.75 -654.62
C 354.352 -654.62 354.352 -654.24 354.352 -653.96
L 354.352 -648.38
L 348.773 -648.38
C 348.496 -648.38 348.117 -648.38 348.117 -647.98
C 348.117 -647.58 348.496 -647.58 348.773 -647.58
L 354.352 -647.58
L 354.352 -642
C 354.352 -641.73 354.352 -641.35 354.75 -641.35
C 355.148 -641.35 355.148 -641.73 355.148 -642
Z
"/>
<path d="
M 371.777 -650.02
C 373.414 -650.55 374.566 -651.95 374.566 -653.52
C 374.566 -655.16 372.812 -656.27 370.902 -656.27
C 368.891 -656.27 367.375 -655.07 367.375 -653.56
C 367.375 -652.9 367.812 -652.52 368.391 -652.52
C 369.008 -652.52 369.406 -652.96 369.406 -653.54
C 369.406 -654.54 368.473 -654.54 368.172 -654.54
C 368.789 -655.51 370.105 -655.77 370.82 -655.77
C 371.641 -655.77 372.734 -655.33 372.734 -653.54
C 372.734 -653.3 372.695 -652.14 372.176 -651.27
C 371.578 -650.31 370.902 -650.25 370.402 -650.23
C 370.242 -650.21 369.766 -650.17 369.625 -650.17
C 369.469 -650.15 369.328 -650.13 369.328 -649.93
C 369.328 -649.71 369.469 -649.71 369.805 -649.71
L 370.684 -649.71
C 372.316 -649.71 373.055 -648.36 373.055 -646.41
C 373.055 -643.7 371.68 -643.12 370.801 -643.12
C 369.945 -643.12 368.449 -643.46 367.754 -644.63
C 368.449 -644.54 369.07 -644.97 369.07 -645.73
C 369.07 -646.45 368.531 -646.84 367.953 -646.84
C 367.473 -646.84 366.836 -646.57 366.836 -645.69
C 366.836 -643.88 368.691 -642.56 370.863 -642.56
C 373.293 -642.56 375.105 -644.38 375.105 -646.41
C 375.105 -648.04 373.852 -649.59 371.777 -650.02
Z
M 385.945 -647
C 385.945 -649.38 384.312 -651.37 382.16 -651.37
C 381.203 -651.37 380.348 -651.05 379.629 -650.35
L 379.629 -654.24
C 380.027 -654.12 380.688 -653.98 381.324 -653.98
C 383.773 -653.98 385.168 -655.79 385.168 -656.05
C 385.168 -656.17 385.109 -656.27 384.969 -656.27
C 384.949 -656.27 384.91 -656.27 384.812 -656.21
C 384.414 -656.03 383.438 -655.63 382.102 -655.63
C 381.305 -655.63 380.387 -655.77 379.449 -656.19
C 379.293 -656.25 379.25 -656.25 379.211 -656.25
C 379.012 -656.25 379.012 -656.09 379.012 -655.77
L 379.012 -649.88
C 379.012 -649.52 379.012 -649.36 379.293 -649.36
C 379.43 -649.36 379.473 -649.41 379.551 -649.54
C 379.77 -649.86 380.508 -650.93 382.121 -650.93
C 383.156 -650.93 383.656 -650.02 383.812 -649.66
C 384.133 -648.92 384.172 -648.14 384.172 -647.14
C 384.172 -646.45 384.172 -645.25 383.695 -644.41
C 383.215 -643.64 382.48 -643.12 381.562 -643.12
C 380.109 -643.12 378.973 -644.18 378.633 -645.35
C 378.695 -645.33 378.754 -645.31 378.973 -645.31
C 379.629 -645.31 379.969 -645.81 379.969 -646.29
C 379.969 -646.77 379.629 -647.27 378.973 -647.27
C 378.695 -647.27 377.996 -647.12 377.996 -646.21
C 377.996 -644.5 379.371 -642.56 381.602 -642.56
C 383.914 -642.56 385.945 -644.47 385.945 -647
Z
"/>
<path d="
M 393.656 -649.02
C 393.773 -649.54 394.234 -651.37 395.629 -651.37
C 395.727 -651.37 396.207 -651.37 396.625 -651.11
C 396.066 -651.01 395.668 -650.51 395.668 -650.04
C 395.668 -649.71 395.887 -649.34 396.426 -649.34
C 396.863 -649.34 397.5 -649.7 397.5 -650.49
C 397.5 -651.53 396.324 -651.81 395.648 -651.81
C 394.492 -651.81 393.793 -650.75 393.555 -650.29
C 393.059 -651.61 391.98 -651.81 391.402 -651.81
C 389.332 -651.81 388.195 -649.24 388.195 -648.74
C 388.195 -648.54 388.395 -648.54 388.434 -648.54
C 388.594 -648.54 388.652 -648.58 388.695 -648.76
C 389.371 -650.87 390.688 -651.37 391.363 -651.37
C 391.742 -651.37 392.441 -651.19 392.441 -650.04
C 392.441 -649.41 392.102 -648.08 391.363 -645.29
C 391.043 -644.05 390.348 -643.22 389.473 -643.22
C 389.352 -643.22 388.895 -643.22 388.473 -643.48
C 388.973 -643.58 389.41 -644 389.41 -644.55
C 389.41 -645.09 388.973 -645.25 388.672 -645.25
C 388.074 -645.25 387.578 -644.73 387.578 -644.1
C 387.578 -643.18 388.574 -642.78 389.449 -642.78
C 390.766 -642.78 391.484 -644.18 391.543 -644.3
C 391.781 -643.56 392.5 -642.78 393.695 -642.78
C 395.746 -642.78 396.883 -645.35 396.883 -645.85
C 396.883 -646.05 396.703 -646.05 396.645 -646.05
C 396.465 -646.05 396.426 -645.97 396.387 -645.83
C 395.727 -643.7 394.371 -643.22 393.734 -643.22
C 392.957 -643.22 392.641 -643.86 392.641 -644.54
C 392.641 -644.97 392.758 -645.41 392.977 -646.29
Z
"/>
<path d="
M 341.996 -633
L 397.676 -633
L 397.676 -633.96
L 341.996 -633.96
Z
"/>
<path d="
M 403.758 -647.98
C 403.758 -649.54 403.539 -651.95 402.441 -654.2
C 401.246 -656.65 399.535 -657.95 399.336 -657.95
C 399.215 -657.95 399.137 -657.86 399.137 -657.75
C 399.137 -657.68 399.137 -657.64 399.516 -657.29
C 401.469 -655.31 402.602 -652.14 402.602 -647.98
C 402.602 -644.57 401.867 -641.07 399.395 -638.56
C 399.137 -638.32 399.137 -638.28 399.137 -638.22
C 399.137 -638.1 399.215 -638.02 399.336 -638.02
C 399.535 -638.02 401.328 -639.38 402.504 -641.9
C 403.52 -644.1 403.758 -646.31 403.758 -647.98
Z
"/>
<path d="
M 398 -633
L 405.918 -633
L 405.918 -633.96
L 398 -633.96
Z
"/>
<path d="
M 364.172 -618.58
C 364.449 -618.58 364.828 -618.58 364.828 -618.98
C 364.828 -619.38 364.449 -619.38 364.172 -619.38
L 353.312 -619.38
C 353.031 -619.38 352.652 -619.38 352.652 -618.98
C 352.652 -618.58 353.031 -618.58 353.312 -618.58
Z
"/>
<path d="
M 372.777 -621.02
C 374.414 -621.55 375.566 -622.95 375.566 -624.52
C 375.566 -626.16 373.812 -627.27 371.902 -627.27
C 369.891 -627.27 368.375 -626.07 368.375 -624.56
C 368.375 -623.9 368.812 -623.52 369.391 -623.52
C 370.008 -623.52 370.406 -623.96 370.406 -624.54
C 370.406 -625.54 369.473 -625.54 369.172 -625.54
C 369.789 -626.51 371.105 -626.77 371.82 -626.77
C 372.641 -626.77 373.734 -626.33 373.734 -624.54
C 373.734 -624.3 373.695 -623.14 373.176 -622.27
C 372.578 -621.31 371.902 -621.25 371.402 -621.23
C 371.242 -621.21 370.766 -621.17 370.625 -621.17
C 370.469 -621.15 370.328 -621.13 370.328 -620.93
C 370.328 -620.71 370.469 -620.71 370.805 -620.71
L 371.684 -620.71
C 373.316 -620.71 374.055 -619.36 374.055 -617.41
C 374.055 -614.7 372.68 -614.12 371.801 -614.12
C 370.945 -614.12 369.449 -614.46 368.754 -615.63
C 369.449 -615.54 370.07 -615.97 370.07 -616.73
C 370.07 -617.45 369.531 -617.84 368.953 -617.84
C 368.473 -617.84 367.836 -617.57 367.836 -616.69
C 367.836 -614.88 369.691 -613.56 371.863 -613.56
C 374.293 -613.56 376.105 -615.38 376.105 -617.41
C 376.105 -619.04 374.852 -620.59 372.777 -621.02
Z
M 386.164 -620.38
C 386.164 -621.97 386.066 -623.56 385.367 -625.04
C 384.453 -626.95 382.816 -627.27 381.98 -627.27
C 380.785 -627.27 379.332 -626.75 378.516 -624.9
C 377.875 -623.52 377.777 -621.97 377.777 -620.38
C 377.777 -618.88 377.855 -617.09 378.672 -615.57
C 379.531 -613.96 380.984 -613.56 381.961 -613.56
C 383.039 -613.56 384.551 -613.98 385.43 -615.87
C 386.066 -617.25 386.164 -618.8 386.164 -620.38
Z
M 381.961 -614
C 381.184 -614 380.008 -614.5 379.648 -616.41
C 379.43 -617.61 379.43 -619.44 379.43 -620.61
C 379.43 -621.89 379.43 -623.21 379.59 -624.28
C 379.969 -626.65 381.465 -626.83 381.961 -626.83
C 382.617 -626.83 383.934 -626.47 384.312 -624.5
C 384.512 -623.39 384.512 -621.87 384.512 -620.61
C 384.512 -619.12 384.512 -617.77 384.293 -616.49
C 383.992 -614.6 382.859 -614 381.961 -614
Z
"/>
<path d="
M 393.656 -620.02
C 393.773 -620.54 394.234 -622.37 395.629 -622.37
C 395.727 -622.37 396.207 -622.37 396.625 -622.11
C 396.066 -622.01 395.668 -621.51 395.668 -621.04
C 395.668 -620.71 395.887 -620.34 396.426 -620.34
C 396.863 -620.34 397.5 -620.7 397.5 -621.49
C 397.5 -622.53 396.324 -622.81 395.648 -622.81
C 394.492 -622.81 393.793 -621.75 393.555 -621.29
C 393.059 -622.61 391.98 -622.81 391.402 -622.81
C 389.332 -622.81 388.195 -620.24 388.195 -619.74
C 388.195 -619.54 388.395 -619.54 388.434 -619.54
C 388.594 -619.54 388.652 -619.58 388.695 -619.76
C 389.371 -621.87 390.688 -622.37 391.363 -622.37
C 391.742 -622.37 392.441 -622.19 392.441 -621.04
C 392.441 -620.41 392.102 -619.08 391.363 -616.29
C 391.043 -615.05 390.348 -614.22 389.473 -614.22
C 389.352 -614.22 388.895 -614.22 388.473 -614.48
C 388.973 -614.58 389.41 -615 389.41 -615.55
C 389.41 -616.09 388.973 -616.25 388.672 -616.25
C 388.074 -616.25 387.578 -615.73 387.578 -615.1
C 387.578 -614.18 388.574 -613.78 389.449 -613.78
C 390.766 -613.78 391.484 -615.18 391.543 -615.3
C 391.781 -614.56 392.5 -613.78 393.695 -613.78
C 395.746 -613.78 396.883 -616.35 396.883 -616.85
C 396.883 -617.05 396.703 -617.05 396.645 -617.05
C 396.465 -617.05 396.426 -616.97 396.387 -616.83
C 395.727 -614.7 394.371 -614.22 393.734 -614.22
C 392.957 -614.22 392.641 -614.86 392.641 -615.54
C 392.641 -615.97 392.758 -616.41 392.977 -617.29
Z
"/>
<path d="
M 410.148 -618.58
L 415.707 -618.58
C 415.988 -618.58 416.367 -618.58 416.367 -618.98
C 416.367 -619.38 415.988 -619.38 415.707 -619.38
L 410.148 -619.38
L 410.148 -624.96
C 410.148 -625.24 410.148 -625.62 409.75 -625.62
C 409.352 -625.62 409.352 -625.24 409.352 -624.96
L 409.352 -619.38
L 403.773 -619.38
C 403.496 -619.38 403.117 -619.38 403.117 -618.98
C 403.117 -618.58 403.496 -618.58 403.773 -618.58
L 409.352 -618.58
L 409.352 -613
C 409.352 -612.73 409.352 -612.35 409.75 -612.35
C 410.148 -612.35 410.148 -612.73 410.148 -613
Z
"/>
<path d="
M 427.859 -626.75
C 427.859 -627.23 427.859 -627.27 427.398 -627.27
C 426.164 -626 424.41 -626 423.773 -626
L 423.773 -625.38
C 424.172 -625.38 425.348 -625.38 426.383 -625.89
L 426.383 -615.57
C 426.383 -614.86 426.324 -614.62 424.531 -614.62
L 423.895 -614.62
L 423.895 -614
C 424.59 -614.06 426.324 -614.06 427.121 -614.06
C 427.918 -614.06 429.652 -614.06 430.348 -614
L 430.348 -614.62
L 429.711 -614.62
C 427.918 -614.62 427.859 -614.84 427.859 -615.57
Z
M 440.945 -618
C 440.945 -620.38 439.312 -622.37 437.16 -622.37
C 436.203 -622.37 435.348 -622.05 434.629 -621.35
L 434.629 -625.24
C 435.027 -625.12 435.688 -624.98 436.324 -624.98
C 438.773 -624.98 440.168 -626.79 440.168 -627.05
C 440.168 -627.17 440.109 -627.27 439.969 -627.27
C 439.949 -627.27 439.91 -627.27 439.812 -627.21
C 439.414 -627.03 438.438 -626.63 437.102 -626.63
C 436.305 -626.63 435.387 -626.77 434.449 -627.19
C 434.293 -627.25 434.25 -627.25 434.211 -627.25
C 434.012 -627.25 434.012 -627.09 434.012 -626.77
L 434.012 -620.88
C 434.012 -620.52 434.012 -620.36 434.293 -620.36
C 434.43 -620.36 434.473 -620.41 434.551 -620.54
C 434.77 -620.86 435.508 -621.93 437.121 -621.93
C 438.156 -621.93 438.656 -621.02 438.812 -620.66
C 439.133 -619.92 439.172 -619.14 439.172 -618.14
C 439.172 -617.45 439.172 -616.25 438.695 -615.41
C 438.215 -614.64 437.48 -614.12 436.562 -614.12
C 435.109 -614.12 433.973 -615.18 433.633 -616.35
C 433.695 -616.33 433.754 -616.31 433.973 -616.31
C 434.629 -616.31 434.969 -616.81 434.969 -617.29
C 434.969 -617.77 434.629 -618.27 433.973 -618.27
C 433.695 -618.27 432.996 -618.12 432.996 -617.21
C 432.996 -615.5 434.371 -613.56 436.602 -613.56
C 438.914 -613.56 440.945 -615.47 440.945 -618
Z
M 451.164 -620.38
C 451.164 -621.97 451.066 -623.56 450.367 -625.04
C 449.453 -626.95 447.816 -627.27 446.98 -627.27
C 445.785 -627.27 444.332 -626.75 443.516 -624.9
C 442.875 -623.52 442.777 -621.97 442.777 -620.38
C 442.777 -618.88 442.855 -617.09 443.672 -615.57
C 444.531 -613.96 445.984 -613.56 446.961 -613.56
C 448.039 -613.56 449.551 -613.98 450.43 -615.87
C 451.066 -617.25 451.164 -618.8 451.164 -620.38
Z
M 446.961 -614
C 446.184 -614 445.008 -614.5 444.648 -616.41
C 444.43 -617.61 444.43 -619.44 444.43 -620.61
C 444.43 -621.89 444.43 -623.21 444.59 -624.28
C 444.969 -626.65 446.465 -626.83 446.961 -626.83
C 447.617 -626.83 448.934 -626.47 449.312 -624.5
C 449.512 -623.39 449.512 -621.87 449.512 -620.61
C 449.512 -619.12 449.512 -617.77 449.293 -616.49
C 448.992 -614.6 447.859 -614 446.961 -614
Z
"/>
<path d="
M 341.172 -594.58
C 341.449 -594.58 341.828 -594.58 341.828 -594.98
C 341.828 -595.38 341.449 -595.38 341.172 -595.38
L 330.312 -595.38
C 330.031 -595.38 329.652 -595.38 329.652 -594.98
C 329.652 -594.58 330.031 -594.58 330.312 -594.58
Z
"/>
<path d="
M 349.594 -585.22
C 349.594 -585.28 349.594 -585.32 349.258 -585.66
C 346.766 -588.17 346.129 -591.93 346.129 -594.98
C 346.129 -598.45 346.887 -601.91 349.336 -604.41
C 349.594 -604.64 349.594 -604.68 349.594 -604.75
C 349.594 -604.88 349.516 -604.95 349.395 -604.95
C 349.195 -604.95 347.402 -603.59 346.227 -601.06
C 345.211 -598.87 344.973 -596.66 344.973 -594.98
C 344.973 -593.43 345.191 -591.02 346.289 -588.77
C 347.484 -586.31 349.195 -585.02 349.395 -585.02
C 349.516 -585.02 349.594 -585.08 349.594 -585.22
Z
"/>
<path d="
M 364.172 -594.58
C 364.449 -594.58 364.828 -594.58 364.828 -594.98
C 364.828 -595.38 364.449 -595.38 364.172 -595.38
L 353.312 -595.38
C 353.031 -595.38 352.652 -595.38 352.652 -594.98
C 352.652 -594.58 353.031 -594.58 353.312 -594.58
Z
"/>
<path d="
M 372.777 -597.02
C 374.414 -597.55 375.566 -598.95 375.566 -600.52
C 375.566 -602.16 373.812 -603.27 371.902 -603.27
C 369.891 -603.27 368.375 -602.07 368.375 -600.56
C 368.375 -599.9 368.812 -599.52 369.391 -599.52
C 370.008 -599.52 370.406 -599.96 370.406 -600.54
C 370.406 -601.54 369.473 -601.54 369.172 -601.54
C 369.789 -602.51 371.105 -602.77 371.82 -602.77
C 372.641 -602.77 373.734 -602.33 373.734 -600.54
C 373.734 -600.3 373.695 -599.14 373.176 -598.27
C 372.578 -597.31 371.902 -597.25 371.402 -597.23
C 371.242 -597.21 370.766 -597.17 370.625 -597.17
C 370.469 -597.15 370.328 -597.13 370.328 -596.93
C 370.328 -596.71 370.469 -596.71 370.805 -596.71
L 371.684 -596.71
C 373.316 -596.71 374.055 -595.36 374.055 -593.41
C 374.055 -590.7 372.68 -590.12 371.801 -590.12
C 370.945 -590.12 369.449 -590.46 368.754 -591.63
C 369.449 -591.54 370.07 -591.97 370.07 -592.73
C 370.07 -593.45 369.531 -593.84 368.953 -593.84
C 368.473 -593.84 367.836 -593.57 367.836 -592.69
C 367.836 -590.88 369.691 -589.56 371.863 -589.56
C 374.293 -589.56 376.105 -591.38 376.105 -593.41
C 376.105 -595.04 374.852 -596.59 372.777 -597.02
Z
M 386.164 -596.38
C 386.164 -597.97 386.066 -599.56 385.367 -601.04
C 384.453 -602.95 382.816 -603.27 381.98 -603.27
C 380.785 -603.27 379.332 -602.75 378.516 -600.9
C 377.875 -599.52 377.777 -597.97 377.777 -596.38
C 377.777 -594.88 377.855 -593.09 378.672 -591.57
C 379.531 -589.96 380.984 -589.56 381.961 -589.56
C 383.039 -589.56 384.551 -589.98 385.43 -591.87
C 386.066 -593.25 386.164 -594.8 386.164 -596.38
Z
M 381.961 -590
C 381.184 -590 380.008 -590.5 379.648 -592.41
C 379.43 -593.61 379.43 -595.44 379.43 -596.61
C 379.43 -597.89 379.43 -599.21 379.59 -600.28
C 379.969 -602.65 381.465 -602.83 381.961 -602.83
C 382.617 -602.83 383.934 -602.47 384.312 -600.5
C 384.512 -599.39 384.512 -597.87 384.512 -596.61
C 384.512 -595.12 384.512 -593.77 384.293 -592.49
C 383.992 -590.6 382.859 -590 381.961 -590
Z
"/>
<path d="
M 393.656 -596.02
C 393.773 -596.54 394.234 -598.37 395.629 -598.37
C 395.727 -598.37 396.207 -598.37 396.625 -598.11
C 396.066 -598.01 395.668 -597.51 395.668 -597.04
C 395.668 -596.71 395.887 -596.34 396.426 -596.34
C 396.863 -596.34 397.5 -596.7 397.5 -597.49
C 397.5 -598.53 396.324 -598.81 395.648 -598.81
C 394.492 -598.81 393.793 -597.75 393.555 -597.29
C 393.059 -598.61 391.98 -598.81 391.402 -598.81
C 389.332 -598.81 388.195 -596.24 388.195 -595.74
C 388.195 -595.54 388.395 -595.54 388.434 -595.54
C 388.594 -595.54 388.652 -595.58 388.695 -595.76
C 389.371 -597.87 390.688 -598.37 391.363 -598.37
C 391.742 -598.37 392.441 -598.19 392.441 -597.04
C 392.441 -596.41 392.102 -595.08 391.363 -592.29
C 391.043 -591.05 390.348 -590.22 389.473 -590.22
C 389.352 -590.22 388.895 -590.22 388.473 -590.48
C 388.973 -590.58 389.41 -591 389.41 -591.55
C 389.41 -592.09 388.973 -592.25 388.672 -592.25
C 388.074 -592.25 387.578 -591.73 387.578 -591.1
C 387.578 -590.18 388.574 -589.78 389.449 -589.78
C 390.766 -589.78 391.484 -591.18 391.543 -591.3
C 391.781 -590.56 392.5 -589.78 393.695 -589.78
C 395.746 -589.78 396.883 -592.35 396.883 -592.85
C 396.883 -593.05 396.703 -593.05 396.645 -593.05
C 396.465 -593.05 396.426 -592.97 396.387 -592.83
C 395.727 -590.7 394.371 -590.22 393.734 -590.22
C 392.957 -590.22 392.641 -590.86 392.641 -591.54
C 392.641 -591.97 392.758 -592.41 392.977 -593.29
Z
"/>
<path d="
M 343 -579
L 397.719 -579
L 397.719 -579.96
L 343 -579.96
Z
"/>
<path d="
M 410.148 -594.58
L 415.707 -594.58
C 415.988 -594.58 416.367 -594.58 416.367 -594.98
C 416.367 -595.38 415.988 -595.38 415.707 -595.38
L 410.148 -595.38
L 410.148 -600.96
C 410.148 -601.24 410.148 -601.62 409.75 -601.62
C 409.352 -601.62 409.352 -601.24 409.352 -600.96
L 409.352 -595.38
L 403.773 -595.38
C 403.496 -595.38 403.117 -595.38 403.117 -594.98
C 403.117 -594.58 403.496 -594.58 403.773 -594.58
L 409.352 -594.58
L 409.352 -589
C 409.352 -588.73 409.352 -588.35 409.75 -588.35
C 410.148 -588.35 410.148 -588.73 410.148 -589
Z
"/>
<path d="
M 427.859 -602.75
C 427.859 -603.23 427.859 -603.27 427.398 -603.27
C 426.164 -602 424.41 -602 423.773 -602
L 423.773 -601.38
C 424.172 -601.38 425.348 -601.38 426.383 -601.89
L 426.383 -591.57
C 426.383 -590.86 426.324 -590.62 424.531 -590.62
L 423.895 -590.62
L 423.895 -590
C 424.59 -590.06 426.324 -590.06 427.121 -590.06
C 427.918 -590.06 429.652 -590.06 430.348 -590
L 430.348 -590.62
L 429.711 -590.62
C 427.918 -590.62 427.859 -590.84 427.859 -591.57
Z
M 440.945 -594
C 440.945 -596.38 439.312 -598.37 437.16 -598.37
C 436.203 -598.37 435.348 -598.05 434.629 -597.35
L 434.629 -601.24
C 435.027 -601.12 435.688 -600.98 436.324 -600.98
C 438.773 -600.98 440.168 -602.79 440.168 -603.05
C 440.168 -603.17 440.109 -603.27 439.969 -603.27
C 439.949 -603.27 439.91 -603.27 439.812 -603.21
C 439.414 -603.03 438.438 -602.63 437.102 -602.63
C 436.305 -602.63 435.387 -602.77 434.449 -603.19
C 434.293 -603.25 434.25 -603.25 434.211 -603.25
C 434.012 -603.25 434.012 -603.09 434.012 -602.77
L 434.012 -596.88
C 434.012 -596.52 434.012 -596.36 434.293 -596.36
C 434.43 -596.36 434.473 -596.41 434.551 -596.54
C 434.77 -596.86 435.508 -597.93 437.121 -597.93
C 438.156 -597.93 438.656 -597.02 438.812 -596.66
C 439.133 -595.92 439.172 -595.14 439.172 -594.14
C 439.172 -593.45 439.172 -592.25 438.695 -591.41
C 438.215 -590.64 437.48 -590.12 436.562 -590.12
C 435.109 -590.12 433.973 -591.18 433.633 -592.35
C 433.695 -592.33 433.754 -592.31 433.973 -592.31
C 434.629 -592.31 434.969 -592.81 434.969 -593.29
C 434.969 -593.77 434.629 -594.27 433.973 -594.27
C 433.695 -594.27 432.996 -594.12 432.996 -593.21
C 432.996 -591.5 434.371 -589.56 436.602 -589.56
C 438.914 -589.56 440.945 -591.47 440.945 -594
Z
M 451.164 -596.38
C 451.164 -597.97 451.066 -599.56 450.367 -601.04
C 449.453 -602.95 447.816 -603.27 446.98 -603.27
C 445.785 -603.27 444.332 -602.75 443.516 -600.9
C 442.875 -599.52 442.777 -597.97 442.777 -596.38
C 442.777 -594.88 442.855 -593.09 443.672 -591.57
C 444.531 -589.96 445.984 -589.56 446.961 -589.56
C 448.039 -589.56 449.551 -589.98 450.43 -591.87
C 451.066 -593.25 451.164 -594.8 451.164 -596.38
Z
M 446.961 -590
C 446.184 -590 445.008 -590.5 444.648 -592.41
C 444.43 -593.61 444.43 -595.44 444.43 -596.61
C 444.43 -597.89 444.43 -599.21 444.59 -600.28
C 444.969 -602.65 446.465 -602.83 446.961 -602.83
C 447.617 -602.83 448.934 -602.47 449.312 -600.5
C 449.512 -599.39 449.512 -597.87 449.512 -596.61
C 449.512 -595.12 449.512 -593.77 449.293 -592.49
C 448.992 -590.6 447.859 -590 446.961 -590
Z
"/>
<path d="
M 398 -579
L 452.477 -579
L 452.477 -579.96
L 398 -579.96
Z
"/>
<path d="
M 457.758 -594.98
C 457.758 -596.54 457.539 -598.95 456.441 -601.2
C 455.246 -603.65 453.535 -604.95 453.336 -604.95
C 453.215 -604.95 453.137 -604.86 453.137 -604.75
C 453.137 -604.68 453.137 -604.64 453.516 -604.29
C 455.469 -602.31 456.602 -599.14 456.602 -594.98
C 456.602 -591.57 455.867 -588.07 453.395 -585.56
C 453.137 -585.32 453.137 -585.28 453.137 -585.22
C 453.137 -585.1 453.215 -585.02 453.336 -585.02
C 453.535 -585.02 455.328 -586.38 456.504 -588.9
C 457.52 -591.1 457.758 -593.31 457.758 -594.98
Z
"/>
<path d="
M 452 -579
L 459.918 -579
L 459.918 -579.96
L 452 -579.96
Z
"/>
<path d="
M 451.164 -566.38
C 451.164 -567.97 451.066 -569.56 450.367 -571.04
C 449.453 -572.95 447.816 -573.27 446.98 -573.27
C 445.785 -573.27 444.332 -572.75 443.516 -570.9
C 442.875 -569.52 442.777 -567.97 442.777 -566.38
C 442.777 -564.88 442.855 -563.09 443.672 -561.57
C 444.531 -559.96 445.984 -559.56 446.961 -559.56
C 448.039 -559.56 449.551 -559.98 450.43 -561.87
C 451.066 -563.25 451.164 -564.8 451.164 -566.38
Z
M 446.961 -560
C 446.184 -560 445.008 -560.5 444.648 -562.41
C 444.43 -563.61 444.43 -565.44 444.43 -566.61
C 444.43 -567.89 444.43 -569.21 444.59 -570.28
C 444.969 -572.65 446.465 -572.83 446.961 -572.83
C 447.617 -572.83 448.934 -572.47 449.312 -570.5
C 449.512 -569.39 449.512 -567.87 449.512 -566.61
C 449.512 -565.12 449.512 -563.77 449.293 -562.49
C 448.992 -560.6 447.859 -560 446.961 -560
Z
"/>
</g>
</svg>
