<?xml version="1.0" standalone="no"?>
<svg width="16.379975cm" height="6.48175cm" viewBox="234.0 -739.0 656.0 260.0">
<g fill="black" fill-rule="evenodd" stroke-width="0" stroke-linejoin="miter" stroke-linecap="butt" stroke-miterlimit="10" >
<path d="
M 256.594 -707.22
C 256.594 -707.28 256.594 -707.32 256.258 -707.66
C 253.766 -710.17 253.129 -713.93 253.129 -716.98
C 253.129 -720.45 253.887 -723.91 256.336 -726.41
C 256.594 -726.64 256.594 -726.68 256.594 -726.75
C 256.594 -726.88 256.516 -726.95 256.395 -726.95
C 256.195 -726.95 254.402 -725.59 253.227 -723.06
C 252.211 -720.87 251.973 -718.66 251.973 -716.98
C 251.973 -715.43 252.191 -713.02 253.289 -710.77
C 254.484 -708.31 256.195 -707.02 256.395 -707.02
C 256.516 -707.02 256.594 -707.08 256.594 -707.22
Z
M 257.559 -715.29
L 262.859 -715.29
L 262.859 -713.55
C 262.859 -712.84 262.816 -712.62 261.344 -712.62
L 260.926 -712.62
L 260.926 -712
C 261.742 -712.06 262.777 -712.06 263.613 -712.06
C 264.453 -712.06 265.508 -712.06 266.324 -712
L 266.324 -712.62
L 265.906 -712.62
C 264.434 -712.62 264.391 -712.84 264.391 -713.55
L 264.391 -715.29
L 266.387 -715.29
L 266.387 -715.91
L 264.391 -715.91
L 264.391 -724.97
C 264.391 -725.37 264.391 -725.49 264.074 -725.49
C 263.895 -725.49 263.836 -725.49 263.676 -725.25
L 257.559 -715.91
Z
M 262.977 -715.91
L 258.117 -715.91
L 262.977 -723.34
Z
"/>
<path d="
M 273.656 -718.02
C 273.773 -718.54 274.234 -720.37 275.629 -720.37
C 275.727 -720.37 276.207 -720.37 276.625 -720.11
C 276.066 -720.01 275.668 -719.51 275.668 -719.04
C 275.668 -718.71 275.887 -718.34 276.426 -718.34
C 276.863 -718.34 277.5 -718.7 277.5 -719.49
C 277.5 -720.53 276.324 -720.81 275.648 -720.81
C 274.492 -720.81 273.793 -719.75 273.555 -719.29
C 273.059 -720.61 271.98 -720.81 271.402 -720.81
C 269.332 -720.81 268.195 -718.24 268.195 -717.74
C 268.195 -717.54 268.395 -717.54 268.434 -717.54
C 268.594 -717.54 268.652 -717.58 268.695 -717.76
C 269.371 -719.87 270.688 -720.37 271.363 -720.37
C 271.742 -720.37 272.441 -720.19 272.441 -719.04
C 272.441 -718.41 272.102 -717.08 271.363 -714.29
C 271.043 -713.05 270.348 -712.22 269.473 -712.22
C 269.352 -712.22 268.895 -712.22 268.473 -712.48
C 268.973 -712.58 269.41 -713 269.41 -713.55
C 269.41 -714.09 268.973 -714.25 268.672 -714.25
C 268.074 -714.25 267.578 -713.73 267.578 -713.1
C 267.578 -712.18 268.574 -711.78 269.449 -711.78
C 270.766 -711.78 271.484 -713.18 271.543 -713.3
C 271.781 -712.56 272.5 -711.78 273.695 -711.78
C 275.746 -711.78 276.883 -714.35 276.883 -714.85
C 276.883 -715.05 276.703 -715.05 276.645 -715.05
C 276.465 -715.05 276.426 -714.97 276.387 -714.83
C 275.727 -712.7 274.371 -712.22 273.734 -712.22
C 272.957 -712.22 272.641 -712.86 272.641 -713.54
C 272.641 -713.97 272.758 -714.41 272.977 -715.29
Z
"/>
<path d="
M 281.16 -726.78
C 281.875 -726.6 282.293 -726.6 282.516 -726.6
C 284.355 -726.6 285.445 -727.86 285.445 -728.07
C 285.445 -728.22 285.348 -728.26 285.277 -728.26
C 285.25 -728.26 285.219 -728.26 285.164 -728.22
C 284.832 -728.09 284.09 -727.82 283.059 -727.82
C 282.668 -727.82 281.93 -727.84 281.023 -728.19
C 280.883 -728.26 280.855 -728.26 280.84 -728.26
C 280.66 -728.26 280.66 -728.11 280.66 -727.88
L 280.66 -723.77
C 280.66 -723.53 280.66 -723.37 280.883 -723.37
C 281.008 -723.37 281.023 -723.39 281.16 -723.56
C 281.762 -724.33 282.613 -724.44 283.102 -724.44
C 283.938 -724.44 284.312 -723.77 284.383 -723.66
C 284.637 -723.2 284.719 -722.67 284.719 -721.86
C 284.719 -721.44 284.719 -720.62 284.301 -720
C 283.953 -719.5 283.352 -719.17 282.668 -719.17
C 281.762 -719.17 280.828 -719.67 280.477 -720.59
C 281.008 -720.55 281.273 -720.9 281.273 -721.27
C 281.273 -721.88 280.758 -721.98 280.574 -721.98
C 280.547 -721.98 279.879 -721.98 279.879 -721.23
C 279.879 -719.98 281.023 -718.72 282.695 -718.72
C 284.48 -718.72 286.043 -720.05 286.043 -721.8
C 286.043 -723.38 284.844 -724.83 283.113 -724.83
C 282.5 -724.83 281.777 -724.68 281.16 -724.15
Z
"/>
<path d="
M 305.172 -716.58
C 305.449 -716.58 305.828 -716.58 305.828 -716.98
C 305.828 -717.38 305.449 -717.38 305.172 -717.38
L 294.312 -717.38
C 294.031 -717.38 293.652 -717.38 293.652 -716.98
C 293.652 -716.58 294.031 -716.58 294.312 -716.58
Z
"/>
<path d="
M 318.656 -718.02
C 318.773 -718.54 319.234 -720.37 320.629 -720.37
C 320.727 -720.37 321.207 -720.37 321.625 -720.11
C 321.066 -720.01 320.668 -719.51 320.668 -719.04
C 320.668 -718.71 320.887 -718.34 321.426 -718.34
C 321.863 -718.34 322.5 -718.7 322.5 -719.49
C 322.5 -720.53 321.324 -720.81 320.648 -720.81
C 319.492 -720.81 318.793 -719.75 318.555 -719.29
C 318.059 -720.61 316.98 -720.81 316.402 -720.81
C 314.332 -720.81 313.195 -718.24 313.195 -717.74
C 313.195 -717.54 313.395 -717.54 313.434 -717.54
C 313.594 -717.54 313.652 -717.58 313.695 -717.76
C 314.371 -719.87 315.688 -720.37 316.363 -720.37
C 316.742 -720.37 317.441 -720.19 317.441 -719.04
C 317.441 -718.41 317.102 -717.08 316.363 -714.29
C 316.043 -713.05 315.348 -712.22 314.473 -712.22
C 314.352 -712.22 313.895 -712.22 313.473 -712.48
C 313.973 -712.58 314.41 -713 314.41 -713.55
C 314.41 -714.09 313.973 -714.25 313.672 -714.25
C 313.074 -714.25 312.578 -713.73 312.578 -713.1
C 312.578 -712.18 313.574 -711.78 314.449 -711.78
C 315.766 -711.78 316.484 -713.18 316.543 -713.3
C 316.781 -712.56 317.5 -711.78 318.695 -711.78
C 320.746 -711.78 321.883 -714.35 321.883 -714.85
C 321.883 -715.05 321.703 -715.05 321.645 -715.05
C 321.465 -715.05 321.426 -714.97 321.387 -714.83
C 320.727 -712.7 319.371 -712.22 318.734 -712.22
C 317.957 -712.22 317.641 -712.86 317.641 -713.54
C 317.641 -713.97 317.758 -714.41 317.977 -715.29
Z
"/>
<path d="
M 330.379 -721.29
L 330.379 -721.79
L 328.832 -721.79
L 328.832 -728.01
C 328.832 -728.3 328.832 -728.4 328.523 -728.4
C 328.355 -728.4 328.301 -728.4 328.16 -728.21
L 323.543 -721.79
L 323.543 -721.29
L 327.645 -721.29
L 327.645 -720.14
C 327.645 -719.67 327.645 -719.5 326.516 -719.5
L 326.137 -719.5
L 326.137 -719
C 326.836 -719.03 327.727 -719.05 328.23 -719.05
C 328.746 -719.05 329.641 -719.03 330.336 -719
L 330.336 -719.5
L 329.961 -719.5
C 328.832 -719.5 328.832 -719.67 328.832 -720.14
L 328.832 -721.29
Z
M 327.742 -726.89
L 327.742 -721.79
L 324.059 -721.79
Z
"/>
<path d="
M 345.148 -716.58
L 350.707 -716.58
C 350.988 -716.58 351.367 -716.58 351.367 -716.98
C 351.367 -717.38 350.988 -717.38 350.707 -717.38
L 345.148 -717.38
L 345.148 -722.96
C 345.148 -723.24 345.148 -723.62 344.75 -723.62
C 344.352 -723.62 344.352 -723.24 344.352 -722.96
L 344.352 -717.38
L 338.773 -717.38
C 338.496 -717.38 338.117 -717.38 338.117 -716.98
C 338.117 -716.58 338.496 -716.58 338.773 -716.58
L 344.352 -716.58
L 344.352 -711
C 344.352 -710.73 344.352 -710.35 344.75 -710.35
C 345.148 -710.35 345.148 -710.73 345.148 -711
Z
"/>
<path d="
M 365.945 -715.47
L 365.449 -715.47
C 365.348 -714.87 365.211 -713.99 365.012 -713.7
C 364.871 -713.54 363.555 -713.54 363.117 -713.54
L 359.531 -713.54
L 361.645 -715.59
C 364.75 -718.34 365.945 -719.41 365.945 -721.41
C 365.945 -723.68 364.152 -725.27 361.723 -725.27
C 359.473 -725.27 357.996 -723.44 357.996 -721.66
C 357.996 -720.55 358.992 -720.55 359.051 -720.55
C 359.391 -720.55 360.09 -720.79 360.09 -721.61
C 360.09 -722.12 359.73 -722.64 359.031 -722.64
C 358.871 -722.64 358.832 -722.64 358.773 -722.62
C 359.23 -723.91 360.309 -724.65 361.465 -724.65
C 363.277 -724.65 364.133 -723.04 364.133 -721.41
C 364.133 -719.81 363.137 -718.24 362.043 -717
L 358.215 -712.74
C 357.996 -712.52 357.996 -712.48 357.996 -712
L 365.387 -712
Z
"/>
<path d="
M 373.656 -718.02
C 373.773 -718.54 374.234 -720.37 375.629 -720.37
C 375.727 -720.37 376.207 -720.37 376.625 -720.11
C 376.066 -720.01 375.668 -719.51 375.668 -719.04
C 375.668 -718.71 375.887 -718.34 376.426 -718.34
C 376.863 -718.34 377.5 -718.7 377.5 -719.49
C 377.5 -720.53 376.324 -720.81 375.648 -720.81
C 374.492 -720.81 373.793 -719.75 373.555 -719.29
C 373.059 -720.61 371.98 -720.81 371.402 -720.81
C 369.332 -720.81 368.195 -718.24 368.195 -717.74
C 368.195 -717.54 368.395 -717.54 368.434 -717.54
C 368.594 -717.54 368.652 -717.58 368.695 -717.76
C 369.371 -719.87 370.688 -720.37 371.363 -720.37
C 371.742 -720.37 372.441 -720.19 372.441 -719.04
C 372.441 -718.41 372.102 -717.08 371.363 -714.29
C 371.043 -713.05 370.348 -712.22 369.473 -712.22
C 369.352 -712.22 368.895 -712.22 368.473 -712.48
C 368.973 -712.58 369.41 -713 369.41 -713.55
C 369.41 -714.09 368.973 -714.25 368.672 -714.25
C 368.074 -714.25 367.578 -713.73 367.578 -713.1
C 367.578 -712.18 368.574 -711.78 369.449 -711.78
C 370.766 -711.78 371.484 -713.18 371.543 -713.3
C 371.781 -712.56 372.5 -711.78 373.695 -711.78
C 375.746 -711.78 376.883 -714.35 376.883 -714.85
C 376.883 -715.05 376.703 -715.05 376.645 -715.05
C 376.465 -715.05 376.426 -714.97 376.387 -714.83
C 375.727 -712.7 374.371 -712.22 373.734 -712.22
C 372.957 -712.22 372.641 -712.86 372.641 -713.54
C 372.641 -713.97 372.758 -714.41 372.977 -715.29
Z
"/>
<path d="
M 381.809 -723.66
C 382.895 -723.66 383.676 -722.91 383.676 -721.41
C 383.676 -719.68 382.672 -719.17 381.863 -719.17
C 381.305 -719.17 380.078 -719.32 379.492 -720.14
C 380.148 -720.17 380.301 -720.63 380.301 -720.93
C 380.301 -721.37 379.965 -721.69 379.535 -721.69
C 379.145 -721.69 378.754 -721.45 378.754 -720.88
C 378.754 -719.57 380.203 -718.72 381.891 -718.72
C 383.832 -718.72 385.168 -720.02 385.168 -721.41
C 385.168 -722.5 384.277 -723.59 382.742 -723.91
C 384.207 -724.44 384.738 -725.48 384.738 -726.34
C 384.738 -727.44 383.469 -728.26 381.918 -728.26
C 380.371 -728.26 379.188 -727.51 379.188 -726.39
C 379.188 -725.92 379.492 -725.65 379.91 -725.65
C 380.344 -725.65 380.621 -725.97 380.621 -726.36
C 380.621 -726.77 380.344 -727.06 379.91 -727.09
C 380.398 -727.7 381.363 -727.86 381.879 -727.86
C 382.504 -727.86 383.383 -727.55 383.383 -726.34
C 383.383 -725.75 383.188 -725.11 382.824 -724.68
C 382.367 -724.15 381.977 -724.12 381.277 -724.08
C 380.93 -724.05 380.902 -724.05 380.832 -724.04
C 380.805 -724.04 380.691 -724.01 380.691 -723.86
C 380.691 -723.66 380.816 -723.66 381.055 -723.66
Z
"/>
<path d="
M 409.148 -716.58
L 414.707 -716.58
C 414.988 -716.58 415.367 -716.58 415.367 -716.98
C 415.367 -717.38 414.988 -717.38 414.707 -717.38
L 409.148 -717.38
L 409.148 -722.96
C 409.148 -723.24 409.148 -723.62 408.75 -723.62
C 408.352 -723.62 408.352 -723.24 408.352 -722.96
L 408.352 -717.38
L 402.773 -717.38
C 402.496 -717.38 402.117 -717.38 402.117 -716.98
C 402.117 -716.58 402.496 -716.58 402.773 -716.58
L 408.352 -716.58
L 408.352 -711
C 408.352 -710.73 408.352 -710.35 408.75 -710.35
C 409.148 -710.35 409.148 -710.73 409.148 -711
Z
"/>
<path d="
M 427.656 -718.02
C 427.773 -718.54 428.234 -720.37 429.629 -720.37
C 429.727 -720.37 430.207 -720.37 430.625 -720.11
C 430.066 -720.01 429.668 -719.51 429.668 -719.04
C 429.668 -718.71 429.887 -718.34 430.426 -718.34
C 430.863 -718.34 431.5 -718.7 431.5 -719.49
C 431.5 -720.53 430.324 -720.81 429.648 -720.81
C 428.492 -720.81 427.793 -719.75 427.555 -719.29
C 427.059 -720.61 425.98 -720.81 425.402 -720.81
C 423.332 -720.81 422.195 -718.24 422.195 -717.74
C 422.195 -717.54 422.395 -717.54 422.434 -717.54
C 422.594 -717.54 422.652 -717.58 422.695 -717.76
C 423.371 -719.87 424.688 -720.37 425.363 -720.37
C 425.742 -720.37 426.441 -720.19 426.441 -719.04
C 426.441 -718.41 426.102 -717.08 425.363 -714.29
C 425.043 -713.05 424.348 -712.22 423.473 -712.22
C 423.352 -712.22 422.895 -712.22 422.473 -712.48
C 422.973 -712.58 423.41 -713 423.41 -713.55
C 423.41 -714.09 422.973 -714.25 422.672 -714.25
C 422.074 -714.25 421.578 -713.73 421.578 -713.1
C 421.578 -712.18 422.574 -711.78 423.449 -711.78
C 424.766 -711.78 425.484 -713.18 425.543 -713.3
C 425.781 -712.56 426.5 -711.78 427.695 -711.78
C 429.746 -711.78 430.883 -714.35 430.883 -714.85
C 430.883 -715.05 430.703 -715.05 430.645 -715.05
C 430.465 -715.05 430.426 -714.97 430.387 -714.83
C 429.727 -712.7 428.371 -712.22 427.734 -712.22
C 426.957 -712.22 426.641 -712.86 426.641 -713.54
C 426.641 -713.97 426.758 -714.41 426.977 -715.29
Z
"/>
<path d="
M 439.043 -721.54
L 438.57 -721.54
C 438.527 -721.23 438.387 -720.41 438.207 -720.27
C 438.094 -720.19 437.02 -720.19 436.824 -720.19
L 434.258 -720.19
C 435.723 -721.48 436.211 -721.88 437.051 -722.53
C 438.082 -723.35 439.043 -724.21 439.043 -725.54
C 439.043 -727.23 437.566 -728.26 435.781 -728.26
C 434.051 -728.26 432.879 -727.05 432.879 -725.77
C 432.879 -725.05 433.477 -724.98 433.617 -724.98
C 433.953 -724.98 434.355 -725.22 434.355 -725.72
C 434.355 -725.97 434.258 -726.46 433.535 -726.46
C 433.965 -727.45 434.914 -727.76 435.57 -727.76
C 436.965 -727.76 437.691 -726.67 437.691 -725.54
C 437.691 -724.33 436.824 -723.37 436.379 -722.86
L 433.02 -719.54
C 432.879 -719.42 432.879 -719.39 432.879 -719
L 438.625 -719
Z
"/>
<path d="
M 505.172 -716.58
C 505.449 -716.58 505.828 -716.58 505.828 -716.98
C 505.828 -717.38 505.449 -717.38 505.172 -717.38
L 494.312 -717.38
C 494.031 -717.38 493.652 -717.38 493.652 -716.98
C 493.652 -716.58 494.031 -716.58 494.312 -716.58
Z
"/>
<path d="
M 516.859 -724.75
C 516.859 -725.23 516.859 -725.27 516.398 -725.27
C 515.164 -724 513.41 -724 512.773 -724
L 512.773 -723.38
C 513.172 -723.38 514.348 -723.38 515.383 -723.89
L 515.383 -713.57
C 515.383 -712.86 515.324 -712.62 513.531 -712.62
L 512.895 -712.62
L 512.895 -712
C 513.59 -712.06 515.324 -712.06 516.121 -712.06
C 516.918 -712.06 518.652 -712.06 519.348 -712
L 519.348 -712.62
L 518.711 -712.62
C 516.918 -712.62 516.859 -712.84 516.859 -713.57
Z
M 527.758 -716.98
C 527.758 -718.54 527.539 -720.95 526.441 -723.2
C 525.246 -725.65 523.535 -726.95 523.336 -726.95
C 523.215 -726.95 523.137 -726.86 523.137 -726.75
C 523.137 -726.68 523.137 -726.64 523.516 -726.29
C 525.469 -724.31 526.602 -721.14 526.602 -716.98
C 526.602 -713.57 525.867 -710.07 523.395 -707.56
C 523.137 -707.32 523.137 -707.28 523.137 -707.22
C 523.137 -707.1 523.215 -707.02 523.336 -707.02
C 523.535 -707.02 525.328 -708.38 526.504 -710.9
C 527.52 -713.1 527.758 -715.31 527.758 -716.98
Z
"/>
<path d="
M 538.824 -719.53
C 538.824 -720.11 538.348 -720.59 537.77 -720.59
C 537.191 -720.59 536.715 -720.11 536.715 -719.53
C 536.715 -718.95 537.191 -718.48 537.77 -718.48
C 538.348 -718.48 538.824 -718.95 538.824 -719.53
Z
M 538.824 -713.05
C 538.824 -713.63 538.348 -714.11 537.77 -714.11
C 537.191 -714.11 536.715 -713.63 536.715 -713.05
C 536.715 -712.48 537.191 -712 537.77 -712
C 538.348 -712 538.824 -712.48 538.824 -713.05
Z
"/>
<path d="
M 552.594 -707.22
C 552.594 -707.28 552.594 -707.32 552.258 -707.66
C 549.766 -710.17 549.129 -713.93 549.129 -716.98
C 549.129 -720.45 549.887 -723.91 552.336 -726.41
C 552.594 -726.64 552.594 -726.68 552.594 -726.75
C 552.594 -726.88 552.516 -726.95 552.395 -726.95
C 552.195 -726.95 550.402 -725.59 549.227 -723.06
C 548.211 -720.87 547.973 -718.66 547.973 -716.98
C 547.973 -715.43 548.191 -713.02 549.289 -710.77
C 550.484 -708.31 552.195 -707.02 552.395 -707.02
C 552.516 -707.02 552.594 -707.08 552.594 -707.22
Z
"/>
<path d="
M 559.656 -718.02
C 559.773 -718.54 560.234 -720.37 561.629 -720.37
C 561.727 -720.37 562.207 -720.37 562.625 -720.11
C 562.066 -720.01 561.668 -719.51 561.668 -719.04
C 561.668 -718.71 561.887 -718.34 562.426 -718.34
C 562.863 -718.34 563.5 -718.7 563.5 -719.49
C 563.5 -720.53 562.324 -720.81 561.648 -720.81
C 560.492 -720.81 559.793 -719.75 559.555 -719.29
C 559.059 -720.61 557.98 -720.81 557.402 -720.81
C 555.332 -720.81 554.195 -718.24 554.195 -717.74
C 554.195 -717.54 554.395 -717.54 554.434 -717.54
C 554.594 -717.54 554.652 -717.58 554.695 -717.76
C 555.371 -719.87 556.688 -720.37 557.363 -720.37
C 557.742 -720.37 558.441 -720.19 558.441 -719.04
C 558.441 -718.41 558.102 -717.08 557.363 -714.29
C 557.043 -713.05 556.348 -712.22 555.473 -712.22
C 555.352 -712.22 554.895 -712.22 554.473 -712.48
C 554.973 -712.58 555.41 -713 555.41 -713.55
C 555.41 -714.09 554.973 -714.25 554.672 -714.25
C 554.074 -714.25 553.578 -713.73 553.578 -713.1
C 553.578 -712.18 554.574 -711.78 555.449 -711.78
C 556.766 -711.78 557.484 -713.18 557.543 -713.3
C 557.781 -712.56 558.5 -711.78 559.695 -711.78
C 561.746 -711.78 562.883 -714.35 562.883 -714.85
C 562.883 -715.05 562.703 -715.05 562.645 -715.05
C 562.465 -715.05 562.426 -714.97 562.387 -714.83
C 561.727 -712.7 560.371 -712.22 559.734 -712.22
C 558.957 -712.22 558.641 -712.86 558.641 -713.54
C 558.641 -713.97 558.758 -714.41 558.977 -715.29
Z
"/>
<path d="
M 572.043 -722.54
L 571.57 -722.54
C 571.527 -722.23 571.387 -721.41 571.207 -721.27
C 571.094 -721.19 570.02 -721.19 569.824 -721.19
L 567.258 -721.19
C 568.723 -722.48 569.211 -722.88 570.051 -723.53
C 571.082 -724.35 572.043 -725.21 572.043 -726.54
C 572.043 -728.23 570.566 -729.26 568.781 -729.26
C 567.051 -729.26 565.879 -728.05 565.879 -726.77
C 565.879 -726.05 566.477 -725.98 566.617 -725.98
C 566.953 -725.98 567.355 -726.22 567.355 -726.72
C 567.355 -726.97 567.258 -727.46 566.535 -727.46
C 566.965 -728.45 567.914 -728.76 568.57 -728.76
C 569.965 -728.76 570.691 -727.67 570.691 -726.54
C 570.691 -725.33 569.824 -724.37 569.379 -723.86
L 566.02 -720.54
C 565.879 -720.42 565.879 -720.39 565.879 -720
L 571.625 -720
Z
"/>
<path d="
M 586.148 -716.58
L 591.707 -716.58
C 591.988 -716.58 592.367 -716.58 592.367 -716.98
C 592.367 -717.38 591.988 -717.38 591.707 -717.38
L 586.148 -717.38
L 586.148 -722.96
C 586.148 -723.24 586.148 -723.62 585.75 -723.62
C 585.352 -723.62 585.352 -723.24 585.352 -722.96
L 585.352 -717.38
L 579.773 -717.38
C 579.496 -717.38 579.117 -717.38 579.117 -716.98
C 579.117 -716.58 579.496 -716.58 579.773 -716.58
L 585.352 -716.58
L 585.352 -711
C 585.352 -710.73 585.352 -710.35 585.75 -710.35
C 586.148 -710.35 586.148 -710.73 586.148 -711
Z
"/>
<path d="
M 603.859 -724.75
C 603.859 -725.23 603.859 -725.27 603.398 -725.27
C 602.164 -724 600.41 -724 599.773 -724
L 599.773 -723.38
C 600.172 -723.38 601.348 -723.38 602.383 -723.89
L 602.383 -713.57
C 602.383 -712.86 602.324 -712.62 600.531 -712.62
L 599.895 -712.62
L 599.895 -712
C 600.59 -712.06 602.324 -712.06 603.121 -712.06
C 603.918 -712.06 605.652 -712.06 606.348 -712
L 606.348 -712.62
L 605.711 -712.62
C 603.918 -712.62 603.859 -712.84 603.859 -713.57
Z
M 613.758 -716.98
C 613.758 -718.54 613.539 -720.95 612.441 -723.2
C 611.246 -725.65 609.535 -726.95 609.336 -726.95
C 609.215 -726.95 609.137 -726.86 609.137 -726.75
C 609.137 -726.68 609.137 -726.64 609.516 -726.29
C 611.469 -724.31 612.602 -721.14 612.602 -716.98
C 612.602 -713.57 611.867 -710.07 609.395 -707.56
C 609.137 -707.32 609.137 -707.28 609.137 -707.22
C 609.137 -707.1 609.215 -707.02 609.336 -707.02
C 609.535 -707.02 611.328 -708.38 612.504 -710.9
C 613.52 -713.1 613.758 -715.31 613.758 -716.98
Z
"/>
<path d="
M 635.688 -718.52
C 635.988 -718.52 636.367 -718.52 636.367 -718.91
C 636.367 -719.31 635.988 -719.31 635.707 -719.31
L 623.773 -719.31
C 623.496 -719.31 623.117 -719.31 623.117 -718.91
C 623.117 -718.52 623.496 -718.52 623.793 -718.52
Z
M 635.707 -714.65
C 635.988 -714.65 636.367 -714.65 636.367 -715.05
C 636.367 -715.45 635.988 -715.45 635.688 -715.45
L 623.793 -715.45
C 623.496 -715.45 623.117 -715.45 623.117 -715.05
C 623.117 -714.65 623.496 -714.65 623.773 -714.65
Z
"/>
<path d="
M 642.559 -715.29
L 647.859 -715.29
L 647.859 -713.55
C 647.859 -712.84 647.816 -712.62 646.344 -712.62
L 645.926 -712.62
L 645.926 -712
C 646.742 -712.06 647.777 -712.06 648.613 -712.06
C 649.453 -712.06 650.508 -712.06 651.324 -712
L 651.324 -712.62
L 650.906 -712.62
C 649.434 -712.62 649.391 -712.84 649.391 -713.55
L 649.391 -715.29
L 651.387 -715.29
L 651.387 -715.91
L 649.391 -715.91
L 649.391 -724.97
C 649.391 -725.37 649.391 -725.49 649.074 -725.49
C 648.895 -725.49 648.836 -725.49 648.676 -725.25
L 642.559 -715.91
Z
M 647.977 -715.91
L 643.117 -715.91
L 647.977 -723.34
Z
"/>
<path d="
M 659.656 -718.02
C 659.773 -718.54 660.234 -720.37 661.629 -720.37
C 661.727 -720.37 662.207 -720.37 662.625 -720.11
C 662.066 -720.01 661.668 -719.51 661.668 -719.04
C 661.668 -718.71 661.887 -718.34 662.426 -718.34
C 662.863 -718.34 663.5 -718.7 663.5 -719.49
C 663.5 -720.53 662.324 -720.81 661.648 -720.81
C 660.492 -720.81 659.793 -719.75 659.555 -719.29
C 659.059 -720.61 657.98 -720.81 657.402 -720.81
C 655.332 -720.81 654.195 -718.24 654.195 -717.74
C 654.195 -717.54 654.395 -717.54 654.434 -717.54
C 654.594 -717.54 654.652 -717.58 654.695 -717.76
C 655.371 -719.87 656.688 -720.37 657.363 -720.37
C 657.742 -720.37 658.441 -720.19 658.441 -719.04
C 658.441 -718.41 658.102 -717.08 657.363 -714.29
C 657.043 -713.05 656.348 -712.22 655.473 -712.22
C 655.352 -712.22 654.895 -712.22 654.473 -712.48
C 654.973 -712.58 655.41 -713 655.41 -713.55
C 655.41 -714.09 654.973 -714.25 654.672 -714.25
C 654.074 -714.25 653.578 -713.73 653.578 -713.1
C 653.578 -712.18 654.574 -711.78 655.449 -711.78
C 656.766 -711.78 657.484 -713.18 657.543 -713.3
C 657.781 -712.56 658.5 -711.78 659.695 -711.78
C 661.746 -711.78 662.883 -714.35 662.883 -714.85
C 662.883 -715.05 662.703 -715.05 662.645 -715.05
C 662.465 -715.05 662.426 -714.97 662.387 -714.83
C 661.727 -712.7 660.371 -712.22 659.734 -712.22
C 658.957 -712.22 658.641 -712.86 658.641 -713.54
C 658.641 -713.97 658.758 -714.41 658.977 -715.29
Z
"/>
<path d="
M 667.809 -724.66
C 668.895 -724.66 669.676 -723.91 669.676 -722.41
C 669.676 -720.68 668.672 -720.17 667.863 -720.17
C 667.305 -720.17 666.078 -720.32 665.492 -721.14
C 666.148 -721.17 666.301 -721.63 666.301 -721.93
C 666.301 -722.37 665.965 -722.69 665.535 -722.69
C 665.145 -722.69 664.754 -722.45 664.754 -721.88
C 664.754 -720.57 666.203 -719.72 667.891 -719.72
C 669.832 -719.72 671.168 -721.02 671.168 -722.41
C 671.168 -723.5 670.277 -724.59 668.742 -724.91
C 670.207 -725.44 670.738 -726.48 670.738 -727.34
C 670.738 -728.44 669.469 -729.26 667.918 -729.26
C 666.371 -729.26 665.188 -728.51 665.188 -727.39
C 665.188 -726.92 665.492 -726.65 665.91 -726.65
C 666.344 -726.65 666.621 -726.97 666.621 -727.36
C 666.621 -727.77 666.344 -728.06 665.91 -728.09
C 666.398 -728.7 667.363 -728.86 667.879 -728.86
C 668.504 -728.86 669.383 -728.55 669.383 -727.34
C 669.383 -726.75 669.188 -726.11 668.824 -725.68
C 668.367 -725.15 667.977 -725.12 667.277 -725.08
C 666.93 -725.05 666.902 -725.05 666.832 -725.04
C 666.805 -725.04 666.691 -725.01 666.691 -724.86
C 666.691 -724.66 666.816 -724.66 667.055 -724.66
Z
"/>
<path d="
M 690.172 -716.58
C 690.449 -716.58 690.828 -716.58 690.828 -716.98
C 690.828 -717.38 690.449 -717.38 690.172 -717.38
L 679.312 -717.38
C 679.031 -717.38 678.652 -717.38 678.652 -716.98
C 678.652 -716.58 679.031 -716.58 679.312 -716.58
Z
"/>
<path d="
M 703.656 -718.02
C 703.773 -718.54 704.234 -720.37 705.629 -720.37
C 705.727 -720.37 706.207 -720.37 706.625 -720.11
C 706.066 -720.01 705.668 -719.51 705.668 -719.04
C 705.668 -718.71 705.887 -718.34 706.426 -718.34
C 706.863 -718.34 707.5 -718.7 707.5 -719.49
C 707.5 -720.53 706.324 -720.81 705.648 -720.81
C 704.492 -720.81 703.793 -719.75 703.555 -719.29
C 703.059 -720.61 701.98 -720.81 701.402 -720.81
C 699.332 -720.81 698.195 -718.24 698.195 -717.74
C 698.195 -717.54 698.395 -717.54 698.434 -717.54
C 698.594 -717.54 698.652 -717.58 698.695 -717.76
C 699.371 -719.87 700.688 -720.37 701.363 -720.37
C 701.742 -720.37 702.441 -720.19 702.441 -719.04
C 702.441 -718.41 702.102 -717.08 701.363 -714.29
C 701.043 -713.05 700.348 -712.22 699.473 -712.22
C 699.352 -712.22 698.895 -712.22 698.473 -712.48
C 698.973 -712.58 699.41 -713 699.41 -713.55
C 699.41 -714.09 698.973 -714.25 698.672 -714.25
C 698.074 -714.25 697.578 -713.73 697.578 -713.1
C 697.578 -712.18 698.574 -711.78 699.449 -711.78
C 700.766 -711.78 701.484 -713.18 701.543 -713.3
C 701.781 -712.56 702.5 -711.78 703.695 -711.78
C 705.746 -711.78 706.883 -714.35 706.883 -714.85
C 706.883 -715.05 706.703 -715.05 706.645 -715.05
C 706.465 -715.05 706.426 -714.97 706.387 -714.83
C 705.727 -712.7 704.371 -712.22 703.734 -712.22
C 702.957 -712.22 702.641 -712.86 702.641 -713.54
C 702.641 -713.97 702.758 -714.41 702.977 -715.29
Z
"/>
<path d="
M 715.043 -722.54
L 714.57 -722.54
C 714.527 -722.23 714.387 -721.41 714.207 -721.27
C 714.094 -721.19 713.02 -721.19 712.824 -721.19
L 710.258 -721.19
C 711.723 -722.48 712.211 -722.88 713.051 -723.53
C 714.082 -724.35 715.043 -725.21 715.043 -726.54
C 715.043 -728.23 713.566 -729.26 711.781 -729.26
C 710.051 -729.26 708.879 -728.05 708.879 -726.77
C 708.879 -726.05 709.477 -725.98 709.617 -725.98
C 709.953 -725.98 710.355 -726.22 710.355 -726.72
C 710.355 -726.97 710.258 -727.46 709.535 -727.46
C 709.965 -728.45 710.914 -728.76 711.57 -728.76
C 712.965 -728.76 713.691 -727.67 713.691 -726.54
C 713.691 -725.33 712.824 -724.37 712.379 -723.86
L 709.02 -720.54
C 708.879 -720.42 708.879 -720.39 708.879 -720
L 714.625 -720
Z
"/>
<path d="
M 735.172 -716.58
C 735.449 -716.58 735.828 -716.58 735.828 -716.98
C 735.828 -717.38 735.449 -717.38 735.172 -717.38
L 724.312 -717.38
C 724.031 -717.38 723.652 -717.38 723.652 -716.98
C 723.652 -716.58 724.031 -716.58 724.312 -716.58
Z
"/>
<path d="
M 750.945 -715.47
L 750.449 -715.47
C 750.348 -714.87 750.211 -713.99 750.012 -713.7
C 749.871 -713.54 748.555 -713.54 748.117 -713.54
L 744.531 -713.54
L 746.645 -715.59
C 749.75 -718.34 750.945 -719.41 750.945 -721.41
C 750.945 -723.68 749.152 -725.27 746.723 -725.27
C 744.473 -725.27 742.996 -723.44 742.996 -721.66
C 742.996 -720.55 743.992 -720.55 744.051 -720.55
C 744.391 -720.55 745.09 -720.79 745.09 -721.61
C 745.09 -722.12 744.73 -722.64 744.031 -722.64
C 743.871 -722.64 743.832 -722.64 743.773 -722.62
C 744.23 -723.91 745.309 -724.65 746.465 -724.65
C 748.277 -724.65 749.133 -723.04 749.133 -721.41
C 749.133 -719.81 748.137 -718.24 747.043 -717
L 743.215 -712.74
C 742.996 -712.52 742.996 -712.48 742.996 -712
L 750.387 -712
Z
"/>
<path d="
M 758.656 -718.02
C 758.773 -718.54 759.234 -720.37 760.629 -720.37
C 760.727 -720.37 761.207 -720.37 761.625 -720.11
C 761.066 -720.01 760.668 -719.51 760.668 -719.04
C 760.668 -718.71 760.887 -718.34 761.426 -718.34
C 761.863 -718.34 762.5 -718.7 762.5 -719.49
C 762.5 -720.53 761.324 -720.81 760.648 -720.81
C 759.492 -720.81 758.793 -719.75 758.555 -719.29
C 758.059 -720.61 756.98 -720.81 756.402 -720.81
C 754.332 -720.81 753.195 -718.24 753.195 -717.74
C 753.195 -717.54 753.395 -717.54 753.434 -717.54
C 753.594 -717.54 753.652 -717.58 753.695 -717.76
C 754.371 -719.87 755.688 -720.37 756.363 -720.37
C 756.742 -720.37 757.441 -720.19 757.441 -719.04
C 757.441 -718.41 757.102 -717.08 756.363 -714.29
C 756.043 -713.05 755.348 -712.22 754.473 -712.22
C 754.352 -712.22 753.895 -712.22 753.473 -712.48
C 753.973 -712.58 754.41 -713 754.41 -713.55
C 754.41 -714.09 753.973 -714.25 753.672 -714.25
C 753.074 -714.25 752.578 -713.73 752.578 -713.1
C 752.578 -712.18 753.574 -711.78 754.449 -711.78
C 755.766 -711.78 756.484 -713.18 756.543 -713.3
C 756.781 -712.56 757.5 -711.78 758.695 -711.78
C 760.746 -711.78 761.883 -714.35 761.883 -714.85
C 761.883 -715.05 761.703 -715.05 761.645 -715.05
C 761.465 -715.05 761.426 -714.97 761.387 -714.83
C 760.727 -712.7 759.371 -712.22 758.734 -712.22
C 757.957 -712.22 757.641 -712.86 757.641 -713.54
C 757.641 -713.97 757.758 -714.41 757.977 -715.29
Z
"/>
<path d="
M 776.148 -716.58
L 781.707 -716.58
C 781.988 -716.58 782.367 -716.58 782.367 -716.98
C 782.367 -717.38 781.988 -717.38 781.707 -717.38
L 776.148 -717.38
L 776.148 -722.96
C 776.148 -723.24 776.148 -723.62 775.75 -723.62
C 775.352 -723.62 775.352 -723.24 775.352 -722.96
L 775.352 -717.38
L 769.773 -717.38
C 769.496 -717.38 769.117 -717.38 769.117 -716.98
C 769.117 -716.58 769.496 -716.58 769.773 -716.58
L 775.352 -716.58
L 775.352 -711
C 775.352 -710.73 775.352 -710.35 775.75 -710.35
C 776.148 -710.35 776.148 -710.73 776.148 -711
Z
"/>
<path d="
M 796.945 -715.47
L 796.449 -715.47
C 796.348 -714.87 796.211 -713.99 796.012 -713.7
C 795.871 -713.54 794.555 -713.54 794.117 -713.54
L 790.531 -713.54
L 792.645 -715.59
C 795.75 -718.34 796.945 -719.41 796.945 -721.41
C 796.945 -723.68 795.152 -725.27 792.723 -725.27
C 790.473 -725.27 788.996 -723.44 788.996 -721.66
C 788.996 -720.55 789.992 -720.55 790.051 -720.55
C 790.391 -720.55 791.09 -720.79 791.09 -721.61
C 791.09 -722.12 790.73 -722.64 790.031 -722.64
C 789.871 -722.64 789.832 -722.64 789.773 -722.62
C 790.23 -723.91 791.309 -724.65 792.465 -724.65
C 794.277 -724.65 795.133 -723.04 795.133 -721.41
C 795.133 -719.81 794.137 -718.24 793.043 -717
L 789.215 -712.74
C 788.996 -712.52 788.996 -712.48 788.996 -712
L 796.387 -712
Z
"/>
<path d="
M 810.148 -716.58
L 815.707 -716.58
C 815.988 -716.58 816.367 -716.58 816.367 -716.98
C 816.367 -717.38 815.988 -717.38 815.707 -717.38
L 810.148 -717.38
L 810.148 -722.96
C 810.148 -723.24 810.148 -723.62 809.75 -723.62
C 809.352 -723.62 809.352 -723.24 809.352 -722.96
L 809.352 -717.38
L 803.773 -717.38
C 803.496 -717.38 803.117 -717.38 803.117 -716.98
C 803.117 -716.58 803.496 -716.58 803.773 -716.58
L 809.352 -716.58
L 809.352 -711
C 809.352 -710.73 809.352 -710.35 809.75 -710.35
C 810.148 -710.35 810.148 -710.73 810.148 -711
Z
"/>
<path d="
M 832.945 -728.47
L 832.449 -728.47
C 832.348 -727.87 832.211 -726.99 832.012 -726.7
C 831.871 -726.54 830.555 -726.54 830.117 -726.54
L 826.531 -726.54
L 828.645 -728.59
C 831.75 -731.34 832.945 -732.41 832.945 -734.41
C 832.945 -736.68 831.152 -738.27 828.723 -738.27
C 826.473 -738.27 824.996 -736.44 824.996 -734.66
C 824.996 -733.55 825.992 -733.55 826.051 -733.55
C 826.391 -733.55 827.09 -733.79 827.09 -734.61
C 827.09 -735.12 826.73 -735.64 826.031 -735.64
C 825.871 -735.64 825.832 -735.64 825.773 -735.62
C 826.23 -736.91 827.309 -737.65 828.465 -737.65
C 830.277 -737.65 831.133 -736.04 831.133 -734.41
C 831.133 -732.81 830.137 -731.24 829.043 -730
L 825.215 -725.74
C 824.996 -725.52 824.996 -725.48 824.996 -725
L 832.387 -725
Z
"/>
<path d="
M 840.656 -731.02
C 840.773 -731.54 841.234 -733.37 842.629 -733.37
C 842.727 -733.37 843.207 -733.37 843.625 -733.11
C 843.066 -733.01 842.668 -732.51 842.668 -732.04
C 842.668 -731.71 842.887 -731.34 843.426 -731.34
C 843.863 -731.34 844.5 -731.7 844.5 -732.49
C 844.5 -733.53 843.324 -733.81 842.648 -733.81
C 841.492 -733.81 840.793 -732.75 840.555 -732.29
C 840.059 -733.61 838.98 -733.81 838.402 -733.81
C 836.332 -733.81 835.195 -731.24 835.195 -730.74
C 835.195 -730.54 835.395 -730.54 835.434 -730.54
C 835.594 -730.54 835.652 -730.58 835.695 -730.76
C 836.371 -732.87 837.688 -733.37 838.363 -733.37
C 838.742 -733.37 839.441 -733.19 839.441 -732.04
C 839.441 -731.41 839.102 -730.08 838.363 -727.29
C 838.043 -726.05 837.348 -725.22 836.473 -725.22
C 836.352 -725.22 835.895 -725.22 835.473 -725.48
C 835.973 -725.58 836.41 -726 836.41 -726.55
C 836.41 -727.09 835.973 -727.25 835.672 -727.25
C 835.074 -727.25 834.578 -726.73 834.578 -726.1
C 834.578 -725.18 835.574 -724.78 836.449 -724.78
C 837.766 -724.78 838.484 -726.18 838.543 -726.3
C 838.781 -725.56 839.5 -724.78 840.695 -724.78
C 842.746 -724.78 843.883 -727.35 843.883 -727.85
C 843.883 -728.05 843.703 -728.05 843.645 -728.05
C 843.465 -728.05 843.426 -727.97 843.387 -727.83
C 842.727 -725.7 841.371 -725.22 840.734 -725.22
C 839.957 -725.22 839.641 -725.86 839.641 -726.54
C 839.641 -726.97 839.758 -727.41 839.977 -728.29
Z
"/>
<path d="
M 863.172 -729.58
C 863.449 -729.58 863.828 -729.58 863.828 -729.98
C 863.828 -730.38 863.449 -730.38 863.172 -730.38
L 852.312 -730.38
C 852.031 -730.38 851.652 -730.38 851.652 -729.98
C 851.652 -729.58 852.031 -729.58 852.312 -729.58
Z
"/>
<path d="
M 875.777 -732.02
C 877.414 -732.55 878.566 -733.95 878.566 -735.52
C 878.566 -737.16 876.812 -738.27 874.902 -738.27
C 872.891 -738.27 871.375 -737.07 871.375 -735.56
C 871.375 -734.9 871.812 -734.52 872.391 -734.52
C 873.008 -734.52 873.406 -734.96 873.406 -735.54
C 873.406 -736.54 872.473 -736.54 872.172 -736.54
C 872.789 -737.51 874.105 -737.77 874.82 -737.77
C 875.641 -737.77 876.734 -737.33 876.734 -735.54
C 876.734 -735.3 876.695 -734.14 876.176 -733.27
C 875.578 -732.31 874.902 -732.25 874.402 -732.23
C 874.242 -732.21 873.766 -732.17 873.625 -732.17
C 873.469 -732.15 873.328 -732.13 873.328 -731.93
C 873.328 -731.71 873.469 -731.71 873.805 -731.71
L 874.684 -731.71
C 876.316 -731.71 877.055 -730.36 877.055 -728.41
C 877.055 -725.7 875.68 -725.12 874.801 -725.12
C 873.945 -725.12 872.449 -725.46 871.754 -726.63
C 872.449 -726.54 873.07 -726.97 873.07 -727.73
C 873.07 -728.45 872.531 -728.84 871.953 -728.84
C 871.473 -728.84 870.836 -728.57 870.836 -727.69
C 870.836 -725.88 872.691 -724.56 874.863 -724.56
C 877.293 -724.56 879.105 -726.38 879.105 -728.41
C 879.105 -730.04 877.852 -731.59 875.777 -732.02
Z
"/>
<path d="
M 824 -716
L 879.68 -716
L 879.68 -716.96
L 824 -716.96
Z
"/>
<path d="
M 831.656 -704.02
C 831.773 -704.54 832.234 -706.37 833.629 -706.37
C 833.727 -706.37 834.207 -706.37 834.625 -706.11
C 834.066 -706.01 833.668 -705.51 833.668 -705.04
C 833.668 -704.71 833.887 -704.34 834.426 -704.34
C 834.863 -704.34 835.5 -704.7 835.5 -705.49
C 835.5 -706.53 834.324 -706.81 833.648 -706.81
C 832.492 -706.81 831.793 -705.75 831.555 -705.29
C 831.059 -706.61 829.98 -706.81 829.402 -706.81
C 827.332 -706.81 826.195 -704.24 826.195 -703.74
C 826.195 -703.54 826.395 -703.54 826.434 -703.54
C 826.594 -703.54 826.652 -703.58 826.695 -703.76
C 827.371 -705.87 828.688 -706.37 829.363 -706.37
C 829.742 -706.37 830.441 -706.19 830.441 -705.04
C 830.441 -704.41 830.102 -703.08 829.363 -700.29
C 829.043 -699.05 828.348 -698.22 827.473 -698.22
C 827.352 -698.22 826.895 -698.22 826.473 -698.48
C 826.973 -698.58 827.41 -699 827.41 -699.55
C 827.41 -700.09 826.973 -700.25 826.672 -700.25
C 826.074 -700.25 825.578 -699.73 825.578 -699.1
C 825.578 -698.18 826.574 -697.78 827.449 -697.78
C 828.766 -697.78 829.484 -699.18 829.543 -699.3
C 829.781 -698.56 830.5 -697.78 831.695 -697.78
C 833.746 -697.78 834.883 -700.35 834.883 -700.85
C 834.883 -701.05 834.703 -701.05 834.645 -701.05
C 834.465 -701.05 834.426 -700.97 834.387 -700.83
C 833.727 -698.7 832.371 -698.22 831.734 -698.22
C 830.957 -698.22 830.641 -698.86 830.641 -699.54
C 830.641 -699.97 830.758 -700.41 830.977 -701.29
Z
"/>
<path d="
M 843.043 -706.54
L 842.57 -706.54
C 842.527 -706.23 842.387 -705.41 842.207 -705.27
C 842.094 -705.19 841.02 -705.19 840.824 -705.19
L 838.258 -705.19
C 839.723 -706.48 840.211 -706.88 841.051 -707.53
C 842.082 -708.35 843.043 -709.21 843.043 -710.54
C 843.043 -712.23 841.566 -713.26 839.781 -713.26
C 838.051 -713.26 836.879 -712.05 836.879 -710.77
C 836.879 -710.05 837.477 -709.98 837.617 -709.98
C 837.953 -709.98 838.355 -710.22 838.355 -710.72
C 838.355 -710.97 838.258 -711.46 837.535 -711.46
C 837.965 -712.45 838.914 -712.76 839.57 -712.76
C 840.965 -712.76 841.691 -711.67 841.691 -710.54
C 841.691 -709.33 840.824 -708.37 840.379 -707.86
L 837.02 -704.54
C 836.879 -704.42 836.879 -704.39 836.879 -704
L 842.625 -704
Z
"/>
<path d="
M 858.148 -702.58
L 863.707 -702.58
C 863.988 -702.58 864.367 -702.58 864.367 -702.98
C 864.367 -703.38 863.988 -703.38 863.707 -703.38
L 858.148 -703.38
L 858.148 -708.96
C 858.148 -709.24 858.148 -709.62 857.75 -709.62
C 857.352 -709.62 857.352 -709.24 857.352 -708.96
L 857.352 -703.38
L 851.773 -703.38
C 851.496 -703.38 851.117 -703.38 851.117 -702.98
C 851.117 -702.58 851.496 -702.58 851.773 -702.58
L 857.352 -702.58
L 857.352 -697
C 857.352 -696.73 857.352 -696.35 857.75 -696.35
C 858.148 -696.35 858.148 -696.73 858.148 -697
Z
"/>
<path d="
M 875.859 -710.75
C 875.859 -711.23 875.859 -711.27 875.398 -711.27
C 874.164 -710 872.41 -710 871.773 -710
L 871.773 -709.38
C 872.172 -709.38 873.348 -709.38 874.383 -709.89
L 874.383 -699.57
C 874.383 -698.86 874.324 -698.62 872.531 -698.62
L 871.895 -698.62
L 871.895 -698
C 872.59 -698.06 874.324 -698.06 875.121 -698.06
C 875.918 -698.06 877.652 -698.06 878.348 -698
L 878.348 -698.62
L 877.711 -698.62
C 875.918 -698.62 875.859 -698.84 875.859 -699.57
Z
"/>
<path d="
M 247.172 -682.58
C 247.449 -682.58 247.828 -682.58 247.828 -682.98
C 247.828 -683.38 247.449 -683.38 247.172 -683.38
L 236.312 -683.38
C 236.031 -683.38 235.652 -683.38 235.652 -682.98
C 235.652 -682.58 236.031 -682.58 236.312 -682.58
Z
"/>
<path d="
M 256.594 -673.22
C 256.594 -673.28 256.594 -673.32 256.258 -673.66
C 253.766 -676.17 253.129 -679.93 253.129 -682.98
C 253.129 -686.45 253.887 -689.91 256.336 -692.41
C 256.594 -692.64 256.594 -692.68 256.594 -692.75
C 256.594 -692.88 256.516 -692.95 256.395 -692.95
C 256.195 -692.95 254.402 -691.59 253.227 -689.06
C 252.211 -686.87 251.973 -684.66 251.973 -682.98
C 251.973 -681.43 252.191 -679.02 253.289 -676.77
C 254.484 -674.31 256.195 -673.02 256.395 -673.02
C 256.516 -673.02 256.594 -673.08 256.594 -673.22
Z
M 257.559 -681.29
L 262.859 -681.29
L 262.859 -679.55
C 262.859 -678.84 262.816 -678.62 261.344 -678.62
L 260.926 -678.62
L 260.926 -678
C 261.742 -678.06 262.777 -678.06 263.613 -678.06
C 264.453 -678.06 265.508 -678.06 266.324 -678
L 266.324 -678.62
L 265.906 -678.62
C 264.434 -678.62 264.391 -678.84 264.391 -679.55
L 264.391 -681.29
L 266.387 -681.29
L 266.387 -681.91
L 264.391 -681.91
L 264.391 -690.97
C 264.391 -691.37 264.391 -691.49 264.074 -691.49
C 263.895 -691.49 263.836 -691.49 263.676 -691.25
L 257.559 -681.91
Z
M 262.977 -681.91
L 258.117 -681.91
L 262.977 -689.34
Z
"/>
<path d="
M 273.656 -684.02
C 273.773 -684.54 274.234 -686.37 275.629 -686.37
C 275.727 -686.37 276.207 -686.37 276.625 -686.11
C 276.066 -686.01 275.668 -685.51 275.668 -685.04
C 275.668 -684.71 275.887 -684.34 276.426 -684.34
C 276.863 -684.34 277.5 -684.7 277.5 -685.49
C 277.5 -686.53 276.324 -686.81 275.648 -686.81
C 274.492 -686.81 273.793 -685.75 273.555 -685.29
C 273.059 -686.61 271.98 -686.81 271.402 -686.81
C 269.332 -686.81 268.195 -684.24 268.195 -683.74
C 268.195 -683.54 268.395 -683.54 268.434 -683.54
C 268.594 -683.54 268.652 -683.58 268.695 -683.76
C 269.371 -685.87 270.688 -686.37 271.363 -686.37
C 271.742 -686.37 272.441 -686.19 272.441 -685.04
C 272.441 -684.41 272.102 -683.08 271.363 -680.29
C 271.043 -679.05 270.348 -678.22 269.473 -678.22
C 269.352 -678.22 268.895 -678.22 268.473 -678.48
C 268.973 -678.58 269.41 -679 269.41 -679.55
C 269.41 -680.09 268.973 -680.25 268.672 -680.25
C 268.074 -680.25 267.578 -679.73 267.578 -679.1
C 267.578 -678.18 268.574 -677.78 269.449 -677.78
C 270.766 -677.78 271.484 -679.18 271.543 -679.3
C 271.781 -678.56 272.5 -677.78 273.695 -677.78
C 275.746 -677.78 276.883 -680.35 276.883 -680.85
C 276.883 -681.05 276.703 -681.05 276.645 -681.05
C 276.465 -681.05 276.426 -680.97 276.387 -680.83
C 275.727 -678.7 274.371 -678.22 273.734 -678.22
C 272.957 -678.22 272.641 -678.86 272.641 -679.54
C 272.641 -679.97 272.758 -680.41 272.977 -681.29
Z
"/>
<path d="
M 281.16 -692.78
C 281.875 -692.6 282.293 -692.6 282.516 -692.6
C 284.355 -692.6 285.445 -693.86 285.445 -694.07
C 285.445 -694.22 285.348 -694.26 285.277 -694.26
C 285.25 -694.26 285.219 -694.26 285.164 -694.22
C 284.832 -694.09 284.09 -693.82 283.059 -693.82
C 282.668 -693.82 281.93 -693.84 281.023 -694.19
C 280.883 -694.26 280.855 -694.26 280.84 -694.26
C 280.66 -694.26 280.66 -694.11 280.66 -693.88
L 280.66 -689.77
C 280.66 -689.53 280.66 -689.37 280.883 -689.37
C 281.008 -689.37 281.023 -689.39 281.16 -689.56
C 281.762 -690.33 282.613 -690.44 283.102 -690.44
C 283.938 -690.44 284.312 -689.77 284.383 -689.66
C 284.637 -689.2 284.719 -688.67 284.719 -687.86
C 284.719 -687.44 284.719 -686.62 284.301 -686
C 283.953 -685.5 283.352 -685.17 282.668 -685.17
C 281.762 -685.17 280.828 -685.67 280.477 -686.59
C 281.008 -686.55 281.273 -686.9 281.273 -687.27
C 281.273 -687.88 280.758 -687.98 280.574 -687.98
C 280.547 -687.98 279.879 -687.98 279.879 -687.23
C 279.879 -685.98 281.023 -684.72 282.695 -684.72
C 284.48 -684.72 286.043 -686.05 286.043 -687.8
C 286.043 -689.38 284.844 -690.83 283.113 -690.83
C 282.5 -690.83 281.777 -690.68 281.16 -690.15
Z
"/>
<path d="
M 250 -667
L 288.156 -667
L 288.156 -667.96
L 250 -667.96
Z
"/>
<path d="
M 287.996 -667
L 332.875 -667
L 332.875 -667.96
L 287.996 -667.96
Z
"/>
<path d="
M 345.148 -682.58
L 350.707 -682.58
C 350.988 -682.58 351.367 -682.58 351.367 -682.98
C 351.367 -683.38 350.988 -683.38 350.707 -683.38
L 345.148 -683.38
L 345.148 -688.96
C 345.148 -689.24 345.148 -689.62 344.75 -689.62
C 344.352 -689.62 344.352 -689.24 344.352 -688.96
L 344.352 -683.38
L 338.773 -683.38
C 338.496 -683.38 338.117 -683.38 338.117 -682.98
C 338.117 -682.58 338.496 -682.58 338.773 -682.58
L 344.352 -682.58
L 344.352 -677
C 344.352 -676.73 344.352 -676.35 344.75 -676.35
C 345.148 -676.35 345.148 -676.73 345.148 -677
Z
"/>
<path d="
M 357.559 -681.29
L 362.859 -681.29
L 362.859 -679.55
C 362.859 -678.84 362.816 -678.62 361.344 -678.62
L 360.926 -678.62
L 360.926 -678
C 361.742 -678.06 362.777 -678.06 363.613 -678.06
C 364.453 -678.06 365.508 -678.06 366.324 -678
L 366.324 -678.62
L 365.906 -678.62
C 364.434 -678.62 364.391 -678.84 364.391 -679.55
L 364.391 -681.29
L 366.387 -681.29
L 366.387 -681.91
L 364.391 -681.91
L 364.391 -690.97
C 364.391 -691.37 364.391 -691.49 364.074 -691.49
C 363.895 -691.49 363.836 -691.49 363.676 -691.25
L 357.559 -681.91
Z
M 362.977 -681.91
L 358.117 -681.91
L 362.977 -689.34
Z
"/>
<path d="
M 373.656 -684.02
C 373.773 -684.54 374.234 -686.37 375.629 -686.37
C 375.727 -686.37 376.207 -686.37 376.625 -686.11
C 376.066 -686.01 375.668 -685.51 375.668 -685.04
C 375.668 -684.71 375.887 -684.34 376.426 -684.34
C 376.863 -684.34 377.5 -684.7 377.5 -685.49
C 377.5 -686.53 376.324 -686.81 375.648 -686.81
C 374.492 -686.81 373.793 -685.75 373.555 -685.29
C 373.059 -686.61 371.98 -686.81 371.402 -686.81
C 369.332 -686.81 368.195 -684.24 368.195 -683.74
C 368.195 -683.54 368.395 -683.54 368.434 -683.54
C 368.594 -683.54 368.652 -683.58 368.695 -683.76
C 369.371 -685.87 370.688 -686.37 371.363 -686.37
C 371.742 -686.37 372.441 -686.19 372.441 -685.04
C 372.441 -684.41 372.102 -683.08 371.363 -680.29
C 371.043 -679.05 370.348 -678.22 369.473 -678.22
C 369.352 -678.22 368.895 -678.22 368.473 -678.48
C 368.973 -678.58 369.41 -679 369.41 -679.55
C 369.41 -680.09 368.973 -680.25 368.672 -680.25
C 368.074 -680.25 367.578 -679.73 367.578 -679.1
C 367.578 -678.18 368.574 -677.78 369.449 -677.78
C 370.766 -677.78 371.484 -679.18 371.543 -679.3
C 371.781 -678.56 372.5 -677.78 373.695 -677.78
C 375.746 -677.78 376.883 -680.35 376.883 -680.85
C 376.883 -681.05 376.703 -681.05 376.645 -681.05
C 376.465 -681.05 376.426 -680.97 376.387 -680.83
C 375.727 -678.7 374.371 -678.22 373.734 -678.22
C 372.957 -678.22 372.641 -678.86 372.641 -679.54
C 372.641 -679.97 372.758 -680.41 372.977 -681.29
Z
"/>
<path d="
M 381.809 -689.66
C 382.895 -689.66 383.676 -688.91 383.676 -687.41
C 383.676 -685.68 382.672 -685.17 381.863 -685.17
C 381.305 -685.17 380.078 -685.32 379.492 -686.14
C 380.148 -686.17 380.301 -686.63 380.301 -686.93
C 380.301 -687.37 379.965 -687.69 379.535 -687.69
C 379.145 -687.69 378.754 -687.45 378.754 -686.88
C 378.754 -685.57 380.203 -684.72 381.891 -684.72
C 383.832 -684.72 385.168 -686.02 385.168 -687.41
C 385.168 -688.5 384.277 -689.59 382.742 -689.91
C 384.207 -690.44 384.738 -691.48 384.738 -692.34
C 384.738 -693.44 383.469 -694.26 381.918 -694.26
C 380.371 -694.26 379.188 -693.51 379.188 -692.39
C 379.188 -691.92 379.492 -691.65 379.91 -691.65
C 380.344 -691.65 380.621 -691.97 380.621 -692.36
C 380.621 -692.77 380.344 -693.06 379.91 -693.09
C 380.398 -693.7 381.363 -693.86 381.879 -693.86
C 382.504 -693.86 383.383 -693.55 383.383 -692.34
C 383.383 -691.75 383.188 -691.11 382.824 -690.68
C 382.367 -690.15 381.977 -690.12 381.277 -690.08
C 380.93 -690.05 380.902 -690.05 380.832 -690.04
C 380.805 -690.04 380.691 -690.01 380.691 -689.86
C 380.691 -689.66 380.816 -689.66 381.055 -689.66
Z
"/>
<path d="
M 332 -667
L 386.719 -667
L 386.719 -667.96
L 332 -667.96
Z
"/>
<path d="
M 392.758 -682.98
C 392.758 -684.54 392.539 -686.95 391.441 -689.2
C 390.246 -691.65 388.535 -692.95 388.336 -692.95
C 388.215 -692.95 388.137 -692.86 388.137 -692.75
C 388.137 -692.68 388.137 -692.64 388.516 -692.29
C 390.469 -690.31 391.602 -687.14 391.602 -682.98
C 391.602 -679.57 390.867 -676.07 388.395 -673.56
C 388.137 -673.32 388.137 -673.28 388.137 -673.22
C 388.137 -673.1 388.215 -673.02 388.336 -673.02
C 388.535 -673.02 390.328 -674.38 391.504 -676.9
C 392.52 -679.1 392.758 -681.31 392.758 -682.98
Z
"/>
<path d="
M 386.996 -667
L 394.914 -667
L 394.914 -667.96
L 386.996 -667.96
Z
"/>
<path d="
M 309.172 -652.58
C 309.449 -652.58 309.828 -652.58 309.828 -652.98
C 309.828 -653.38 309.449 -653.38 309.172 -653.38
L 298.312 -653.38
C 298.031 -653.38 297.652 -653.38 297.652 -652.98
C 297.652 -652.58 298.031 -652.58 298.312 -652.58
Z
"/>
<path d="
M 318.656 -654.02
C 318.773 -654.54 319.234 -656.37 320.629 -656.37
C 320.727 -656.37 321.207 -656.37 321.625 -656.11
C 321.066 -656.01 320.668 -655.51 320.668 -655.04
C 320.668 -654.71 320.887 -654.34 321.426 -654.34
C 321.863 -654.34 322.5 -654.7 322.5 -655.49
C 322.5 -656.53 321.324 -656.81 320.648 -656.81
C 319.492 -656.81 318.793 -655.75 318.555 -655.29
C 318.059 -656.61 316.98 -656.81 316.402 -656.81
C 314.332 -656.81 313.195 -654.24 313.195 -653.74
C 313.195 -653.54 313.395 -653.54 313.434 -653.54
C 313.594 -653.54 313.652 -653.58 313.695 -653.76
C 314.371 -655.87 315.688 -656.37 316.363 -656.37
C 316.742 -656.37 317.441 -656.19 317.441 -655.04
C 317.441 -654.41 317.102 -653.08 316.363 -650.29
C 316.043 -649.05 315.348 -648.22 314.473 -648.22
C 314.352 -648.22 313.895 -648.22 313.473 -648.48
C 313.973 -648.58 314.41 -649 314.41 -649.55
C 314.41 -650.09 313.973 -650.25 313.672 -650.25
C 313.074 -650.25 312.578 -649.73 312.578 -649.1
C 312.578 -648.18 313.574 -647.78 314.449 -647.78
C 315.766 -647.78 316.484 -649.18 316.543 -649.3
C 316.781 -648.56 317.5 -647.78 318.695 -647.78
C 320.746 -647.78 321.883 -650.35 321.883 -650.85
C 321.883 -651.05 321.703 -651.05 321.645 -651.05
C 321.465 -651.05 321.426 -650.97 321.387 -650.83
C 320.727 -648.7 319.371 -648.22 318.734 -648.22
C 317.957 -648.22 317.641 -648.86 317.641 -649.54
C 317.641 -649.97 317.758 -650.41 317.977 -651.29
Z
"/>
<path d="
M 330.379 -657.29
L 330.379 -657.79
L 328.832 -657.79
L 328.832 -664.01
C 328.832 -664.3 328.832 -664.4 328.523 -664.4
C 328.355 -664.4 328.301 -664.4 328.16 -664.21
L 323.543 -657.79
L 323.543 -657.29
L 327.645 -657.29
L 327.645 -656.14
C 327.645 -655.67 327.645 -655.5 326.516 -655.5
L 326.137 -655.5
L 326.137 -655
C 326.836 -655.03 327.727 -655.05 328.23 -655.05
C 328.746 -655.05 329.641 -655.03 330.336 -655
L 330.336 -655.5
L 329.961 -655.5
C 328.832 -655.5 328.832 -655.67 328.832 -656.14
L 328.832 -657.29
Z
M 327.742 -662.89
L 327.742 -657.79
L 324.059 -657.79
Z
"/>
<path d="
M 350.172 -652.58
C 350.449 -652.58 350.828 -652.58 350.828 -652.98
C 350.828 -653.38 350.449 -653.38 350.172 -653.38
L 339.312 -653.38
C 339.031 -653.38 338.652 -653.38 338.652 -652.98
C 338.652 -652.58 339.031 -652.58 339.312 -652.58
Z
"/>
<path d="
M 365.945 -651.47
L 365.449 -651.47
C 365.348 -650.87 365.211 -649.99 365.012 -649.7
C 364.871 -649.54 363.555 -649.54 363.117 -649.54
L 359.531 -649.54
L 361.645 -651.59
C 364.75 -654.34 365.945 -655.41 365.945 -657.41
C 365.945 -659.68 364.152 -661.27 361.723 -661.27
C 359.473 -661.27 357.996 -659.44 357.996 -657.66
C 357.996 -656.55 358.992 -656.55 359.051 -656.55
C 359.391 -656.55 360.09 -656.79 360.09 -657.61
C 360.09 -658.12 359.73 -658.64 359.031 -658.64
C 358.871 -658.64 358.832 -658.64 358.773 -658.62
C 359.23 -659.91 360.309 -660.65 361.465 -660.65
C 363.277 -660.65 364.133 -659.04 364.133 -657.41
C 364.133 -655.81 363.137 -654.24 362.043 -653
L 358.215 -648.74
C 357.996 -648.52 357.996 -648.48 357.996 -648
L 365.387 -648
Z
"/>
<path d="
M 373.656 -654.02
C 373.773 -654.54 374.234 -656.37 375.629 -656.37
C 375.727 -656.37 376.207 -656.37 376.625 -656.11
C 376.066 -656.01 375.668 -655.51 375.668 -655.04
C 375.668 -654.71 375.887 -654.34 376.426 -654.34
C 376.863 -654.34 377.5 -654.7 377.5 -655.49
C 377.5 -656.53 376.324 -656.81 375.648 -656.81
C 374.492 -656.81 373.793 -655.75 373.555 -655.29
C 373.059 -656.61 371.98 -656.81 371.402 -656.81
C 369.332 -656.81 368.195 -654.24 368.195 -653.74
C 368.195 -653.54 368.395 -653.54 368.434 -653.54
C 368.594 -653.54 368.652 -653.58 368.695 -653.76
C 369.371 -655.87 370.688 -656.37 371.363 -656.37
C 371.742 -656.37 372.441 -656.19 372.441 -655.04
C 372.441 -654.41 372.102 -653.08 371.363 -650.29
C 371.043 -649.05 370.348 -648.22 369.473 -648.22
C 369.352 -648.22 368.895 -648.22 368.473 -648.48
C 368.973 -648.58 369.41 -649 369.41 -649.55
C 369.41 -650.09 368.973 -650.25 368.672 -650.25
C 368.074 -650.25 367.578 -649.73 367.578 -649.1
C 367.578 -648.18 368.574 -647.78 369.449 -647.78
C 370.766 -647.78 371.484 -649.18 371.543 -649.3
C 371.781 -648.56 372.5 -647.78 373.695 -647.78
C 375.746 -647.78 376.883 -650.35 376.883 -650.85
C 376.883 -651.05 376.703 -651.05 376.645 -651.05
C 376.465 -651.05 376.426 -650.97 376.387 -650.83
C 375.727 -648.7 374.371 -648.22 373.734 -648.22
C 372.957 -648.22 372.641 -648.86 372.641 -649.54
C 372.641 -649.97 372.758 -650.41 372.977 -651.29
Z
"/>
<path d="
M 381.809 -659.66
C 382.895 -659.66 383.676 -658.91 383.676 -657.41
C 383.676 -655.68 382.672 -655.17 381.863 -655.17
C 381.305 -655.17 380.078 -655.32 379.492 -656.14
C 380.148 -656.17 380.301 -656.63 380.301 -656.93
C 380.301 -657.37 379.965 -657.69 379.535 -657.69
C 379.145 -657.69 378.754 -657.45 378.754 -656.88
C 378.754 -655.57 380.203 -654.72 381.891 -654.72
C 383.832 -654.72 385.168 -656.02 385.168 -657.41
C 385.168 -658.5 384.277 -659.59 382.742 -659.91
C 384.207 -660.44 384.738 -661.48 384.738 -662.34
C 384.738 -663.44 383.469 -664.26 381.918 -664.26
C 380.371 -664.26 379.188 -663.51 379.188 -662.39
C 379.188 -661.92 379.492 -661.65 379.91 -661.65
C 380.344 -661.65 380.621 -661.97 380.621 -662.36
C 380.621 -662.77 380.344 -663.06 379.91 -663.09
C 380.398 -663.7 381.363 -663.86 381.879 -663.86
C 382.504 -663.86 383.383 -663.55 383.383 -662.34
C 383.383 -661.75 383.188 -661.11 382.824 -660.68
C 382.367 -660.15 381.977 -660.12 381.277 -660.08
C 380.93 -660.05 380.902 -660.05 380.832 -660.04
C 380.805 -660.04 380.691 -660.01 380.691 -659.86
C 380.691 -659.66 380.816 -659.66 381.055 -659.66
Z
"/>
<path d="
M 286.172 -628.58
C 286.449 -628.58 286.828 -628.58 286.828 -628.98
C 286.828 -629.38 286.449 -629.38 286.172 -629.38
L 275.312 -629.38
C 275.031 -629.38 274.652 -629.38 274.652 -628.98
C 274.652 -628.58 275.031 -628.58 275.312 -628.58
Z
"/>
<path d="
M 295.594 -619.22
C 295.594 -619.28 295.594 -619.32 295.258 -619.66
C 292.766 -622.17 292.129 -625.93 292.129 -628.98
C 292.129 -632.45 292.887 -635.91 295.336 -638.41
C 295.594 -638.64 295.594 -638.68 295.594 -638.75
C 295.594 -638.88 295.516 -638.95 295.395 -638.95
C 295.195 -638.95 293.402 -637.59 292.227 -635.06
C 291.211 -632.87 290.973 -630.66 290.973 -628.98
C 290.973 -627.43 291.191 -625.02 292.289 -622.77
C 293.484 -620.31 295.195 -619.02 295.395 -619.02
C 295.516 -619.02 295.594 -619.08 295.594 -619.22
Z
"/>
<path d="
M 309.172 -628.58
C 309.449 -628.58 309.828 -628.58 309.828 -628.98
C 309.828 -629.38 309.449 -629.38 309.172 -629.38
L 298.312 -629.38
C 298.031 -629.38 297.652 -629.38 297.652 -628.98
C 297.652 -628.58 298.031 -628.58 298.312 -628.58
Z
"/>
<path d="
M 318.656 -630.02
C 318.773 -630.54 319.234 -632.37 320.629 -632.37
C 320.727 -632.37 321.207 -632.37 321.625 -632.11
C 321.066 -632.01 320.668 -631.51 320.668 -631.04
C 320.668 -630.71 320.887 -630.34 321.426 -630.34
C 321.863 -630.34 322.5 -630.7 322.5 -631.49
C 322.5 -632.53 321.324 -632.81 320.648 -632.81
C 319.492 -632.81 318.793 -631.75 318.555 -631.29
C 318.059 -632.61 316.98 -632.81 316.402 -632.81
C 314.332 -632.81 313.195 -630.24 313.195 -629.74
C 313.195 -629.54 313.395 -629.54 313.434 -629.54
C 313.594 -629.54 313.652 -629.58 313.695 -629.76
C 314.371 -631.87 315.688 -632.37 316.363 -632.37
C 316.742 -632.37 317.441 -632.19 317.441 -631.04
C 317.441 -630.41 317.102 -629.08 316.363 -626.29
C 316.043 -625.05 315.348 -624.22 314.473 -624.22
C 314.352 -624.22 313.895 -624.22 313.473 -624.48
C 313.973 -624.58 314.41 -625 314.41 -625.55
C 314.41 -626.09 313.973 -626.25 313.672 -626.25
C 313.074 -626.25 312.578 -625.73 312.578 -625.1
C 312.578 -624.18 313.574 -623.78 314.449 -623.78
C 315.766 -623.78 316.484 -625.18 316.543 -625.3
C 316.781 -624.56 317.5 -623.78 318.695 -623.78
C 320.746 -623.78 321.883 -626.35 321.883 -626.85
C 321.883 -627.05 321.703 -627.05 321.645 -627.05
C 321.465 -627.05 321.426 -626.97 321.387 -626.83
C 320.727 -624.7 319.371 -624.22 318.734 -624.22
C 317.957 -624.22 317.641 -624.86 317.641 -625.54
C 317.641 -625.97 317.758 -626.41 317.977 -627.29
Z
"/>
<path d="
M 330.379 -633.29
L 330.379 -633.79
L 328.832 -633.79
L 328.832 -640.01
C 328.832 -640.3 328.832 -640.4 328.523 -640.4
C 328.355 -640.4 328.301 -640.4 328.16 -640.21
L 323.543 -633.79
L 323.543 -633.29
L 327.645 -633.29
L 327.645 -632.14
C 327.645 -631.67 327.645 -631.5 326.516 -631.5
L 326.137 -631.5
L 326.137 -631
C 326.836 -631.03 327.727 -631.05 328.23 -631.05
C 328.746 -631.05 329.641 -631.03 330.336 -631
L 330.336 -631.5
L 329.961 -631.5
C 328.832 -631.5 328.832 -631.67 328.832 -632.14
L 328.832 -633.29
Z
M 327.742 -638.89
L 327.742 -633.79
L 324.059 -633.79
Z
"/>
<path d="
M 288.996 -613
L 332.676 -613
L 332.676 -613.96
L 288.996 -613.96
Z
"/>
<path d="
M 332 -613
L 386.719 -613
L 386.719 -613.96
L 332 -613.96
Z
"/>
<path d="
M 414.172 -628.58
C 414.449 -628.58 414.828 -628.58 414.828 -628.98
C 414.828 -629.38 414.449 -629.38 414.172 -629.38
L 403.312 -629.38
C 403.031 -629.38 402.652 -629.38 402.652 -628.98
C 402.652 -628.58 403.031 -628.58 403.312 -628.58
Z
"/>
<path d="
M 427.656 -630.02
C 427.773 -630.54 428.234 -632.37 429.629 -632.37
C 429.727 -632.37 430.207 -632.37 430.625 -632.11
C 430.066 -632.01 429.668 -631.51 429.668 -631.04
C 429.668 -630.71 429.887 -630.34 430.426 -630.34
C 430.863 -630.34 431.5 -630.7 431.5 -631.49
C 431.5 -632.53 430.324 -632.81 429.648 -632.81
C 428.492 -632.81 427.793 -631.75 427.555 -631.29
C 427.059 -632.61 425.98 -632.81 425.402 -632.81
C 423.332 -632.81 422.195 -630.24 422.195 -629.74
C 422.195 -629.54 422.395 -629.54 422.434 -629.54
C 422.594 -629.54 422.652 -629.58 422.695 -629.76
C 423.371 -631.87 424.688 -632.37 425.363 -632.37
C 425.742 -632.37 426.441 -632.19 426.441 -631.04
C 426.441 -630.41 426.102 -629.08 425.363 -626.29
C 425.043 -625.05 424.348 -624.22 423.473 -624.22
C 423.352 -624.22 422.895 -624.22 422.473 -624.48
C 422.973 -624.58 423.41 -625 423.41 -625.55
C 423.41 -626.09 422.973 -626.25 422.672 -626.25
C 422.074 -626.25 421.578 -625.73 421.578 -625.1
C 421.578 -624.18 422.574 -623.78 423.449 -623.78
C 424.766 -623.78 425.484 -625.18 425.543 -625.3
C 425.781 -624.56 426.5 -623.78 427.695 -623.78
C 429.746 -623.78 430.883 -626.35 430.883 -626.85
C 430.883 -627.05 430.703 -627.05 430.645 -627.05
C 430.465 -627.05 430.426 -626.97 430.387 -626.83
C 429.727 -624.7 428.371 -624.22 427.734 -624.22
C 426.957 -624.22 426.641 -624.86 426.641 -625.54
C 426.641 -625.97 426.758 -626.41 426.977 -627.29
Z
"/>
<path d="
M 439.043 -633.54
L 438.57 -633.54
C 438.527 -633.23 438.387 -632.41 438.207 -632.27
C 438.094 -632.19 437.02 -632.19 436.824 -632.19
L 434.258 -632.19
C 435.723 -633.48 436.211 -633.88 437.051 -634.53
C 438.082 -635.35 439.043 -636.21 439.043 -637.54
C 439.043 -639.23 437.566 -640.26 435.781 -640.26
C 434.051 -640.26 432.879 -639.05 432.879 -637.77
C 432.879 -637.05 433.477 -636.98 433.617 -636.98
C 433.953 -636.98 434.355 -637.22 434.355 -637.72
C 434.355 -637.97 434.258 -638.46 433.535 -638.46
C 433.965 -639.45 434.914 -639.76 435.57 -639.76
C 436.965 -639.76 437.691 -638.67 437.691 -637.54
C 437.691 -636.33 436.824 -635.37 436.379 -634.86
L 433.02 -631.54
C 432.879 -631.42 432.879 -631.39 432.879 -631
L 438.625 -631
Z
"/>
<path d="
M 386.996 -613
L 441.715 -613
L 441.715 -613.96
L 386.996 -613.96
Z
"/>
<path d="
M 447.758 -628.98
C 447.758 -630.54 447.539 -632.95 446.441 -635.2
C 445.246 -637.65 443.535 -638.95 443.336 -638.95
C 443.215 -638.95 443.137 -638.86 443.137 -638.75
C 443.137 -638.68 443.137 -638.64 443.516 -638.29
C 445.469 -636.31 446.602 -633.14 446.602 -628.98
C 446.602 -625.57 445.867 -622.07 443.395 -619.56
C 443.137 -619.32 443.137 -619.28 443.137 -619.22
C 443.137 -619.1 443.215 -619.02 443.336 -619.02
C 443.535 -619.02 445.328 -620.38 446.504 -622.9
C 447.52 -625.1 447.758 -627.31 447.758 -628.98
Z
"/>
<path d="
M 442 -613
L 449.918 -613
L 449.918 -613.96
L 442 -613.96
Z
"/>
<path d="
M 354.172 -598.58
C 354.449 -598.58 354.828 -598.58 354.828 -598.98
C 354.828 -599.38 354.449 -599.38 354.172 -599.38
L 343.312 -599.38
C 343.031 -599.38 342.652 -599.38 342.652 -598.98
C 342.652 -598.58 343.031 -598.58 343.312 -598.58
Z
"/>
<path d="
M 365.945 -597.47
L 365.449 -597.47
C 365.348 -596.87 365.211 -595.99 365.012 -595.7
C 364.871 -595.54 363.555 -595.54 363.117 -595.54
L 359.531 -595.54
L 361.645 -597.59
C 364.75 -600.34 365.945 -601.41 365.945 -603.41
C 365.945 -605.68 364.152 -607.27 361.723 -607.27
C 359.473 -607.27 357.996 -605.44 357.996 -603.66
C 357.996 -602.55 358.992 -602.55 359.051 -602.55
C 359.391 -602.55 360.09 -602.79 360.09 -603.61
C 360.09 -604.12 359.73 -604.64 359.031 -604.64
C 358.871 -604.64 358.832 -604.64 358.773 -604.62
C 359.23 -605.91 360.309 -606.65 361.465 -606.65
C 363.277 -606.65 364.133 -605.04 364.133 -603.41
C 364.133 -601.81 363.137 -600.24 362.043 -599
L 358.215 -594.74
C 357.996 -594.52 357.996 -594.48 357.996 -594
L 365.387 -594
Z
"/>
<path d="
M 373.656 -600.02
C 373.773 -600.54 374.234 -602.37 375.629 -602.37
C 375.727 -602.37 376.207 -602.37 376.625 -602.11
C 376.066 -602.01 375.668 -601.51 375.668 -601.04
C 375.668 -600.71 375.887 -600.34 376.426 -600.34
C 376.863 -600.34 377.5 -600.7 377.5 -601.49
C 377.5 -602.53 376.324 -602.81 375.648 -602.81
C 374.492 -602.81 373.793 -601.75 373.555 -601.29
C 373.059 -602.61 371.98 -602.81 371.402 -602.81
C 369.332 -602.81 368.195 -600.24 368.195 -599.74
C 368.195 -599.54 368.395 -599.54 368.434 -599.54
C 368.594 -599.54 368.652 -599.58 368.695 -599.76
C 369.371 -601.87 370.688 -602.37 371.363 -602.37
C 371.742 -602.37 372.441 -602.19 372.441 -601.04
C 372.441 -600.41 372.102 -599.08 371.363 -596.29
C 371.043 -595.05 370.348 -594.22 369.473 -594.22
C 369.352 -594.22 368.895 -594.22 368.473 -594.48
C 368.973 -594.58 369.41 -595 369.41 -595.55
C 369.41 -596.09 368.973 -596.25 368.672 -596.25
C 368.074 -596.25 367.578 -595.73 367.578 -595.1
C 367.578 -594.18 368.574 -593.78 369.449 -593.78
C 370.766 -593.78 371.484 -595.18 371.543 -595.3
C 371.781 -594.56 372.5 -593.78 373.695 -593.78
C 375.746 -593.78 376.883 -596.35 376.883 -596.85
C 376.883 -597.05 376.703 -597.05 376.645 -597.05
C 376.465 -597.05 376.426 -596.97 376.387 -596.83
C 375.727 -594.7 374.371 -594.22 373.734 -594.22
C 372.957 -594.22 372.641 -594.86 372.641 -595.54
C 372.641 -595.97 372.758 -596.41 372.977 -597.29
Z
"/>
<path d="
M 381.809 -605.66
C 382.895 -605.66 383.676 -604.91 383.676 -603.41
C 383.676 -601.68 382.672 -601.17 381.863 -601.17
C 381.305 -601.17 380.078 -601.32 379.492 -602.14
C 380.148 -602.17 380.301 -602.63 380.301 -602.93
C 380.301 -603.37 379.965 -603.69 379.535 -603.69
C 379.145 -603.69 378.754 -603.45 378.754 -602.88
C 378.754 -601.57 380.203 -600.72 381.891 -600.72
C 383.832 -600.72 385.168 -602.02 385.168 -603.41
C 385.168 -604.5 384.277 -605.59 382.742 -605.91
C 384.207 -606.44 384.738 -607.48 384.738 -608.34
C 384.738 -609.44 383.469 -610.26 381.918 -610.26
C 380.371 -610.26 379.188 -609.51 379.188 -608.39
C 379.188 -607.92 379.492 -607.65 379.91 -607.65
C 380.344 -607.65 380.621 -607.97 380.621 -608.36
C 380.621 -608.77 380.344 -609.06 379.91 -609.09
C 380.398 -609.7 381.363 -609.86 381.879 -609.86
C 382.504 -609.86 383.383 -609.55 383.383 -608.34
C 383.383 -607.75 383.188 -607.11 382.824 -606.68
C 382.367 -606.15 381.977 -606.12 381.277 -606.08
C 380.93 -606.05 380.902 -606.05 380.832 -606.04
C 380.805 -606.04 380.691 -606.01 380.691 -605.86
C 380.691 -605.66 380.816 -605.66 381.055 -605.66
Z
"/>
<path d="
M 399.148 -598.58
L 404.707 -598.58
C 404.988 -598.58 405.367 -598.58 405.367 -598.98
C 405.367 -599.38 404.988 -599.38 404.707 -599.38
L 399.148 -599.38
L 399.148 -604.96
C 399.148 -605.24 399.148 -605.62 398.75 -605.62
C 398.352 -605.62 398.352 -605.24 398.352 -604.96
L 398.352 -599.38
L 392.773 -599.38
C 392.496 -599.38 392.117 -599.38 392.117 -598.98
C 392.117 -598.58 392.496 -598.58 392.773 -598.58
L 398.352 -598.58
L 398.352 -593
C 398.352 -592.73 398.352 -592.35 398.75 -592.35
C 399.148 -592.35 399.148 -592.73 399.148 -593
Z
"/>
<path d="
M 419.945 -597.47
L 419.449 -597.47
C 419.348 -596.87 419.211 -595.99 419.012 -595.7
C 418.871 -595.54 417.555 -595.54 417.117 -595.54
L 413.531 -595.54
L 415.645 -597.59
C 418.75 -600.34 419.945 -601.41 419.945 -603.41
C 419.945 -605.68 418.152 -607.27 415.723 -607.27
C 413.473 -607.27 411.996 -605.44 411.996 -603.66
C 411.996 -602.55 412.992 -602.55 413.051 -602.55
C 413.391 -602.55 414.09 -602.79 414.09 -603.61
C 414.09 -604.12 413.73 -604.64 413.031 -604.64
C 412.871 -604.64 412.832 -604.64 412.773 -604.62
C 413.23 -605.91 414.309 -606.65 415.465 -606.65
C 417.277 -606.65 418.133 -605.04 418.133 -603.41
C 418.133 -601.81 417.137 -600.24 416.043 -599
L 412.215 -594.74
C 411.996 -594.52 411.996 -594.48 411.996 -594
L 419.387 -594
Z
"/>
<path d="
M 427.656 -600.02
C 427.773 -600.54 428.234 -602.37 429.629 -602.37
C 429.727 -602.37 430.207 -602.37 430.625 -602.11
C 430.066 -602.01 429.668 -601.51 429.668 -601.04
C 429.668 -600.71 429.887 -600.34 430.426 -600.34
C 430.863 -600.34 431.5 -600.7 431.5 -601.49
C 431.5 -602.53 430.324 -602.81 429.648 -602.81
C 428.492 -602.81 427.793 -601.75 427.555 -601.29
C 427.059 -602.61 425.98 -602.81 425.402 -602.81
C 423.332 -602.81 422.195 -600.24 422.195 -599.74
C 422.195 -599.54 422.395 -599.54 422.434 -599.54
C 422.594 -599.54 422.652 -599.58 422.695 -599.76
C 423.371 -601.87 424.688 -602.37 425.363 -602.37
C 425.742 -602.37 426.441 -602.19 426.441 -601.04
C 426.441 -600.41 426.102 -599.08 425.363 -596.29
C 425.043 -595.05 424.348 -594.22 423.473 -594.22
C 423.352 -594.22 422.895 -594.22 422.473 -594.48
C 422.973 -594.58 423.41 -595 423.41 -595.55
C 423.41 -596.09 422.973 -596.25 422.672 -596.25
C 422.074 -596.25 421.578 -595.73 421.578 -595.1
C 421.578 -594.18 422.574 -593.78 423.449 -593.78
C 424.766 -593.78 425.484 -595.18 425.543 -595.3
C 425.781 -594.56 426.5 -593.78 427.695 -593.78
C 429.746 -593.78 430.883 -596.35 430.883 -596.85
C 430.883 -597.05 430.703 -597.05 430.645 -597.05
C 430.465 -597.05 430.426 -596.97 430.387 -596.83
C 429.727 -594.7 428.371 -594.22 427.734 -594.22
C 426.957 -594.22 426.641 -594.86 426.641 -595.54
C 426.641 -595.97 426.758 -596.41 426.977 -597.29
Z
"/>
<path d="
M 439.043 -603.54
L 438.57 -603.54
C 438.527 -603.23 438.387 -602.41 438.207 -602.27
C 438.094 -602.19 437.02 -602.19 436.824 -602.19
L 434.258 -602.19
C 435.723 -603.48 436.211 -603.88 437.051 -604.53
C 438.082 -605.35 439.043 -606.21 439.043 -607.54
C 439.043 -609.23 437.566 -610.26 435.781 -610.26
C 434.051 -610.26 432.879 -609.05 432.879 -607.77
C 432.879 -607.05 433.477 -606.98 433.617 -606.98
C 433.953 -606.98 434.355 -607.22 434.355 -607.72
C 434.355 -607.97 434.258 -608.46 433.535 -608.46
C 433.965 -609.45 434.914 -609.76 435.57 -609.76
C 436.965 -609.76 437.691 -608.67 437.691 -607.54
C 437.691 -606.33 436.824 -605.37 436.379 -604.86
L 433.02 -601.54
C 432.879 -601.42 432.879 -601.39 432.879 -601
L 438.625 -601
Z
"/>
<path d="
M 331.172 -574.58
C 331.449 -574.58 331.828 -574.58 331.828 -574.98
C 331.828 -575.38 331.449 -575.38 331.172 -575.38
L 320.312 -575.38
C 320.031 -575.38 319.652 -575.38 319.652 -574.98
C 319.652 -574.58 320.031 -574.58 320.312 -574.58
Z
"/>
<path d="
M 339.594 -565.22
C 339.594 -565.28 339.594 -565.32 339.258 -565.66
C 336.766 -568.17 336.129 -571.93 336.129 -574.98
C 336.129 -578.45 336.887 -581.91 339.336 -584.41
C 339.594 -584.64 339.594 -584.68 339.594 -584.75
C 339.594 -584.88 339.516 -584.95 339.395 -584.95
C 339.195 -584.95 337.402 -583.59 336.227 -581.06
C 335.211 -578.87 334.973 -576.66 334.973 -574.98
C 334.973 -573.43 335.191 -571.02 336.289 -568.77
C 337.484 -566.31 339.195 -565.02 339.395 -565.02
C 339.516 -565.02 339.594 -565.08 339.594 -565.22
Z
"/>
<path d="
M 354.172 -574.58
C 354.449 -574.58 354.828 -574.58 354.828 -574.98
C 354.828 -575.38 354.449 -575.38 354.172 -575.38
L 343.312 -575.38
C 343.031 -575.38 342.652 -575.38 342.652 -574.98
C 342.652 -574.58 343.031 -574.58 343.312 -574.58
Z
"/>
<path d="
M 365.945 -573.47
L 365.449 -573.47
C 365.348 -572.87 365.211 -571.99 365.012 -571.7
C 364.871 -571.54 363.555 -571.54 363.117 -571.54
L 359.531 -571.54
L 361.645 -573.59
C 364.75 -576.34 365.945 -577.41 365.945 -579.41
C 365.945 -581.68 364.152 -583.27 361.723 -583.27
C 359.473 -583.27 357.996 -581.44 357.996 -579.66
C 357.996 -578.55 358.992 -578.55 359.051 -578.55
C 359.391 -578.55 360.09 -578.79 360.09 -579.61
C 360.09 -580.12 359.73 -580.64 359.031 -580.64
C 358.871 -580.64 358.832 -580.64 358.773 -580.62
C 359.23 -581.91 360.309 -582.65 361.465 -582.65
C 363.277 -582.65 364.133 -581.04 364.133 -579.41
C 364.133 -577.81 363.137 -576.24 362.043 -575
L 358.215 -570.74
C 357.996 -570.52 357.996 -570.48 357.996 -570
L 365.387 -570
Z
"/>
<path d="
M 373.656 -576.02
C 373.773 -576.54 374.234 -578.37 375.629 -578.37
C 375.727 -578.37 376.207 -578.37 376.625 -578.11
C 376.066 -578.01 375.668 -577.51 375.668 -577.04
C 375.668 -576.71 375.887 -576.34 376.426 -576.34
C 376.863 -576.34 377.5 -576.7 377.5 -577.49
C 377.5 -578.53 376.324 -578.81 375.648 -578.81
C 374.492 -578.81 373.793 -577.75 373.555 -577.29
C 373.059 -578.61 371.98 -578.81 371.402 -578.81
C 369.332 -578.81 368.195 -576.24 368.195 -575.74
C 368.195 -575.54 368.395 -575.54 368.434 -575.54
C 368.594 -575.54 368.652 -575.58 368.695 -575.76
C 369.371 -577.87 370.688 -578.37 371.363 -578.37
C 371.742 -578.37 372.441 -578.19 372.441 -577.04
C 372.441 -576.41 372.102 -575.08 371.363 -572.29
C 371.043 -571.05 370.348 -570.22 369.473 -570.22
C 369.352 -570.22 368.895 -570.22 368.473 -570.48
C 368.973 -570.58 369.41 -571 369.41 -571.55
C 369.41 -572.09 368.973 -572.25 368.672 -572.25
C 368.074 -572.25 367.578 -571.73 367.578 -571.1
C 367.578 -570.18 368.574 -569.78 369.449 -569.78
C 370.766 -569.78 371.484 -571.18 371.543 -571.3
C 371.781 -570.56 372.5 -569.78 373.695 -569.78
C 375.746 -569.78 376.883 -572.35 376.883 -572.85
C 376.883 -573.05 376.703 -573.05 376.645 -573.05
C 376.465 -573.05 376.426 -572.97 376.387 -572.83
C 375.727 -570.7 374.371 -570.22 373.734 -570.22
C 372.957 -570.22 372.641 -570.86 372.641 -571.54
C 372.641 -571.97 372.758 -572.41 372.977 -573.29
Z
"/>
<path d="
M 381.809 -581.66
C 382.895 -581.66 383.676 -580.91 383.676 -579.41
C 383.676 -577.68 382.672 -577.17 381.863 -577.17
C 381.305 -577.17 380.078 -577.32 379.492 -578.14
C 380.148 -578.17 380.301 -578.63 380.301 -578.93
C 380.301 -579.37 379.965 -579.69 379.535 -579.69
C 379.145 -579.69 378.754 -579.45 378.754 -578.88
C 378.754 -577.57 380.203 -576.72 381.891 -576.72
C 383.832 -576.72 385.168 -578.02 385.168 -579.41
C 385.168 -580.5 384.277 -581.59 382.742 -581.91
C 384.207 -582.44 384.738 -583.48 384.738 -584.34
C 384.738 -585.44 383.469 -586.26 381.918 -586.26
C 380.371 -586.26 379.188 -585.51 379.188 -584.39
C 379.188 -583.92 379.492 -583.65 379.91 -583.65
C 380.344 -583.65 380.621 -583.97 380.621 -584.36
C 380.621 -584.77 380.344 -585.06 379.91 -585.09
C 380.398 -585.7 381.363 -585.86 381.879 -585.86
C 382.504 -585.86 383.383 -585.55 383.383 -584.34
C 383.383 -583.75 383.188 -583.11 382.824 -582.68
C 382.367 -582.15 381.977 -582.12 381.277 -582.08
C 380.93 -582.05 380.902 -582.05 380.832 -582.04
C 380.805 -582.04 380.691 -582.01 380.691 -581.86
C 380.691 -581.66 380.816 -581.66 381.055 -581.66
Z
"/>
<path d="
M 332.996 -560
L 386.754 -560
L 386.754 -560.96
L 332.996 -560.96
Z
"/>
<path d="
M 386.996 -560
L 441.715 -560
L 441.715 -560.96
L 386.996 -560.96
Z
"/>
<path d="
M 459.172 -574.58
C 459.449 -574.58 459.828 -574.58 459.828 -574.98
C 459.828 -575.38 459.449 -575.38 459.172 -575.38
L 448.312 -575.38
C 448.031 -575.38 447.652 -575.38 447.652 -574.98
C 447.652 -574.58 448.031 -574.58 448.312 -574.58
Z
"/>
<path d="
M 474.945 -573.47
L 474.449 -573.47
C 474.348 -572.87 474.211 -571.99 474.012 -571.7
C 473.871 -571.54 472.555 -571.54 472.117 -571.54
L 468.531 -571.54
L 470.645 -573.59
C 473.75 -576.34 474.945 -577.41 474.945 -579.41
C 474.945 -581.68 473.152 -583.27 470.723 -583.27
C 468.473 -583.27 466.996 -581.44 466.996 -579.66
C 466.996 -578.55 467.992 -578.55 468.051 -578.55
C 468.391 -578.55 469.09 -578.79 469.09 -579.61
C 469.09 -580.12 468.73 -580.64 468.031 -580.64
C 467.871 -580.64 467.832 -580.64 467.773 -580.62
C 468.23 -581.91 469.309 -582.65 470.465 -582.65
C 472.277 -582.65 473.133 -581.04 473.133 -579.41
C 473.133 -577.81 472.137 -576.24 471.043 -575
L 467.215 -570.74
C 466.996 -570.52 466.996 -570.48 466.996 -570
L 474.387 -570
Z
"/>
<path d="
M 482.656 -576.02
C 482.773 -576.54 483.234 -578.37 484.629 -578.37
C 484.727 -578.37 485.207 -578.37 485.625 -578.11
C 485.066 -578.01 484.668 -577.51 484.668 -577.04
C 484.668 -576.71 484.887 -576.34 485.426 -576.34
C 485.863 -576.34 486.5 -576.7 486.5 -577.49
C 486.5 -578.53 485.324 -578.81 484.648 -578.81
C 483.492 -578.81 482.793 -577.75 482.555 -577.29
C 482.059 -578.61 480.98 -578.81 480.402 -578.81
C 478.332 -578.81 477.195 -576.24 477.195 -575.74
C 477.195 -575.54 477.395 -575.54 477.434 -575.54
C 477.594 -575.54 477.652 -575.58 477.695 -575.76
C 478.371 -577.87 479.688 -578.37 480.363 -578.37
C 480.742 -578.37 481.441 -578.19 481.441 -577.04
C 481.441 -576.41 481.102 -575.08 480.363 -572.29
C 480.043 -571.05 479.348 -570.22 478.473 -570.22
C 478.352 -570.22 477.895 -570.22 477.473 -570.48
C 477.973 -570.58 478.41 -571 478.41 -571.55
C 478.41 -572.09 477.973 -572.25 477.672 -572.25
C 477.074 -572.25 476.578 -571.73 476.578 -571.1
C 476.578 -570.18 477.574 -569.78 478.449 -569.78
C 479.766 -569.78 480.484 -571.18 480.543 -571.3
C 480.781 -570.56 481.5 -569.78 482.695 -569.78
C 484.746 -569.78 485.883 -572.35 485.883 -572.85
C 485.883 -573.05 485.703 -573.05 485.645 -573.05
C 485.465 -573.05 485.426 -572.97 485.387 -572.83
C 484.727 -570.7 483.371 -570.22 482.734 -570.22
C 481.957 -570.22 481.641 -570.86 481.641 -571.54
C 481.641 -571.97 481.758 -572.41 481.977 -573.29
Z
"/>
<path d="
M 442 -560
L 487.84 -560
L 487.84 -560.96
L 442 -560.96
Z
"/>
<path d="
M 492.758 -574.98
C 492.758 -576.54 492.539 -578.95 491.441 -581.2
C 490.246 -583.65 488.535 -584.95 488.336 -584.95
C 488.215 -584.95 488.137 -584.86 488.137 -584.75
C 488.137 -584.68 488.137 -584.64 488.516 -584.29
C 490.469 -582.31 491.602 -579.14 491.602 -574.98
C 491.602 -571.57 490.867 -568.07 488.395 -565.56
C 488.137 -565.32 488.137 -565.28 488.137 -565.22
C 488.137 -565.1 488.215 -565.02 488.336 -565.02
C 488.535 -565.02 490.328 -566.38 491.504 -568.9
C 492.52 -571.1 492.758 -573.31 492.758 -574.98
Z
"/>
<path d="
M 487 -560
L 494.918 -560
L 494.918 -560.96
L 487 -560.96
Z
"/>
<path d="
M 419.945 -543.47
L 419.449 -543.47
C 419.348 -542.87 419.211 -541.99 419.012 -541.7
C 418.871 -541.54 417.555 -541.54 417.117 -541.54
L 413.531 -541.54
L 415.645 -543.59
C 418.75 -546.34 419.945 -547.41 419.945 -549.41
C 419.945 -551.68 418.152 -553.27 415.723 -553.27
C 413.473 -553.27 411.996 -551.44 411.996 -549.66
C 411.996 -548.55 412.992 -548.55 413.051 -548.55
C 413.391 -548.55 414.09 -548.79 414.09 -549.61
C 414.09 -550.12 413.73 -550.64 413.031 -550.64
C 412.871 -550.64 412.832 -550.64 412.773 -550.62
C 413.23 -551.91 414.309 -552.65 415.465 -552.65
C 417.277 -552.65 418.133 -551.04 418.133 -549.41
C 418.133 -547.81 417.137 -546.24 416.043 -545
L 412.215 -540.74
C 411.996 -540.52 411.996 -540.48 411.996 -540
L 419.387 -540
Z
"/>
<path d="
M 427.656 -546.02
C 427.773 -546.54 428.234 -548.37 429.629 -548.37
C 429.727 -548.37 430.207 -548.37 430.625 -548.11
C 430.066 -548.01 429.668 -547.51 429.668 -547.04
C 429.668 -546.71 429.887 -546.34 430.426 -546.34
C 430.863 -546.34 431.5 -546.7 431.5 -547.49
C 431.5 -548.53 430.324 -548.81 429.648 -548.81
C 428.492 -548.81 427.793 -547.75 427.555 -547.29
C 427.059 -548.61 425.98 -548.81 425.402 -548.81
C 423.332 -548.81 422.195 -546.24 422.195 -545.74
C 422.195 -545.54 422.395 -545.54 422.434 -545.54
C 422.594 -545.54 422.652 -545.58 422.695 -545.76
C 423.371 -547.87 424.688 -548.37 425.363 -548.37
C 425.742 -548.37 426.441 -548.19 426.441 -547.04
C 426.441 -546.41 426.102 -545.08 425.363 -542.29
C 425.043 -541.05 424.348 -540.22 423.473 -540.22
C 423.352 -540.22 422.895 -540.22 422.473 -540.48
C 422.973 -540.58 423.41 -541 423.41 -541.55
C 423.41 -542.09 422.973 -542.25 422.672 -542.25
C 422.074 -542.25 421.578 -541.73 421.578 -541.1
C 421.578 -540.18 422.574 -539.78 423.449 -539.78
C 424.766 -539.78 425.484 -541.18 425.543 -541.3
C 425.781 -540.56 426.5 -539.78 427.695 -539.78
C 429.746 -539.78 430.883 -542.35 430.883 -542.85
C 430.883 -543.05 430.703 -543.05 430.645 -543.05
C 430.465 -543.05 430.426 -542.97 430.387 -542.83
C 429.727 -540.7 428.371 -540.22 427.734 -540.22
C 426.957 -540.22 426.641 -540.86 426.641 -541.54
C 426.641 -541.97 426.758 -542.41 426.977 -543.29
Z
"/>
<path d="
M 439.043 -549.54
L 438.57 -549.54
C 438.527 -549.23 438.387 -548.41 438.207 -548.27
C 438.094 -548.19 437.02 -548.19 436.824 -548.19
L 434.258 -548.19
C 435.723 -549.48 436.211 -549.88 437.051 -550.53
C 438.082 -551.35 439.043 -552.21 439.043 -553.54
C 439.043 -555.23 437.566 -556.26 435.781 -556.26
C 434.051 -556.26 432.879 -555.05 432.879 -553.77
C 432.879 -553.05 433.477 -552.98 433.617 -552.98
C 433.953 -552.98 434.355 -553.22 434.355 -553.72
C 434.355 -553.97 434.258 -554.46 433.535 -554.46
C 433.965 -555.45 434.914 -555.76 435.57 -555.76
C 436.965 -555.76 437.691 -554.67 437.691 -553.54
C 437.691 -552.33 436.824 -551.37 436.379 -550.86
L 433.02 -547.54
C 432.879 -547.42 432.879 -547.39 432.879 -547
L 438.625 -547
Z
"/>
<path d="
M 454.148 -544.58
L 459.707 -544.58
C 459.988 -544.58 460.367 -544.58 460.367 -544.98
C 460.367 -545.38 459.988 -545.38 459.707 -545.38
L 454.148 -545.38
L 454.148 -550.96
C 454.148 -551.24 454.148 -551.62 453.75 -551.62
C 453.352 -551.62 453.352 -551.24 453.352 -550.96
L 453.352 -545.38
L 447.773 -545.38
C 447.496 -545.38 447.117 -545.38 447.117 -544.98
C 447.117 -544.58 447.496 -544.58 447.773 -544.58
L 453.352 -544.58
L 453.352 -539
C 453.352 -538.73 453.352 -538.35 453.75 -538.35
C 454.148 -538.35 454.148 -538.73 454.148 -539
Z
"/>
<path d="
M 474.945 -543.47
L 474.449 -543.47
C 474.348 -542.87 474.211 -541.99 474.012 -541.7
C 473.871 -541.54 472.555 -541.54 472.117 -541.54
L 468.531 -541.54
L 470.645 -543.59
C 473.75 -546.34 474.945 -547.41 474.945 -549.41
C 474.945 -551.68 473.152 -553.27 470.723 -553.27
C 468.473 -553.27 466.996 -551.44 466.996 -549.66
C 466.996 -548.55 467.992 -548.55 468.051 -548.55
C 468.391 -548.55 469.09 -548.79 469.09 -549.61
C 469.09 -550.12 468.73 -550.64 468.031 -550.64
C 467.871 -550.64 467.832 -550.64 467.773 -550.62
C 468.23 -551.91 469.309 -552.65 470.465 -552.65
C 472.277 -552.65 473.133 -551.04 473.133 -549.41
C 473.133 -547.81 472.137 -546.24 471.043 -545
L 467.215 -540.74
C 466.996 -540.52 466.996 -540.48 466.996 -540
L 474.387 -540
Z
"/>
<path d="
M 482.656 -546.02
C 482.773 -546.54 483.234 -548.37 484.629 -548.37
C 484.727 -548.37 485.207 -548.37 485.625 -548.11
C 485.066 -548.01 484.668 -547.51 484.668 -547.04
C 484.668 -546.71 484.887 -546.34 485.426 -546.34
C 485.863 -546.34 486.5 -546.7 486.5 -547.49
C 486.5 -548.53 485.324 -548.81 484.648 -548.81
C 483.492 -548.81 482.793 -547.75 482.555 -547.29
C 482.059 -548.61 480.98 -548.81 480.402 -548.81
C 478.332 -548.81 477.195 -546.24 477.195 -545.74
C 477.195 -545.54 477.395 -545.54 477.434 -545.54
C 477.594 -545.54 477.652 -545.58 477.695 -545.76
C 478.371 -547.87 479.688 -548.37 480.363 -548.37
C 480.742 -548.37 481.441 -548.19 481.441 -547.04
C 481.441 -546.41 481.102 -545.08 480.363 -542.29
C 480.043 -541.05 479.348 -540.22 478.473 -540.22
C 478.352 -540.22 477.895 -540.22 477.473 -540.48
C 477.973 -540.58 478.41 -541 478.41 -541.55
C 478.41 -542.09 477.973 -542.25 477.672 -542.25
C 477.074 -542.25 476.578 -541.73 476.578 -541.1
C 476.578 -540.18 477.574 -539.78 478.449 -539.78
C 479.766 -539.78 480.484 -541.18 480.543 -541.3
C 480.781 -540.56 481.5 -539.78 482.695 -539.78
C 484.746 -539.78 485.883 -542.35 485.883 -542.85
C 485.883 -543.05 485.703 -543.05 485.645 -543.05
C 485.465 -543.05 485.426 -542.97 485.387 -542.83
C 484.727 -540.7 483.371 -540.22 482.734 -540.22
C 481.957 -540.22 481.641 -540.86 481.641 -541.54
C 481.641 -541.97 481.758 -542.41 481.977 -543.29
Z
"/>
<path d="
M 505.172 -544.58
C 505.449 -544.58 505.828 -544.58 505.828 -544.98
C 505.828 -545.38 505.449 -545.38 505.172 -545.38
L 494.312 -545.38
C 494.031 -545.38 493.652 -545.38 493.652 -544.98
C 493.652 -544.58 494.031 -544.58 494.312 -544.58
Z
"/>
<path d="
M 516.859 -552.75
C 516.859 -553.23 516.859 -553.27 516.398 -553.27
C 515.164 -552 513.41 -552 512.773 -552
L 512.773 -551.38
C 513.172 -551.38 514.348 -551.38 515.383 -551.89
L 515.383 -541.57
C 515.383 -540.86 515.324 -540.62 513.531 -540.62
L 512.895 -540.62
L 512.895 -540
C 513.59 -540.06 515.324 -540.06 516.121 -540.06
C 516.918 -540.06 518.652 -540.06 519.348 -540
L 519.348 -540.62
L 518.711 -540.62
C 516.918 -540.62 516.859 -540.84 516.859 -541.57
Z
"/>
<path d="
M 401.172 -520.58
C 401.449 -520.58 401.828 -520.58 401.828 -520.98
C 401.828 -521.38 401.449 -521.38 401.172 -521.38
L 390.312 -521.38
C 390.031 -521.38 389.652 -521.38 389.652 -520.98
C 389.652 -520.58 390.031 -520.58 390.312 -520.58
Z
"/>
<path d="
M 410.594 -511.22
C 410.594 -511.28 410.594 -511.32 410.258 -511.66
C 407.766 -514.17 407.129 -517.93 407.129 -520.98
C 407.129 -524.45 407.887 -527.91 410.336 -530.41
C 410.594 -530.64 410.594 -530.68 410.594 -530.75
C 410.594 -530.88 410.516 -530.95 410.395 -530.95
C 410.195 -530.95 408.402 -529.59 407.227 -527.06
C 406.211 -524.87 405.973 -522.66 405.973 -520.98
C 405.973 -519.43 406.191 -517.02 407.289 -514.77
C 408.484 -512.31 410.195 -511.02 410.395 -511.02
C 410.516 -511.02 410.594 -511.08 410.594 -511.22
Z
M 419.945 -519.47
L 419.449 -519.47
C 419.348 -518.87 419.211 -517.99 419.012 -517.7
C 418.871 -517.54 417.555 -517.54 417.117 -517.54
L 413.531 -517.54
L 415.645 -519.59
C 418.75 -522.34 419.945 -523.41 419.945 -525.41
C 419.945 -527.68 418.152 -529.27 415.723 -529.27
C 413.473 -529.27 411.996 -527.44 411.996 -525.66
C 411.996 -524.55 412.992 -524.55 413.051 -524.55
C 413.391 -524.55 414.09 -524.79 414.09 -525.61
C 414.09 -526.12 413.73 -526.64 413.031 -526.64
C 412.871 -526.64 412.832 -526.64 412.773 -526.62
C 413.23 -527.91 414.309 -528.65 415.465 -528.65
C 417.277 -528.65 418.133 -527.04 418.133 -525.41
C 418.133 -523.81 417.137 -522.24 416.043 -521
L 412.215 -516.74
C 411.996 -516.52 411.996 -516.48 411.996 -516
L 419.387 -516
Z
"/>
<path d="
M 427.656 -522.02
C 427.773 -522.54 428.234 -524.37 429.629 -524.37
C 429.727 -524.37 430.207 -524.37 430.625 -524.11
C 430.066 -524.01 429.668 -523.51 429.668 -523.04
C 429.668 -522.71 429.887 -522.34 430.426 -522.34
C 430.863 -522.34 431.5 -522.7 431.5 -523.49
C 431.5 -524.53 430.324 -524.81 429.648 -524.81
C 428.492 -524.81 427.793 -523.75 427.555 -523.29
C 427.059 -524.61 425.98 -524.81 425.402 -524.81
C 423.332 -524.81 422.195 -522.24 422.195 -521.74
C 422.195 -521.54 422.395 -521.54 422.434 -521.54
C 422.594 -521.54 422.652 -521.58 422.695 -521.76
C 423.371 -523.87 424.688 -524.37 425.363 -524.37
C 425.742 -524.37 426.441 -524.19 426.441 -523.04
C 426.441 -522.41 426.102 -521.08 425.363 -518.29
C 425.043 -517.05 424.348 -516.22 423.473 -516.22
C 423.352 -516.22 422.895 -516.22 422.473 -516.48
C 422.973 -516.58 423.41 -517 423.41 -517.55
C 423.41 -518.09 422.973 -518.25 422.672 -518.25
C 422.074 -518.25 421.578 -517.73 421.578 -517.1
C 421.578 -516.18 422.574 -515.78 423.449 -515.78
C 424.766 -515.78 425.484 -517.18 425.543 -517.3
C 425.781 -516.56 426.5 -515.78 427.695 -515.78
C 429.746 -515.78 430.883 -518.35 430.883 -518.85
C 430.883 -519.05 430.703 -519.05 430.645 -519.05
C 430.465 -519.05 430.426 -518.97 430.387 -518.83
C 429.727 -516.7 428.371 -516.22 427.734 -516.22
C 426.957 -516.22 426.641 -516.86 426.641 -517.54
C 426.641 -517.97 426.758 -518.41 426.977 -519.29
Z
"/>
<path d="
M 440.043 -525.54
L 439.57 -525.54
C 439.527 -525.23 439.387 -524.41 439.207 -524.27
C 439.094 -524.19 438.02 -524.19 437.824 -524.19
L 435.258 -524.19
C 436.723 -525.48 437.211 -525.88 438.051 -526.53
C 439.082 -527.35 440.043 -528.21 440.043 -529.54
C 440.043 -531.23 438.566 -532.26 436.781 -532.26
C 435.051 -532.26 433.879 -531.05 433.879 -529.77
C 433.879 -529.05 434.477 -528.98 434.617 -528.98
C 434.953 -528.98 435.355 -529.22 435.355 -529.72
C 435.355 -529.97 435.258 -530.46 434.535 -530.46
C 434.965 -531.45 435.914 -531.76 436.57 -531.76
C 437.965 -531.76 438.691 -530.67 438.691 -529.54
C 438.691 -528.33 437.824 -527.37 437.379 -526.86
L 434.02 -523.54
C 433.879 -523.42 433.879 -523.39 433.879 -523
L 439.625 -523
Z
"/>
<path d="
M 404 -506
L 442.156 -506
L 442.156 -506.96
L 404 -506.96
Z
"/>
<path d="
M 442 -506
L 487.84 -506
L 487.84 -506.96
L 442 -506.96
Z
"/>
<path d="
M 500.148 -520.58
L 505.707 -520.58
C 505.988 -520.58 506.367 -520.58 506.367 -520.98
C 506.367 -521.38 505.988 -521.38 505.707 -521.38
L 500.148 -521.38
L 500.148 -526.96
C 500.148 -527.24 500.148 -527.62 499.75 -527.62
C 499.352 -527.62 499.352 -527.24 499.352 -526.96
L 499.352 -521.38
L 493.773 -521.38
C 493.496 -521.38 493.117 -521.38 493.117 -520.98
C 493.117 -520.58 493.496 -520.58 493.773 -520.58
L 499.352 -520.58
L 499.352 -515
C 499.352 -514.73 499.352 -514.35 499.75 -514.35
C 500.148 -514.35 500.148 -514.73 500.148 -515
Z
"/>
<path d="
M 519.945 -519.47
L 519.449 -519.47
C 519.348 -518.87 519.211 -517.99 519.012 -517.7
C 518.871 -517.54 517.555 -517.54 517.117 -517.54
L 513.531 -517.54
L 515.645 -519.59
C 518.75 -522.34 519.945 -523.41 519.945 -525.41
C 519.945 -527.68 518.152 -529.27 515.723 -529.27
C 513.473 -529.27 511.996 -527.44 511.996 -525.66
C 511.996 -524.55 512.992 -524.55 513.051 -524.55
C 513.391 -524.55 514.09 -524.79 514.09 -525.61
C 514.09 -526.12 513.73 -526.64 513.031 -526.64
C 512.871 -526.64 512.832 -526.64 512.773 -526.62
C 513.23 -527.91 514.309 -528.65 515.465 -528.65
C 517.277 -528.65 518.133 -527.04 518.133 -525.41
C 518.133 -523.81 517.137 -522.24 516.043 -521
L 512.215 -516.74
C 511.996 -516.52 511.996 -516.48 511.996 -516
L 519.387 -516
Z
"/>
<path d="
M 487 -506
L 521.316 -506
L 521.316 -506.96
L 487 -506.96
Z
"/>
<path d="
M 527.758 -520.98
C 527.758 -522.54 527.539 -524.95 526.441 -527.2
C 525.246 -529.65 523.535 -530.95 523.336 -530.95
C 523.215 -530.95 523.137 -530.86 523.137 -530.75
C 523.137 -530.68 523.137 -530.64 523.516 -530.29
C 525.469 -528.31 526.602 -525.14 526.602 -520.98
C 526.602 -517.57 525.867 -514.07 523.395 -511.56
C 523.137 -511.32 523.137 -511.28 523.137 -511.22
C 523.137 -511.1 523.215 -511.02 523.336 -511.02
C 523.535 -511.02 525.328 -512.38 526.504 -514.9
C 527.52 -517.1 527.758 -519.31 527.758 -520.98
Z
"/>
<path d="
M 521.996 -506
L 529.914 -506
L 529.914 -506.96
L 521.996 -506.96
Z
"/>
<path d="
M 474.945 -489.47
L 474.449 -489.47
C 474.348 -488.87 474.211 -487.99 474.012 -487.7
C 473.871 -487.54 472.555 -487.54 472.117 -487.54
L 468.531 -487.54
L 470.645 -489.59
C 473.75 -492.34 474.945 -493.41 474.945 -495.41
C 474.945 -497.68 473.152 -499.27 470.723 -499.27
C 468.473 -499.27 466.996 -497.44 466.996 -495.66
C 466.996 -494.55 467.992 -494.55 468.051 -494.55
C 468.391 -494.55 469.09 -494.79 469.09 -495.61
C 469.09 -496.12 468.73 -496.64 468.031 -496.64
C 467.871 -496.64 467.832 -496.64 467.773 -496.62
C 468.23 -497.91 469.309 -498.65 470.465 -498.65
C 472.277 -498.65 473.133 -497.04 473.133 -495.41
C 473.133 -493.81 472.137 -492.24 471.043 -491
L 467.215 -486.74
C 466.996 -486.52 466.996 -486.48 466.996 -486
L 474.387 -486
Z
"/>
<path d="
M 482.656 -492.02
C 482.773 -492.54 483.234 -494.37 484.629 -494.37
C 484.727 -494.37 485.207 -494.37 485.625 -494.11
C 485.066 -494.01 484.668 -493.51 484.668 -493.04
C 484.668 -492.71 484.887 -492.34 485.426 -492.34
C 485.863 -492.34 486.5 -492.7 486.5 -493.49
C 486.5 -494.53 485.324 -494.81 484.648 -494.81
C 483.492 -494.81 482.793 -493.75 482.555 -493.29
C 482.059 -494.61 480.98 -494.81 480.402 -494.81
C 478.332 -494.81 477.195 -492.24 477.195 -491.74
C 477.195 -491.54 477.395 -491.54 477.434 -491.54
C 477.594 -491.54 477.652 -491.58 477.695 -491.76
C 478.371 -493.87 479.688 -494.37 480.363 -494.37
C 480.742 -494.37 481.441 -494.19 481.441 -493.04
C 481.441 -492.41 481.102 -491.08 480.363 -488.29
C 480.043 -487.05 479.348 -486.22 478.473 -486.22
C 478.352 -486.22 477.895 -486.22 477.473 -486.48
C 477.973 -486.58 478.41 -487 478.41 -487.55
C 478.41 -488.09 477.973 -488.25 477.672 -488.25
C 477.074 -488.25 476.578 -487.73 476.578 -487.1
C 476.578 -486.18 477.574 -485.78 478.449 -485.78
C 479.766 -485.78 480.484 -487.18 480.543 -487.3
C 480.781 -486.56 481.5 -485.78 482.695 -485.78
C 484.746 -485.78 485.883 -488.35 485.883 -488.85
C 485.883 -489.05 485.703 -489.05 485.645 -489.05
C 485.465 -489.05 485.426 -488.97 485.387 -488.83
C 484.727 -486.7 483.371 -486.22 482.734 -486.22
C 481.957 -486.22 481.641 -486.86 481.641 -487.54
C 481.641 -487.97 481.758 -488.41 481.977 -489.29
Z
"/>
<path d="
M 505.172 -490.58
C 505.449 -490.58 505.828 -490.58 505.828 -490.98
C 505.828 -491.38 505.449 -491.38 505.172 -491.38
L 494.312 -491.38
C 494.031 -491.38 493.652 -491.38 493.652 -490.98
C 493.652 -490.58 494.031 -490.58 494.312 -490.58
Z
"/>
<path d="
M 516.777 -493.02
C 518.414 -493.55 519.566 -494.95 519.566 -496.52
C 519.566 -498.16 517.812 -499.27 515.902 -499.27
C 513.891 -499.27 512.375 -498.07 512.375 -496.56
C 512.375 -495.9 512.812 -495.52 513.391 -495.52
C 514.008 -495.52 514.406 -495.96 514.406 -496.54
C 514.406 -497.54 513.473 -497.54 513.172 -497.54
C 513.789 -498.51 515.105 -498.77 515.82 -498.77
C 516.641 -498.77 517.734 -498.33 517.734 -496.54
C 517.734 -496.3 517.695 -495.14 517.176 -494.27
C 516.578 -493.31 515.902 -493.25 515.402 -493.23
C 515.242 -493.21 514.766 -493.17 514.625 -493.17
C 514.469 -493.15 514.328 -493.13 514.328 -492.93
C 514.328 -492.71 514.469 -492.71 514.805 -492.71
L 515.684 -492.71
C 517.316 -492.71 518.055 -491.36 518.055 -489.41
C 518.055 -486.7 516.68 -486.12 515.801 -486.12
C 514.945 -486.12 513.449 -486.46 512.754 -487.63
C 513.449 -487.54 514.07 -487.97 514.07 -488.73
C 514.07 -489.45 513.531 -489.84 512.953 -489.84
C 512.473 -489.84 511.836 -489.57 511.836 -488.69
C 511.836 -486.88 513.691 -485.56 515.863 -485.56
C 518.293 -485.56 520.105 -487.38 520.105 -489.41
C 520.105 -491.04 518.852 -492.59 516.777 -493.02
Z
"/>
</g>
</svg>
